<svg width="9" height="14" viewBox="0 0 9 14" fill="none" xmlns="http://www.w3.org/2000/svg">
<g clip-path="url(#clip0_733_2)">
<path d="M4.5 14C4.6762 14.0003 4.85071 13.965 5.01353 13.8962C5.17634 13.8274 5.32423 13.7264 5.44871 13.5989L9 9.96942L8.05129 9L4.5 12.6288L0.948711 9L0 9.96942L3.55129 13.5982C3.67571 13.7258 3.82358 13.8269 3.9864 13.8959C4.14921 13.9648 4.32376 14.0002 4.5 14Z" fill="#707070"/>
<path d="M4.5 2.07181e-06C4.6762 -0.000311443 4.85071 0.0349597 5.01353 0.103789C5.17634 0.172618 5.32423 0.273648 5.44871 0.401071L9 4.03058L8.05129 5L4.5 1.37118L0.948711 5L0 4.03058L3.55129 0.401757C3.67571 0.27421 3.82358 0.173054 3.9864 0.104106C4.14921 0.0351581 4.32376 -0.000221525 4.5 2.07181e-06Z" fill="#707070" fill-opacity="0.5"/>
</g>
<defs>
<clipPath id="clip0_733_2">
<rect width="9" height="14" fill="white"/>
</clipPath>
</defs>
</svg>
