<svg width="16" height="16" viewBox="0 0 16 16" fill="none" xmlns="http://www.w3.org/2000/svg">
<g clip-path="url(#clip0_2040_1111)">
<path d="M12.6667 1.33333H12V0.666667C12 0.298667 11.702 0 11.3333 0C10.9647 0 10.6667 0.298667 10.6667 0.666667V1.33333H5.33333V0.666667C5.33333 0.298667 5.03533 0 4.66667 0C4.298 0 4 0.298667 4 0.666667V1.33333H3.33333C1.49533 1.33333 0 2.82867 0 4.66667V12.6667C0 14.5047 1.49533 16 3.33333 16H12.6667C14.5047 16 16 14.5047 16 12.6667V4.66667C16 2.82867 14.5047 1.33333 12.6667 1.33333ZM3.33333 2.66667H12.6667C13.7693 2.66667 14.6667 3.564 14.6667 4.66667V5.33333H1.33333V4.66667C1.33333 3.564 2.23067 2.66667 3.33333 2.66667ZM12.6667 14.6667H3.33333C2.23067 14.6667 1.33333 13.7693 1.33333 12.6667V6.66667H14.6667V12.6667C14.6667 13.7693 13.7693 14.6667 12.6667 14.6667ZM11.888 8.768C12.144 9.03267 12.136 9.45533 11.8713 9.71067L8.71133 12.756C8.34267 13.1247 7.84 13.3333 7.306 13.3333C6.772 13.3333 6.26933 13.1253 5.892 12.7473L4.39067 11.3527C4.12133 11.102 4.10533 10.68 4.356 10.4107C4.608 10.1407 5.02933 10.126 5.298 10.376L6.81667 11.7873C7.10533 12.074 7.52533 12.0553 7.776 11.8047L10.9453 8.75C11.2107 8.49467 11.632 8.50333 11.888 8.768Z" fill="#333333"/>
</g>
<defs>
<clipPath id="clip0_2040_1111">
<rect width="16" height="16" fill="white"/>
</clipPath>
</defs>
</svg>
