<svg width="19" height="19" viewBox="0 0 19 19" fill="none" xmlns="http://www.w3.org/2000/svg">
<g clip-path="url(#clip0_2668_1658)">
<path d="M14.9631 14.3596C15.3781 14.3596 15.7136 14.0199 15.7136 13.6013V6.01813C15.7136 5.59954 15.3781 5.25982 14.9631 5.25982C14.5481 5.25982 14.2127 5.59954 14.2127 6.01813V13.6013C14.2127 14.0199 14.5481 14.3596 14.9631 14.3596ZM11.2109 13.6013V6.01813C11.2109 5.59954 11.5463 5.25982 11.9613 5.25982C12.3763 5.25982 12.7118 5.59954 12.7118 6.01813V13.6013C12.7118 14.0199 12.3763 14.3596 11.9613 14.3596C11.5463 14.3596 11.2109 14.0199 11.2109 13.6013ZM3.70646 13.6013V6.01813C3.70646 5.59954 4.04191 5.25982 4.4569 5.25982C4.8719 5.25982 5.20734 5.59954 5.20734 6.01813V13.6013C5.20734 14.0199 4.8719 14.3596 4.4569 14.3596C4.04191 14.3596 3.70646 14.0199 3.70646 13.6013ZM8.20912 13.2221V6.39729C8.20912 5.76865 8.71342 5.25982 9.33479 5.25982C9.95615 5.25982 10.4605 5.76865 10.4605 6.39729V13.2221C10.4605 13.8508 9.95615 14.3596 9.33479 14.3596C8.71342 14.3596 8.20912 13.8508 8.20912 13.2221ZM13.4622 16.6345C13.4622 16.2159 13.7977 15.8762 14.2127 15.8762H15.7136C16.5413 15.8762 17.2144 15.196 17.2144 14.3596V12.843C17.2144 12.4244 17.5499 12.0846 17.9649 12.0846C18.3799 12.0846 18.7153 12.4244 18.7153 12.843V14.3596C18.7153 16.0324 17.369 17.3928 15.7136 17.3928H14.2127C13.7977 17.3928 13.4622 17.0531 13.4622 16.6345ZM0.704681 14.3596V12.843C0.704681 12.4244 1.04013 12.0846 1.45513 12.0846C1.87012 12.0846 2.20557 12.4244 2.20557 12.843V14.3596C2.20557 15.196 2.87872 15.8762 3.70646 15.8762H5.20734C5.62234 15.8762 5.95779 16.2159 5.95779 16.6345C5.95779 17.0531 5.62234 17.3928 5.20734 17.3928H3.70646C2.05098 17.3928 0.704681 16.0324 0.704681 14.3596ZM0.704681 6.77644V5.25982C0.704681 3.58698 2.05098 2.22656 3.70646 2.22656H5.20734C5.62234 2.22656 5.95779 2.56629 5.95779 2.98488C5.95779 3.40347 5.62234 3.74319 5.20734 3.74319H3.70646C2.87872 3.74319 2.20557 4.4234 2.20557 5.25982V6.77644C2.20557 7.19503 1.87012 7.53476 1.45513 7.53476C1.04013 7.53476 0.704681 7.19503 0.704681 6.77644ZM17.2144 6.77644V5.25982C17.2144 4.4234 16.5413 3.74319 15.7136 3.74319H14.2127C13.7977 3.74319 13.4622 3.40347 13.4622 2.98488C13.4622 2.56629 13.7977 2.22656 14.2127 2.22656H15.7136C17.369 2.22656 18.7153 3.58698 18.7153 5.25982V6.77644C18.7153 7.19503 18.3799 7.53476 17.9649 7.53476C17.5499 7.53476 17.2144 7.19503 17.2144 6.77644Z" fill="#6D6E6F"/>
<path d="M6.7085 5.64088C6.7085 5.43147 6.87639 5.26172 7.0835 5.26172C7.2906 5.26172 7.4585 5.43147 7.4585 5.64088V13.9823C7.4585 14.1917 7.2906 14.3615 7.0835 14.3615C6.87639 14.3615 6.7085 14.1917 6.7085 13.9823V5.64088Z" fill="white"/>
<path d="M7.0835 5.26172C7.2905 5.26172 7.4585 5.43158 7.4585 5.64088V13.9823C7.4585 14.1916 7.2905 14.3615 7.0835 14.3615C6.8765 14.3615 6.7085 14.1916 6.7085 13.9823V5.64088C6.7085 5.43158 6.8765 5.26172 7.0835 5.26172Z" fill="#6D6E6F"/>
</g>
<defs>
<clipPath id="clip0_2668_1658">
<rect width="18.0107" height="18.1995" fill="white" transform="matrix(-1 0 0 1 18.7153 0.710938)"/>
</clipPath>
</defs>
</svg>
