<svg width="16" height="19" viewBox="0 0 16 19" fill="none" xmlns="http://www.w3.org/2000/svg">
<path d="M15.1644 2.59033L13.3562 0.722792C13.1341 0.494764 12.8688 0.313373 12.5757 0.189257C12.2826 0.0651402 11.9677 0.000796758 11.6494 0L7.91667 0C7.0045 0.0011515 6.12063 0.316738 5.41401 0.893568C4.70739 1.4704 4.22124 2.2732 4.0375 3.16667H3.95833C2.9089 3.16792 1.90282 3.58537 1.16076 4.32742C0.418698 5.06948 0.00125705 6.07557 0 7.125V15.0417C0.00125705 16.0911 0.418698 17.0972 1.16076 17.8392C1.90282 18.5813 2.9089 18.9987 3.95833 19H8.70833C9.75776 18.9987 10.7639 18.5813 11.5059 17.8392C12.248 17.0972 12.6654 16.0911 12.6667 15.0417V14.9625C13.5601 14.7788 14.3629 14.2926 14.9398 13.586C15.5166 12.8794 15.8322 11.9955 15.8333 11.0833V4.24333C15.8345 3.62616 15.5945 3.03297 15.1644 2.59033ZM8.70833 17.4167H3.95833C3.32844 17.4167 2.72435 17.1664 2.27895 16.721C1.83356 16.2756 1.58333 15.6716 1.58333 15.0417V7.125C1.58333 6.49511 1.83356 5.89102 2.27895 5.44562C2.72435 5.00022 3.32844 4.75 3.95833 4.75V11.0833C3.95959 12.1328 4.37703 13.1389 5.11909 13.8809C5.86115 14.623 6.86724 15.0404 7.91667 15.0417H11.0833C11.0833 15.6716 10.8331 16.2756 10.3877 16.721C9.94231 17.1664 9.33822 17.4167 8.70833 17.4167ZM11.875 13.4583H7.91667C7.28678 13.4583 6.68269 13.2081 6.23729 12.7627C5.79189 12.3173 5.54167 11.7132 5.54167 11.0833V3.95833C5.54167 3.32844 5.79189 2.72435 6.23729 2.27895C6.68269 1.83356 7.28678 1.58333 7.91667 1.58333H11.0833V3.16667C11.0833 3.58659 11.2501 3.98932 11.5471 4.28625C11.844 4.58319 12.2467 4.75 12.6667 4.75H14.25V11.0833C14.25 11.7132 13.9998 12.3173 13.5544 12.7627C13.109 13.2081 12.5049 13.4583 11.875 13.4583Z" fill="#6D6E6F"/>
</svg>
