<svg width="17" height="19" viewBox="0 0 17 19" fill="none" xmlns="http://www.w3.org/2000/svg">
<path d="M13.0896 17.1029C11.9662 17.6742 10.7354 18.0037 9.47676 18.07C8.21816 18.1363 6.95956 17.9379 5.78236 17.4877C4.59896 17.0395 3.52434 16.3447 2.62993 15.4495C1.73552 14.5542 1.04171 13.4791 0.594526 12.2952C-0.0944738 10.4494 -0.165184 8.4296 0.393046 6.54007C0.951286 4.65053 2.10825 2.99347 3.68975 1.81838C4.72066 1.07542 5.88626 0.540144 7.12156 0.242354C7.44766 0.169524 7.78726 0.185144 8.10526 0.287614C8.42336 0.390074 8.70816 0.575664 8.93046 0.825164C9.15266 1.07466 9.30416 1.37902 9.36936 1.70673C9.43446 2.03444 9.41086 2.37361 9.30096 2.68913C7.67216 7.02573 10.1425 11.2198 14.7467 12.0439C15.0755 12.1086 15.381 12.2602 15.6314 12.483C15.8817 12.7057 16.0678 12.9915 16.1702 13.3106C16.2726 13.6297 16.2876 13.9704 16.2137 14.2972C16.1398 14.6241 15.9796 14.9252 15.7499 15.1691C14.9711 15.9505 14.0731 16.6032 13.0896 17.1029ZM5.64946 2.37539C5.27386 2.56566 4.91366 2.78495 4.57206 3.03127C3.25516 4.00926 2.29157 5.38854 1.82634 6.96151C1.36111 8.5345 1.41941 10.216 1.99247 11.753C2.36493 12.7417 2.94355 13.6398 3.68988 14.3876C4.43626 15.1354 5.33316 15.7159 6.32116 16.0903C7.75136 16.6071 9.30086 16.6977 10.7816 16.3511C12.2623 16.0045 13.6107 15.2357 14.663 14.1379C14.7076 14.0891 14.7386 14.0294 14.7527 13.9649C14.7668 13.9003 14.7636 13.8331 14.7434 13.7702C14.7233 13.7072 14.6868 13.6507 14.6377 13.6064C14.5887 13.5621 14.5288 13.5316 14.4641 13.5179C8.97726 12.5442 5.93586 7.3532 7.88926 2.18028C7.91136 2.12016 7.91616 2.05509 7.90326 1.99238C7.89036 1.92967 7.86016 1.87181 7.81616 1.82529C7.77266 1.77429 7.71606 1.73614 7.65246 1.71498C7.58886 1.69383 7.52076 1.69047 7.45536 1.70527C6.82856 1.85503 6.22226 2.08004 5.64946 2.37539Z" fill="#6D6E6F"/>
</svg>
