<svg width="16" height="16" viewBox="0 0 16 16" fill="none" xmlns="http://www.w3.org/2000/svg">
<g clip-path="url(#clip0_1240_1257)">
<mask id="mask0_1240_1257" style="mask-type:luminance" maskUnits="userSpaceOnUse" x="0" y="0" width="16" height="16">
<path d="M16 0H0V16H16V0Z" fill="white"/>
</mask>
<g mask="url(#mask0_1240_1257)">
<path d="M13.9999 2.66667H11.9333C11.7785 1.91427 11.3691 1.23823 10.7741 0.752478C10.179 0.266727 9.43474 0.000969684 8.66658 0H7.33327C6.56511 0.000969684 5.8208 0.266727 5.22574 0.752478C4.6307 1.23823 4.22133 1.91427 4.06658 2.66667H1.99992C1.82311 2.66667 1.65354 2.73691 1.52851 2.86193C1.40349 2.98695 1.33325 3.15653 1.33325 3.33334C1.33325 3.51016 1.40349 3.67972 1.52851 3.80475C1.65354 3.92975 1.82311 4 1.99992 4H2.66659V12.6667C2.66764 13.5504 3.01917 14.3976 3.64408 15.0225C4.26896 15.6474 5.11617 15.9989 5.99992 16H9.99992C10.8836 15.9989 11.7309 15.6474 12.3558 15.0225C12.9807 14.3976 13.3322 13.5504 13.3333 12.6667V4H13.9999C14.1767 4 14.3463 3.92975 14.4713 3.80475C14.5964 3.67972 14.6666 3.51016 14.6666 3.33334C14.6666 3.15653 14.5964 2.98695 14.4713 2.86193C14.3463 2.73691 14.1767 2.66667 13.9999 2.66667ZM7.33327 1.33333H8.66658C9.08011 1.33384 9.48333 1.46225 9.82099 1.70096C10.1586 1.93968 10.4142 2.27699 10.5526 2.66667H5.44724C5.58564 2.27699 5.84117 1.93968 6.17883 1.70096C6.51649 1.46225 6.91974 1.33384 7.33327 1.33333ZM11.9999 12.6667C11.9999 13.1971 11.7892 13.7058 11.4141 14.0809C11.039 14.456 10.5304 14.6667 9.99992 14.6667H5.99992C5.46949 14.6667 4.96077 14.456 4.5857 14.0809C4.21064 13.7058 3.99992 13.1971 3.99992 12.6667V4H11.9999V12.6667Z" fill="#6D6E6F"/>
<path d="M6.66666 12.0003C6.84347 12.0003 7.01303 11.9301 7.13806 11.8051C7.26309 11.6801 7.33334 11.5105 7.33334 11.3337V7.33368C7.33334 7.15687 7.26309 6.9873 7.13806 6.86227C7.01303 6.73724 6.84347 6.66699 6.66666 6.66699C6.48984 6.66699 6.32028 6.73724 6.19525 6.86227C6.07025 6.9873 6 7.15687 6 7.33368V11.3337C6 11.5105 6.07025 11.6801 6.19525 11.8051C6.32028 11.9301 6.48984 12.0003 6.66666 12.0003Z" fill="#6D6E6F"/>
<path d="M9.33319 12.0003C9.51 12.0003 9.67957 11.9301 9.8046 11.8051C9.92963 11.6801 9.99985 11.5105 9.99985 11.3337V7.33368C9.99985 7.15687 9.92963 6.9873 9.8046 6.86227C9.67957 6.73724 9.51 6.66699 9.33319 6.66699C9.15638 6.66699 8.98682 6.73724 8.86178 6.86227C8.73675 6.9873 8.6665 7.15687 8.6665 7.33368V11.3337C8.6665 11.5105 8.73675 11.6801 8.86178 11.8051C8.98682 11.9301 9.15638 12.0003 9.33319 12.0003Z" fill="#6D6E6F"/>
</g>
</g>
<defs>
<clipPath id="clip0_1240_1257">
<rect width="16" height="16" fill="white"/>
</clipPath>
</defs>
</svg>
