<svg width="9" height="12" viewBox="0 0 9 12" fill="none" xmlns="http://www.w3.org/2000/svg">
<g clip-path="url(#clip0_707_2)">
<mask id="mask0_707_2" style="mask-type:luminance" maskUnits="userSpaceOnUse" x="0" y="0" width="9" height="12">
<path d="M9 0H0V12H9V0Z" fill="white"/>
</mask>
<g mask="url(#mask0_707_2)">
<path d="M4.5 12C4.6762 12.0003 4.85071 11.965 5.01353 11.8962C5.17634 11.8274 5.32423 11.7264 5.44871 11.5989L9 7.96942L8.05129 7L4.5 10.6288L0.948711 7L0 7.96942L3.55129 11.5982C3.67571 11.7258 3.82358 11.8269 3.9864 11.8959C4.14921 11.9648 4.32376 12.0002 4.5 12Z" fill="rgba(112, 112, 112, 0.5)"/>
<path d="M4.5 2.07181e-06C4.6762 -0.000311443 4.85071 0.0349597 5.01353 0.103789C5.17634 0.172618 5.32423 0.273648 5.44871 0.401071L9 4.03058L8.05129 5L4.5 1.37118L0.948711 5L0 4.03058L3.55129 0.401757C3.67571 0.27421 3.82358 0.173054 3.9864 0.104106C4.14921 0.0351581 4.32376 -0.000221525 4.5 2.07181e-06Z" fill="rgba(112, 112, 112, 1)"/>
</g>
</g>
<defs>
<clipPath id="clip0_707_2">
<rect width="9" height="12" fill="white"/>
</clipPath>
</defs>
</svg>
