<svg width="16" height="16" viewBox="0 0 16 16" fill="none" xmlns="http://www.w3.org/2000/svg">
<g clip-path="url(#clip0_2975_2013)">
<path d="M11.3333 9.33335C11.3333 9.51016 11.263 9.67973 11.138 9.80475C11.013 9.92978 10.8434 10 10.6666 10H5.33325C5.15644 10 4.98687 9.92978 4.86185 9.80475C4.73682 9.67973 4.66659 9.51016 4.66659 9.33335C4.66659 9.15654 4.73682 8.98697 4.86185 8.86194C4.98687 8.73692 5.15644 8.66668 5.33325 8.66668H10.6666C10.8434 8.66668 11.013 8.73692 11.138 8.86194C11.263 8.98697 11.3333 9.15654 11.3333 9.33335ZM8.66659 11.3333H5.33325C5.15644 11.3333 4.98687 11.4036 4.86185 11.5286C4.73682 11.6536 4.66659 11.8232 4.66659 12C4.66659 12.1768 4.73682 12.3464 4.86185 12.4714C4.98687 12.5964 5.15644 12.6667 5.33325 12.6667H8.66659C8.8434 12.6667 9.01297 12.5964 9.13799 12.4714C9.26301 12.3464 9.33325 12.1768 9.33325 12C9.33325 11.8232 9.26301 11.6536 9.13799 11.5286C9.01297 11.4036 8.8434 11.3333 8.66659 11.3333ZM14.6666 6.99002V12.6667C14.6655 13.5504 14.314 14.3976 13.6891 15.0225C13.0642 15.6474 12.217 15.999 11.3333 16H4.66659C3.78286 15.999 2.93562 15.6474 2.31073 15.0225C1.68584 14.3976 1.33431 13.5504 1.33325 12.6667V3.33335C1.33431 2.44962 1.68584 1.60239 2.31073 0.977495C2.93562 0.352603 3.78286 0.00107394 4.66659 1.53658e-05H7.67659C8.28966 -0.00156258 8.89697 0.118407 9.4634 0.352988C10.0298 0.587569 10.5441 0.932107 10.9766 1.36668L13.2993 3.69068C13.7341 4.12284 14.0788 4.63699 14.3135 5.20333C14.5482 5.76968 14.6682 6.37696 14.6666 6.99002ZM10.0339 2.30935C9.82411 2.10612 9.58854 1.9313 9.33325 1.78935V4.66668C9.33325 4.84349 9.40349 5.01306 9.52851 5.13809C9.65354 5.26311 9.82311 5.33335 9.99992 5.33335H12.8773C12.7352 5.07814 12.5602 4.84278 12.3566 4.63335L10.0339 2.30935ZM13.3333 6.99002C13.3333 6.88002 13.3119 6.77468 13.3019 6.66668H9.99992C9.46949 6.66668 8.96078 6.45597 8.58571 6.0809C8.21063 5.70582 7.99992 5.19712 7.99992 4.66668V1.36468C7.89192 1.35468 7.78592 1.33335 7.67659 1.33335H4.66659C4.13615 1.33335 3.62744 1.54406 3.25237 1.91914C2.8773 2.29421 2.66659 2.80292 2.66659 3.33335V12.6667C2.66659 13.1971 2.8773 13.7058 3.25237 14.0809C3.62744 14.456 4.13615 14.6667 4.66659 14.6667H11.3333C11.8637 14.6667 12.3724 14.456 12.7475 14.0809C13.1225 13.7058 13.3333 13.1971 13.3333 12.6667V6.99002Z" fill="#6D6E6F"/>
</g>
<defs>
<clipPath id="clip0_2975_2013">
<rect width="16" height="16" fill="white"/>
</clipPath>
</defs>
</svg>
