<svg width="14" height="14" viewBox="0 0 14 14" fill="none" xmlns="http://www.w3.org/2000/svg">
<path fill-rule="evenodd" clip-rule="evenodd" d="M9.63044 0.0761367C9.94288 -0.0253789 10.2794 -0.0253789 10.5919 0.0761367C10.8169 0.149271 10.9893 0.273233 11.125 0.38843C11.2486 0.493306 11.3834 0.628102 11.5215 0.766298L12.9098 2.15452C13.0486 2.29332 13.1838 2.42849 13.289 2.55234C13.4044 2.68832 13.5285 2.86092 13.6018 3.08629C13.7033 3.39876 13.7032 3.7353 13.6017 4.04768C13.5286 4.27291 13.4045 4.44541 13.2892 4.58131C13.1841 4.70506 13.0491 4.84009 12.9104 4.97866L12.8858 5.00334L5.7666 12.1225H13.2222C13.6518 12.1225 14 12.4707 14 12.9003C14 13.3298 13.6518 13.678 13.2222 13.678H0.777786C0.348227 13.678 0 13.3298 0 12.9003V9.78914C0 9.58288 0.0819467 9.38501 0.227803 9.23918L6.45003 3.01696L8.68506 0.781939L8.70007 0.766943C8.83843 0.628538 8.9733 0.493593 9.09697 0.388624C9.23277 0.27335 9.40528 0.14931 9.63044 0.0761367ZM7 4.66688L1.55556 10.1113V12.1225H3.56672L9.01118 6.67803L7 4.66688ZM10.1111 5.5781L11.7994 3.88974C11.9582 3.73098 12.0453 3.64295 12.1032 3.57464C12.1056 3.57195 12.1077 3.56939 12.1097 3.56696C12.1077 3.56446 12.1054 3.56183 12.1031 3.55907C12.0442 3.48969 11.9554 3.40001 11.7923 3.23693L10.4391 1.88375C10.2767 1.72134 10.1875 1.63296 10.1184 1.57436C10.1159 1.57221 10.1134 1.57017 10.1111 1.56824C10.1088 1.57022 10.1063 1.57231 10.1036 1.57453C10.0345 1.63323 9.94513 1.72177 9.7825 1.88441L9.77861 1.88825L8.09993 3.56693L10.1111 5.5781Z" fill="#6D6E6F"/>
</svg>
