<svg width="12" height="12" viewBox="0 0 12 12" fill="none" xmlns="http://www.w3.org/2000/svg">
<g id="Edit / Edit_Pencil_Line_01">
<path id="Vector (Stroke)" fill-rule="evenodd" clip-rule="evenodd" d="M8.25467 0.06526C8.52247 -0.0217533 8.81093 -0.0217533 9.07873 0.06526C9.27167 0.127947 9.4194 0.2342 9.53573 0.33294C9.64167 0.422833 9.7572 0.538373 9.8756 0.656827L11.0655 1.84673C11.1845 1.9657 11.3004 2.08157 11.3905 2.18772C11.4895 2.30427 11.5959 2.45222 11.6587 2.64539C11.7457 2.91323 11.7456 3.20169 11.6586 3.46944C11.5959 3.66249 11.4896 3.81035 11.3907 3.92684C11.3007 4.03291 11.1849 4.14865 11.0661 4.26743L11.0449 4.28858L4.9428 10.3907H11.3333C11.7015 10.3907 12 10.6892 12 11.0574C12 11.4256 11.7015 11.724 11.3333 11.724H0.666673C0.29848 11.724 0 11.4256 0 11.0574V8.39069C0 8.21389 0.0702401 8.04429 0.19526 7.91929L5.5286 2.58597L7.44433 0.670233L7.4572 0.65738C7.5758 0.538747 7.6914 0.42308 7.7974 0.333107C7.9138 0.2343 8.06167 0.12798 8.25467 0.06526ZM6 4.00018L1.33333 8.66683V10.3907H3.05719L7.72387 5.72403L6 4.00018ZM8.66667 4.78123L10.1138 3.33406C10.2499 3.19798 10.3245 3.12253 10.3742 3.06397C10.3762 3.06167 10.378 3.05947 10.3797 3.05739C10.378 3.05525 10.3761 3.053 10.3741 3.05063C10.3236 2.99117 10.2475 2.91429 10.1077 2.77451L8.9478 1.61465C8.8086 1.47543 8.73213 1.39968 8.67293 1.34945C8.67073 1.34761 8.66867 1.34586 8.66667 1.34421C8.66467 1.3459 8.66253 1.34769 8.66027 1.34959C8.601 1.39991 8.5244 1.47581 8.385 1.61521L8.38167 1.6185L6.9428 3.05737L8.66667 4.78123Z" fill="#6D6E6F"/>
</g>
</svg>
