<svg width="16" height="16" viewBox="0 0 16 16" fill="none" xmlns="http://www.w3.org/2000/svg">
<g clip-path="url(#clip0_1906_930)">
<path fill-rule="evenodd" clip-rule="evenodd" d="M5.67712 9.98973H7.54933C7.78831 9.98973 8.01219 9.89728 8.18137 9.7281L12.9037 5.00573C13.0974 4.81203 13.2044 4.55419 13.2044 4.27999C13.2044 4.00516 13.0974 3.74669 12.9037 3.55299L12.1384 2.78762C11.7378 2.38827 11.0862 2.38827 10.685 2.78762L5.98528 7.48735C5.82239 7.65023 5.72994 7.86657 5.72428 8.09612L5.67712 9.98973ZM7.54933 10.9331H5.1935C5.06646 10.9331 4.94445 10.8815 4.85578 10.7903C4.7671 10.6997 4.71868 10.5771 4.72182 10.4494L4.78094 8.07285C4.79289 7.59992 4.98344 7.15529 5.31802 6.82009L10.0184 2.12036C10.7869 1.35311 12.0365 1.35311 12.805 2.12036L13.5704 2.88573C13.9433 3.25803 14.1483 3.75297 14.1477 4.27999C14.1477 4.807 13.9427 5.30132 13.5704 5.67299L8.848 10.3954C8.50147 10.7419 8.03986 10.9331 7.54933 10.9331Z" fill="#6D6E6F"/>
<path fill-rule="evenodd" clip-rule="evenodd" d="M12.5088 6.52335C12.3881 6.52335 12.2673 6.47744 12.1755 6.385L9.30397 3.51347C9.1197 3.3292 9.1197 3.03047 9.30397 2.84621C9.48824 2.66194 9.78633 2.66194 9.9706 2.84621L12.8421 5.71837C13.0264 5.90264 13.0264 6.20073 12.8421 6.385C12.7503 6.47744 12.6296 6.52335 12.5088 6.52335Z" fill="#6D6E6F"/>
<path fill-rule="evenodd" clip-rule="evenodd" d="M11.4712 16H4.52724C1.8194 16 0 14.0995 0 11.2713V4.7287C0 1.90045 1.8194 0 4.52724 0H7.4696C7.79539 0 8.0598 0.264411 8.0598 0.590202C8.0598 0.915994 7.79539 1.1804 7.4696 1.1804H4.52724C2.4938 1.1804 1.1804 2.57328 1.1804 4.7287V11.2713C1.1804 13.4267 2.4938 14.8196 4.52724 14.8196H11.4712C13.5046 14.8196 14.8188 13.4267 14.8188 11.2713V8.10152C14.8188 7.77573 15.0832 7.51132 15.409 7.51132C15.7348 7.51132 15.9992 7.77573 15.9992 8.10152V11.2713C15.9992 14.0995 14.179 16 11.4712 16Z" fill="#6D6E6F"/>
</g>
<defs>
<clipPath id="clip0_1906_930">
<rect width="16" height="16" fill="white"/>
</clipPath>
</defs>
</svg>
