<svg width="16" height="16" viewBox="0 0 16 16" fill="none" xmlns="http://www.w3.org/2000/svg">
<g clip-path="url(#clip0_1240_1265)">
<mask id="mask0_1240_1265" style="mask-type:luminance" maskUnits="userSpaceOnUse" x="0" y="0" width="16" height="16">
<path d="M16 0H0V16H16V0Z" fill="white"/>
</mask>
<g mask="url(#mask0_1240_1265)">
<path d="M12.4373 0.620374L4.30926 8.74837C3.99883 9.05713 3.75273 9.42441 3.5852 9.82894C3.41767 10.2335 3.33205 10.6672 3.33326 11.105V12.0004C3.33326 12.1772 3.40351 12.3468 3.52855 12.4718C3.65358 12.5968 3.82314 12.667 3.99995 12.667H4.89526C5.33311 12.6683 5.76686 12.5827 6.17139 12.4151C6.57592 12.2476 6.94317 12.0015 7.25195 11.691L15.38 3.56303C15.7695 3.1725 15.9883 2.64336 15.9883 2.09171C15.9883 1.54006 15.7695 1.01093 15.38 0.620374C14.9837 0.241636 14.4567 0.0302734 13.9086 0.0302734C13.3605 0.0302734 12.8335 0.241636 12.4373 0.620374ZM14.4373 2.62037L6.30926 10.7484C5.93336 11.122 5.4253 11.3323 4.89526 11.3337H4.66661V11.105C4.66801 10.575 4.87833 10.067 5.25195 9.69103L13.38 1.56304C13.5223 1.42701 13.7117 1.3511 13.9086 1.3511C14.1055 1.3511 14.2949 1.42701 14.4373 1.56304C14.5772 1.70338 14.6558 1.8935 14.6558 2.09171C14.6558 2.28991 14.5772 2.48003 14.4373 2.62037Z" fill="#FFFFFF"/>
<path d="M15.3333 5.986C15.1565 5.986 14.987 6.05625 14.8619 6.18125C14.7369 6.30628 14.6667 6.47584 14.6667 6.65266V10H12C11.4696 10 10.9609 10.2107 10.5858 10.5858C10.2107 10.9609 10 11.4696 10 12V14.6667H3.33334C2.8029 14.6667 2.29419 14.456 1.91912 14.0809C1.54405 13.7058 1.33333 13.1971 1.33333 12.6667V3.33334C1.33333 2.8029 1.54405 2.29419 1.91912 1.91912C2.29419 1.54405 2.8029 1.33333 3.33334 1.33333H9.36134C9.53816 1.33333 9.70772 1.2631 9.83275 1.13807C9.95775 1.01305 10.028 0.843478 10.028 0.666666C10.028 0.489856 9.95775 0.320288 9.83275 0.195262C9.70772 0.0702378 9.53816 0 9.36134 0H3.33334C2.4496 0.00105857 1.60237 0.352588 0.977481 0.977481C0.352588 1.60237 0.00105857 2.4496 0 3.33334V12.6667C0.00105857 13.5504 0.352588 14.3976 0.977481 15.0225C1.60237 15.6474 2.4496 15.9989 3.33334 16H10.8953C11.3333 16.0013 11.7671 15.9156 12.1718 15.7481C12.5764 15.5806 12.9438 15.3345 13.2527 15.024L15.0233 13.252C15.3338 12.9433 15.58 12.576 15.7477 12.1715C15.9153 11.767 16.0011 11.3332 16 10.8953V6.65266C16 6.47584 15.9298 6.30628 15.8048 6.18125C15.6797 6.05625 15.5102 5.986 15.3333 5.986ZM12.31 14.0813C12.042 14.3487 11.7031 14.5338 11.3333 14.6147V12C11.3333 11.8232 11.4036 11.6536 11.5286 11.5286C11.6536 11.4036 11.8232 11.3333 12 11.3333H14.6167C14.5342 11.7023 14.3493 12.0406 14.0833 12.3093L12.31 14.0813Z" fill="#FFFFFF"/>
</g>
</g>
<defs>
<clipPath id="clip0_1240_1265">
<rect width="16" height="16" fill="white"/>
</clipPath>
</defs>
</svg>
