<svg width="18" height="18" viewBox="0 0 18 18" fill="none" xmlns="http://www.w3.org/2000/svg">
<path d="M11.9311 6.06888L11.9311 6.06886C11.823 5.96074 11.6763 5.9 11.5234 5.9C11.3704 5.9 11.2238 5.96074 11.1156 6.06886L11.1156 6.06887L9 8.18447L6.8844 6.06887L6.88439 6.06886C6.77623 5.96074 6.62956 5.9 6.47663 5.9C6.3237 5.9 6.17704 5.96074 6.06888 6.06886L6.06886 6.06888C5.96074 6.17704 5.9 6.3237 5.9 6.47663C5.9 6.62956 5.96074 6.77623 6.06886 6.88439L6.06887 6.8844L8.18447 9L6.06887 11.1156L6.06886 11.1156C5.96074 11.2238 5.9 11.3704 5.9 11.5234C5.9 11.6763 5.96074 11.823 6.06886 11.9311L6.06888 11.9311C6.17704 12.0393 6.3237 12.1 6.47663 12.1C6.62956 12.1 6.77623 12.0393 6.88439 11.9311L6.8844 11.9311L9 9.81553L11.1156 11.9311L11.1156 11.9311C11.2238 12.0393 11.3704 12.1 11.5234 12.1C11.6763 12.1 11.823 12.0393 11.9311 11.9311L11.9311 11.9311C12.0393 11.823 12.1 11.6763 12.1 11.5234C12.1 11.3704 12.0393 11.2238 11.9311 11.1156L11.9311 11.1156L9.81553 9L11.9311 6.8844L11.9311 6.88439C12.0393 6.77623 12.1 6.62956 12.1 6.47663C12.1 6.3237 12.0393 6.17704 11.9311 6.06888Z" fill="#F80808" stroke="#F80808" stroke-width="0.2"/>
<path d="M9 0C4.03734 0 0 4.03734 0 9C0 13.9627 4.03734 18 9 18C13.9627 18 18 13.9627 18 9C18 4.03734 13.9627 0 9 0ZM9 16.5406C4.84225 16.5406 1.45944 13.158 1.45944 9C1.45944 4.84225 4.84221 1.45944 9 1.45944C13.158 1.45944 16.5406 4.84221 16.5406 9C16.5406 13.158 13.158 16.5406 9 16.5406Z" fill="#F80808"/>
</svg>
