<svg width="16" height="16" viewBox="0 0 16 16" fill="none" xmlns="http://www.w3.org/2000/svg">
<g clip-path="url(#clip0_1283_1097)">
<path d="M12.4491 13.9333C12.1755 13.6867 11.7486 13.7133 11.5084 13.9933C11.1281 14.4267 10.581 14.6733 10.0073 14.6733H3.33577C2.23496 14.6733 1.33431 13.7733 1.33431 12.6733V3.33333C1.33431 2.23333 2.23496 1.33333 3.33577 1.33333H6.34463C6.45137 1.33333 6.56479 1.33333 6.67153 1.34667V4.66667C6.67153 5.76667 7.57219 6.66667 8.67299 6.66667H12.5491C12.756 6.66667 12.9494 6.57333 13.0762 6.40667C13.203 6.24 13.243 6.03333 13.1963 5.83333C12.9895 5.02 12.5692 4.28 11.9754 3.68667L9.65371 1.36667C8.77306 0.486667 7.59887 0 6.3513 0H3.33577C1.49442 0 0 1.49333 0 3.33333V12.6667C0 14.5067 1.49442 16 3.33577 16H10.0073C10.9613 16 11.8753 15.5867 12.5091 14.8733C12.756 14.6 12.7293 14.1733 12.4491 13.9333ZM8.00584 1.77333C8.25936 1.92 8.49286 2.1 8.70635 2.31333L11.028 4.63333C11.2349 4.84 11.415 5.08 11.5618 5.33333H8.66632C8.29938 5.33333 7.99917 5.03333 7.99917 4.66667V1.77333H8.00584ZM15.4313 12.06L14.3571 13.1333C14.2237 13.2667 14.0569 13.3267 13.8835 13.3267C13.71 13.3267 13.5432 13.26 13.4098 13.1333C13.1496 12.8733 13.1496 12.4533 13.4098 12.1933L14.2704 11.3333H9.33347C8.96654 11.3333 8.66632 11.0333 8.66632 10.6667C8.66632 10.3 8.96654 10 9.33347 10H14.2704L13.4098 9.14C13.1496 8.88 13.1496 8.46 13.4098 8.2C13.67 7.94 14.0903 7.94 14.3505 8.2L15.4246 9.27333C16.1918 10.04 16.1918 11.2933 15.4246 12.0667L15.4313 12.06Z" fill="#FFFFFF"/>
</g>
<defs>
<clipPath id="clip0_1283_1097">
<rect width="16" height="16" fill="white"/>
</clipPath>
</defs>
</svg>
