<svg width="18" height="18" viewBox="0 0 18 18" fill="none" xmlns="http://www.w3.org/2000/svg">
<g id="fi_732089" clip-path="url(#clip0_1595_2007)">
<g id="Group">
<g id="Group_2">
<path id="Vector" d="M9.92138 0.691178C9.79313 0.585428 9.62325 0.541553 9.459 0.571928L0.459 2.25943C0.192375 2.30893 0 2.54068 0 2.8118V15.1868C0 15.4568 0.192375 15.6897 0.459 15.7392L9.459 17.4267C9.49275 17.4334 9.52875 17.4368 9.5625 17.4368C9.69188 17.4368 9.82013 17.3918 9.92138 17.3074C10.0508 17.2006 10.125 17.0408 10.125 16.8743V1.1243C10.125 0.956678 10.0508 0.798053 9.92138 0.691178ZM9 16.1959L1.125 14.7199V3.27868L9 1.80268V16.1959Z" fill="#6D6E6F"/>
</g>
</g>
<g id="Group_3">
<g id="Group_4">
<path id="Vector_2" d="M17.4375 2.8125H9.5625C9.252 2.8125 9 3.0645 9 3.375C9 3.6855 9.252 3.9375 9.5625 3.9375H16.875V14.0625H9.5625C9.252 14.0625 9 14.3145 9 14.625C9 14.9355 9.252 15.1875 9.5625 15.1875H17.4375C17.748 15.1875 18 14.9355 18 14.625V3.375C18 3.0645 17.748 2.8125 17.4375 2.8125Z" fill="#6D6E6F"/>
</g>
</g>
<g id="Group_5">
<g id="Group_6">
<path id="Vector_3" d="M11.8125 5.0625H9.5625C9.252 5.0625 9 5.3145 9 5.625C9 5.9355 9.252 6.1875 9.5625 6.1875H11.8125C12.123 6.1875 12.375 5.9355 12.375 5.625C12.375 5.3145 12.123 5.0625 11.8125 5.0625Z" fill="#6D6E6F"/>
</g>
</g>
<g id="Group_7">
<g id="Group_8">
<path id="Vector_4" d="M11.8125 7.3125H9.5625C9.252 7.3125 9 7.5645 9 7.875C9 8.1855 9.252 8.4375 9.5625 8.4375H11.8125C12.123 8.4375 12.375 8.1855 12.375 7.875C12.375 7.5645 12.123 7.3125 11.8125 7.3125Z" fill="#6D6E6F"/>
</g>
</g>
<g id="Group_9">
<g id="Group_10">
<path id="Vector_5" d="M11.8125 9.5625H9.5625C9.252 9.5625 9 9.8145 9 10.125C9 10.4355 9.252 10.6875 9.5625 10.6875H11.8125C12.123 10.6875 12.375 10.4355 12.375 10.125C12.375 9.8145 12.123 9.5625 11.8125 9.5625Z" fill="#6D6E6F"/>
</g>
</g>
<g id="Group_11">
<g id="Group_12">
<path id="Vector_6" d="M11.8125 11.8125H9.5625C9.252 11.8125 9 12.0645 9 12.375C9 12.6855 9.252 12.9375 9.5625 12.9375H11.8125C12.123 12.9375 12.375 12.6855 12.375 12.375C12.375 12.0645 12.123 11.8125 11.8125 11.8125Z" fill="#6D6E6F"/>
</g>
</g>
<g id="Group_13">
<g id="Group_14">
<path id="Vector_7" d="M15.1875 5.0625H14.0625C13.752 5.0625 13.5 5.3145 13.5 5.625C13.5 5.9355 13.752 6.1875 14.0625 6.1875H15.1875C15.498 6.1875 15.75 5.9355 15.75 5.625C15.75 5.3145 15.498 5.0625 15.1875 5.0625Z" fill="#6D6E6F"/>
</g>
</g>
<g id="Group_15">
<g id="Group_16">
<path id="Vector_8" d="M15.1875 7.3125H14.0625C13.752 7.3125 13.5 7.5645 13.5 7.875C13.5 8.1855 13.752 8.4375 14.0625 8.4375H15.1875C15.498 8.4375 15.75 8.1855 15.75 7.875C15.75 7.5645 15.498 7.3125 15.1875 7.3125Z" fill="#6D6E6F"/>
</g>
</g>
<g id="Group_17">
<g id="Group_18">
<path id="Vector_9" d="M15.1875 9.5625H14.0625C13.752 9.5625 13.5 9.8145 13.5 10.125C13.5 10.4355 13.752 10.6875 14.0625 10.6875H15.1875C15.498 10.6875 15.75 10.4355 15.75 10.125C15.75 9.8145 15.498 9.5625 15.1875 9.5625Z" fill="#6D6E6F"/>
</g>
</g>
<g id="Group_19">
<g id="Group_20">
<path id="Vector_10" d="M15.1875 11.8125H14.0625C13.752 11.8125 13.5 12.0645 13.5 12.375C13.5 12.6855 13.752 12.9375 14.0625 12.9375H15.1875C15.498 12.9375 15.75 12.6855 15.75 12.375C15.75 12.0645 15.498 11.8125 15.1875 11.8125Z" fill="#6D6E6F"/>
</g>
</g>
<g id="Group_21">
<g id="Group_22">
<path id="Vector_11" d="M7.73647 10.8801L3.79897 6.3801C3.59197 6.14498 3.23759 6.12248 3.00472 6.32723C2.77072 6.53198 2.74709 6.88748 2.95184 7.12035L6.88934 11.6204C7.00072 11.7475 7.15597 11.8127 7.31234 11.8127C7.44397 11.8127 7.57559 11.7666 7.68359 11.6732C7.91759 11.4685 7.94122 11.1141 7.73647 10.8801Z" fill="#6D6E6F"/>
</g>
</g>
<g id="Group_23">
<g id="Group_24">
<path id="Vector_12" d="M7.65789 5.74418C7.41264 5.55181 7.05939 5.59793 6.86814 5.84206L2.93064 10.9046C2.74052 11.1498 2.78439 11.5042 3.02964 11.6943C3.13314 11.7742 3.25464 11.8124 3.37502 11.8124C3.54152 11.8124 3.70802 11.7382 3.81827 11.5964L7.75577 6.53393C7.94702 6.28756 7.90314 5.93431 7.65789 5.74418Z" fill="#6D6E6F"/>
</g>
</g>
</g>
<defs>
<clipPath id="clip0_1595_2007">
<rect width="18" height="18" fill="white"/>
</clipPath>
</defs>
</svg>
