<svg width="18" height="18" viewBox="0 0 18 18" fill="none" xmlns="http://www.w3.org/2000/svg">
<path id="Vector" d="M8.25 14.625C8.25 15.2475 7.7475 15.75 7.125 15.75C6.5025 15.75 6 15.2475 6 14.625C6 14.0025 6.5025 13.5 7.125 13.5C7.7475 13.5 8.25 14.0025 8.25 14.625ZM10.125 13.5C9.5025 13.5 9 14.0025 9 14.625C9 15.2475 9.5025 15.75 10.125 15.75C10.7475 15.75 11.25 15.2475 11.25 14.625C11.25 14.0025 10.7475 13.5 10.125 13.5ZM18 8.625V10.875C18 11.496 17.496 12 16.875 12H16.125C15.504 12 15 11.496 15 10.875V8.625C15 8.13525 15.3127 7.719 15.75 7.5645V3.375C15.75 2.34075 14.9093 1.5 13.875 1.5H9.375C8.46975 1.5 7.71225 2.145 7.5375 3H10.125C11.9858 3 13.5 4.51425 13.5 6.375V14.625C13.5 16.4858 11.9858 18 10.125 18H3.375C1.51425 18 0 16.4858 0 14.625V6.375C0 4.51425 1.51425 3 3.375 3H6.021C6.2085 1.31475 7.641 0 9.375 0H13.875C15.7358 0 17.25 1.51425 17.25 3.375V7.5645C17.6873 7.719 18 8.13525 18 8.625ZM12 14.625V12.75H1.5V14.625C1.5 15.6593 2.3415 16.5 3.375 16.5H10.125C11.1593 16.5 12 15.6593 12 14.625ZM10.125 4.5H3.375C2.3415 4.5 1.5 5.34075 1.5 6.375V11.25H12V6.375C12 5.34075 11.1593 4.5 10.125 4.5Z" fill="#6D6E6F"/>
</svg>
