<svg width="20" height="20" viewBox="0 0 20 20" fill="none" xmlns="http://www.w3.org/2000/svg">
<path d="M18.2895 8.7375V15.8333C18.2895 18.1308 16.4248 20 14.1327 20H5.8199C3.52783 20 1.66309 18.1308 1.66309 15.8333V4.16667C1.66309 1.86917 3.52783 0 5.8199 0H9.5735C11.1282 0 12.5897 0.6075 13.6888 1.70917L16.5852 4.6125C17.6843 5.71417 18.2895 7.17917 18.2895 8.7375ZM12.5124 2.88667C12.248 2.62167 11.9545 2.3975 11.6386 2.215V5.8325C11.6386 6.2925 12.0111 6.66583 12.47 6.66583H16.0789C15.8977 6.34917 15.6732 6.055 15.4088 5.79L12.5124 2.88667ZM16.6268 8.7375C16.6268 8.60167 16.6201 8.46667 16.6077 8.33333H12.47C11.0949 8.33333 9.97588 7.21167 9.97588 5.83333V1.68583C9.84287 1.67333 9.70818 1.66667 9.57267 1.66667H5.81907C4.44399 1.66667 3.32498 2.78833 3.32498 4.16667V15.8333C3.32498 17.2117 4.44399 18.3333 5.81907 18.3333H14.1327C15.5078 18.3333 16.6268 17.2117 16.6268 15.8333V8.7375Z" fill="#6D6E6F"/>
<path d="M8.67236 15H7.4043L6.64209 13.7388C6.58512 13.6431 6.53044 13.5576 6.47803 13.4824C6.42562 13.4072 6.37207 13.3434 6.31738 13.291C6.26497 13.2363 6.20915 13.1953 6.1499 13.168C6.09294 13.1383 6.03027 13.1235 5.96191 13.1235H5.66455V15H4.56055V10.0986H6.31055C7.5 10.0986 8.09473 10.543 8.09473 11.4316C8.09473 11.6025 8.06852 11.7609 8.01611 11.9067C7.9637 12.0503 7.88965 12.1802 7.79395 12.2964C7.69824 12.4126 7.58203 12.5129 7.44531 12.5972C7.31087 12.6815 7.16048 12.7476 6.99414 12.7954V12.8091C7.06706 12.8319 7.1377 12.8695 7.20605 12.9219C7.27441 12.972 7.34049 13.0312 7.4043 13.0996C7.4681 13.168 7.52848 13.242 7.58545 13.3218C7.64469 13.3993 7.69824 13.4756 7.74609 13.5508L8.67236 15ZM5.66455 10.9258V12.2896H6.14307C6.38005 12.2896 6.57031 12.2212 6.71387 12.0845C6.8597 11.9455 6.93262 11.7734 6.93262 11.5684C6.93262 11.14 6.67627 10.9258 6.16357 10.9258H5.66455ZM12.0121 10.9976H10.6142V15H9.50676V10.9976H8.11564V10.0986H12.0121V10.9976ZM15.0853 10.9976H13.3558V12.2007H14.9452V13.0962H13.3558V15H12.2518V10.0986H15.0853V10.9976Z" fill="#6D6E6F"/>
</svg>
