<svg width="20" height="20" viewBox="0 0 20 20" fill="none" xmlns="http://www.w3.org/2000/svg">
<path d="M18.2895 8.7375V15.8333C18.2895 18.1308 16.4248 20 14.1327 20H5.8199C3.52783 20 1.66309 18.1308 1.66309 15.8333V4.16667C1.66309 1.86917 3.52783 0 5.8199 0H9.5735C11.1282 0 12.5897 0.6075 13.6888 1.70917L16.5852 4.6125C17.6843 5.71417 18.2895 7.17917 18.2895 8.7375ZM12.5124 2.88667C12.248 2.62167 11.9545 2.3975 11.6386 2.215V5.8325C11.6386 6.2925 12.0111 6.66583 12.47 6.66583H16.0789C15.8977 6.34917 15.6732 6.055 15.4088 5.79L12.5124 2.88667ZM16.6268 8.7375C16.6268 8.60167 16.6201 8.46667 16.6077 8.33333H12.47C11.0949 8.33333 9.97588 7.21167 9.97588 5.83333V1.68583C9.84287 1.67333 9.70818 1.66667 9.57267 1.66667H5.81907C4.44399 1.66667 3.32498 2.78833 3.32498 4.16667V15.8333C3.32498 17.2117 4.44399 18.3333 5.81907 18.3333H14.1327C15.5078 18.3333 16.6268 17.2117 16.6268 15.8333V8.7375Z" fill="#6D6E6F"/>
<path d="M4.28125 14.4766V10.2754H5.81055C6.2793 10.2754 6.63965 10.3613 6.8916 10.5332C7.14355 10.7051 7.26953 10.9473 7.26953 11.2598C7.26953 11.4863 7.19238 11.6846 7.03809 11.8545C6.88574 12.0244 6.69043 12.1426 6.45215 12.209V12.2207C6.75098 12.2578 6.98926 12.3682 7.16699 12.5518C7.34668 12.7354 7.43652 12.959 7.43652 13.2227C7.43652 13.6074 7.29883 13.9131 7.02344 14.1396C6.74805 14.3643 6.37207 14.4766 5.89551 14.4766H4.28125ZM5.22754 10.9727V11.9688H5.64355C5.83887 11.9688 5.99219 11.9219 6.10352 11.8281C6.2168 11.7324 6.27344 11.6016 6.27344 11.4355C6.27344 11.127 6.04297 10.9727 5.58203 10.9727H5.22754ZM5.22754 12.6719V13.7793H5.74023C5.95898 13.7793 6.12988 13.7285 6.25293 13.627C6.37793 13.5254 6.44043 13.3867 6.44043 13.2109C6.44043 13.043 6.37891 12.9111 6.25586 12.8154C6.13477 12.7197 5.96484 12.6719 5.74609 12.6719H5.22754ZM12.558 14.4766H11.6234V11.9629C11.6234 11.6914 11.6351 11.3916 11.6586 11.0635H11.6351C11.5863 11.3213 11.5423 11.5068 11.5033 11.6201L10.5189 14.4766H9.74547L8.74352 11.6494C8.71617 11.5732 8.67223 11.3779 8.61168 11.0635H8.58531C8.6107 11.4775 8.6234 11.8408 8.6234 12.1533V14.4766H7.77086V10.2754H9.1566L10.015 12.7656C10.0834 12.9648 10.1332 13.165 10.1644 13.3662H10.182C10.2347 13.1338 10.2904 12.9316 10.349 12.7598L11.2074 10.2754H12.558V14.4766ZM14.0993 13.0293V14.4766H13.153V10.2754H14.6355C15.6941 10.2754 16.2234 10.7217 16.2234 11.6143C16.2234 12.0361 16.071 12.3779 15.7663 12.6396C15.4636 12.8994 15.0583 13.0293 14.5505 13.0293H14.0993ZM14.0993 11.002V12.3115H14.4714C14.9753 12.3115 15.2273 12.0908 15.2273 11.6494C15.2273 11.2178 14.9753 11.002 14.4714 11.002H14.0993Z" fill="#6D6E6F"/>
</svg>
