<svg width="18" height="20" viewBox="0 0 18 20" fill="none" xmlns="http://www.w3.org/2000/svg">
<path d="M17.2895 8.7375V15.8333C17.2895 18.1308 15.4248 20 13.1327 20H4.8199C2.52783 20 0.663086 18.1308 0.663086 15.8333V4.16667C0.663086 1.86917 2.52783 0 4.8199 0H8.5735C10.1282 0 11.5897 0.6075 12.6888 1.70917L15.5852 4.6125C16.6843 5.71417 17.2895 7.17917 17.2895 8.7375ZM11.5124 2.88667C11.248 2.62167 10.9545 2.3975 10.6386 2.215V5.8325C10.6386 6.2925 11.0111 6.66583 11.47 6.66583H15.0789C14.8977 6.34917 14.6732 6.055 14.4088 5.79L11.5124 2.88667ZM15.6268 8.7375C15.6268 8.60167 15.6201 8.46667 15.6077 8.33333H11.47C10.0949 8.33333 8.97588 7.21167 8.97588 5.83333V1.68583C8.84287 1.67333 8.70818 1.66667 8.57267 1.66667H4.81907C3.44399 1.66667 2.32498 2.78833 2.32498 4.16667V15.8333C2.32498 17.2117 3.44399 18.3333 4.81907 18.3333H13.1327C14.5078 18.3333 15.6268 17.2117 15.6268 15.8333V8.7375Z" fill="#6D6E6F"/>
<path d="M3.33496 14.812V13.7183C3.5332 13.8846 3.74854 14.0099 3.98096 14.0942C4.21338 14.1763 4.44808 14.2173 4.68506 14.2173C4.82406 14.2173 4.94482 14.2048 5.04736 14.1797C5.15218 14.1546 5.23877 14.1204 5.30713 14.0771C5.37777 14.0316 5.43018 13.9792 5.46436 13.9199C5.49854 13.8584 5.51562 13.7923 5.51562 13.7217C5.51562 13.626 5.48828 13.5405 5.43359 13.4653C5.37891 13.3901 5.30371 13.3206 5.20801 13.2568C5.11458 13.193 5.00293 13.1315 4.87305 13.0723C4.74316 13.013 4.60303 12.9526 4.45264 12.8911C4.06982 12.7316 3.78385 12.5368 3.59473 12.3066C3.40788 12.0765 3.31445 11.7985 3.31445 11.4727C3.31445 11.2174 3.36572 10.9987 3.46826 10.8164C3.5708 10.6318 3.7098 10.4803 3.88525 10.3618C4.06299 10.2433 4.26807 10.1567 4.50049 10.1021C4.73291 10.0451 4.979 10.0166 5.23877 10.0166C5.49398 10.0166 5.71956 10.0326 5.91553 10.0645C6.11377 10.0941 6.29606 10.1408 6.4624 10.2046V11.2266C6.38037 11.1696 6.29036 11.1195 6.19238 11.0762C6.09668 11.0329 5.99756 10.9976 5.89502 10.9702C5.79248 10.9406 5.68994 10.9189 5.5874 10.9053C5.48714 10.8916 5.39144 10.8848 5.30029 10.8848C5.17497 10.8848 5.06104 10.8973 4.9585 10.9224C4.85596 10.9451 4.76937 10.9782 4.69873 11.0215C4.62809 11.0648 4.5734 11.1172 4.53467 11.1787C4.49593 11.238 4.47656 11.3052 4.47656 11.3804C4.47656 11.4624 4.49821 11.5365 4.5415 11.6025C4.5848 11.6663 4.64632 11.7279 4.72607 11.7871C4.80583 11.8441 4.90267 11.901 5.0166 11.958C5.13053 12.0127 5.25928 12.0697 5.40283 12.1289C5.5988 12.2109 5.77425 12.2987 5.9292 12.3921C6.08643 12.4832 6.22087 12.5869 6.33252 12.7031C6.44417 12.8193 6.52962 12.9526 6.58887 13.103C6.64811 13.2511 6.67773 13.4243 6.67773 13.6226C6.67773 13.896 6.62533 14.1261 6.52051 14.313C6.41797 14.4976 6.27783 14.6479 6.1001 14.7642C5.92236 14.8781 5.71501 14.9601 5.47803 15.0103C5.24333 15.0604 4.99495 15.0854 4.73291 15.0854C4.46403 15.0854 4.20768 15.0627 3.96387 15.0171C3.72233 14.9715 3.5127 14.9032 3.33496 14.812ZM9.13566 15.0854C8.43384 15.0854 7.8619 14.8576 7.41984 14.4019C6.97779 13.9416 6.75676 13.3457 6.75676 12.6143C6.75676 11.8418 6.9812 11.2152 7.4301 10.7344C7.87671 10.2559 8.47144 10.0166 9.21428 10.0166C9.91382 10.0166 10.4789 10.2456 10.9096 10.7036C11.3425 11.1593 11.559 11.7632 11.559 12.5151C11.559 13.283 11.3346 13.904 10.8857 14.3779C10.8697 14.3939 10.8549 14.4098 10.8412 14.4258C10.8276 14.4395 10.8127 14.4531 10.7968 14.4668L12.0375 15.6597H10.4926L9.84318 15C9.62899 15.057 9.39315 15.0854 9.13566 15.0854ZM9.18352 10.9668C8.79842 10.9668 8.49081 11.1126 8.26066 11.4043C8.0328 11.6937 7.91887 12.0776 7.91887 12.5562C7.91887 13.0415 8.0328 13.4255 8.26066 13.708C8.48853 13.9906 8.78703 14.1318 9.15617 14.1318C9.53671 14.1318 9.83863 13.9951 10.0619 13.7217C10.2852 13.4437 10.3969 13.062 10.3969 12.5767C10.3969 12.0708 10.2887 11.6755 10.0722 11.3906C9.85799 11.1081 9.56177 10.9668 9.18352 10.9668ZM14.8748 15H11.9559V10.0986H13.0599V14.1045H14.8748V15Z" fill="#6D6E6F"/>
</svg>
