<svg width="20" height="20" viewBox="0 0 20 20" fill="none" xmlns="http://www.w3.org/2000/svg">
<path d="M18.2895 8.7375V15.8333C18.2895 18.1308 16.4248 20 14.1327 20H5.8199C3.52783 20 1.66309 18.1308 1.66309 15.8333V4.16667C1.66309 1.86917 3.52783 0 5.8199 0H9.5735C11.1282 0 12.5897 0.6075 13.6888 1.70917L16.5852 4.6125C17.6843 5.71417 18.2895 7.17917 18.2895 8.7375ZM12.5124 2.88667C12.248 2.62167 11.9545 2.3975 11.6386 2.215V5.8325C11.6386 6.2925 12.0111 6.66583 12.47 6.66583H16.0789C15.8977 6.34917 15.6732 6.055 15.4088 5.79L12.5124 2.88667ZM16.6268 8.7375C16.6268 8.60167 16.6201 8.46667 16.6077 8.33333H12.47C11.0949 8.33333 9.97588 7.21167 9.97588 5.83333V1.68583C9.84287 1.67333 9.70818 1.66667 9.57267 1.66667H5.81907C4.44399 1.66667 3.32498 2.78833 3.32498 4.16667V15.8333C3.32498 17.2117 4.44399 18.3333 5.81907 18.3333H14.1327C15.5078 18.3333 16.6268 17.2117 16.6268 15.8333V8.7375Z" fill="#6D6E6F"/>
<path d="M6.0332 12.8096C6.0332 13.3721 5.90234 13.8027 5.64062 14.1016C5.38086 14.4004 5.00391 14.5498 4.50977 14.5498C4.28906 14.5498 4.08496 14.5117 3.89746 14.4355V13.5479C4.05957 13.6709 4.24121 13.7324 4.44238 13.7324C4.87402 13.7324 5.08984 13.4121 5.08984 12.7715V10.2754H6.0332V12.8096ZM7.53941 13.0293V14.4766H6.59312V10.2754H8.07555C9.13414 10.2754 9.66344 10.7217 9.66344 11.6143C9.66344 12.0361 9.51109 12.3779 9.20641 12.6396C8.90367 12.8994 8.4984 13.0293 7.99059 13.0293H7.53941ZM7.53941 11.002V12.3115H7.91148C8.41539 12.3115 8.66734 12.0908 8.66734 11.6494C8.66734 11.2178 8.41539 11.002 7.91148 11.002H7.53941ZM12.4382 14.4766H9.91867V10.2754H12.3415V11.0459H10.865V11.9805H12.239V12.748H10.865V13.709H12.4382V14.4766ZM16.2003 14.1953C15.7901 14.4316 15.2804 14.5498 14.671 14.5498C13.9952 14.5498 13.462 14.3633 13.0714 13.9902C12.6827 13.6152 12.4884 13.0996 12.4884 12.4434C12.4884 11.7832 12.7013 11.2451 13.127 10.8291C13.5528 10.4131 14.1192 10.2051 14.8263 10.2051C15.2716 10.2051 15.6641 10.2666 16.004 10.3896V11.2773C15.6798 11.0898 15.2833 10.9961 14.8145 10.9961C14.422 10.9961 14.1016 11.124 13.8536 11.3799C13.6075 11.6338 13.4845 11.9736 13.4845 12.3994C13.4845 12.8311 13.5948 13.165 13.8155 13.4014C14.0382 13.6377 14.338 13.7559 14.7149 13.7559C14.9415 13.7559 15.1212 13.7236 15.254 13.6592V12.8389H14.4132V12.083H16.2003V14.1953Z" fill="#6D6E6F"/>
</svg>
