<svg width="21" height="20" viewBox="0 0 21 20" fill="none" xmlns="http://www.w3.org/2000/svg">
<path d="M18.3759 8.7375V15.8333C18.3759 18.1308 16.5023 20 14.1993 20H5.847C3.54403 20 1.67041 18.1308 1.67041 15.8333V4.16667C1.67041 1.86917 3.54403 0 5.847 0H9.61846C11.1805 0 12.649 0.6075 13.7533 1.70917L16.6635 4.6125C17.7678 5.71417 18.3759 7.17917 18.3759 8.7375ZM12.5713 2.88667C12.3057 2.62167 12.0108 2.3975 11.6934 2.215V5.8325C11.6934 6.2925 12.0676 6.66583 12.5287 6.66583H16.1548C15.9727 6.34917 15.7472 6.055 15.4816 5.79L12.5713 2.88667ZM16.7053 8.7375C16.7053 8.60167 16.6986 8.46667 16.6861 8.33333H12.5287C11.1471 8.33333 10.0228 7.21167 10.0228 5.83333V1.68583C9.8891 1.67333 9.75378 1.66667 9.61763 1.66667H5.84616C4.46455 1.66667 3.34021 2.78833 3.34021 4.16667V15.8333C3.34021 17.2117 4.46455 18.3333 5.84616 18.3333H14.1993C15.581 18.3333 16.7053 17.2117 16.7053 15.8333V8.7375Z" fill="#6D6E6F"/>
</svg>
