<svg width="20" height="20" viewBox="0 0 20 20" fill="none" xmlns="http://www.w3.org/2000/svg">
<g clip-path="url(#clip0_3604_1346)">
<path d="M16.6253 4.61667L13.7253 1.70833C12.6253 0.608333 11.1587 0 9.60033 0H5.83366C3.53366 0 1.66699 1.86667 1.66699 4.16667V15.8333C1.66699 18.1333 3.53366 20 5.83366 20H14.167C16.467 20 18.3337 18.1333 18.3337 15.8333V8.74167C18.3337 7.18333 17.7253 5.71667 16.6253 4.61667ZM15.4503 5.79167C15.717 6.05833 15.942 6.35 16.1253 6.66667H12.5087C12.0503 6.66667 11.6753 6.29167 11.6753 5.83333V2.21667C11.992 2.4 12.2837 2.625 12.5503 2.89167L15.4503 5.8V5.79167ZM16.667 15.8333C16.667 17.2083 15.542 18.3333 14.167 18.3333H5.83366C4.45866 18.3333 3.33366 17.2083 3.33366 15.8333V4.16667C3.33366 2.79167 4.45866 1.66667 5.83366 1.66667H9.59199C9.72533 1.66667 9.86699 1.66667 10.0003 1.68333V5.83333C10.0003 7.20833 11.1253 8.33333 12.5003 8.33333H16.6503C16.667 8.46667 16.667 8.6 16.667 8.74167V15.8333ZM13.9337 11.0333L12.7503 15.75C12.6253 16.2583 12.1837 16.625 11.6587 16.6583C11.1337 16.6917 10.6503 16.3917 10.4587 15.9L10.0003 14.75L9.54199 15.9C9.35866 16.3667 8.91699 16.6583 8.42533 16.6583C8.40033 16.6583 8.36699 16.6583 8.34199 16.6583C7.81699 16.625 7.38366 16.2583 7.25033 15.7417L6.07533 11.025C5.96699 10.575 6.23366 10.125 6.68366 10.0167C7.12533 9.90833 7.58366 10.175 7.69199 10.625L8.52533 13.9583L9.23366 12.1833C9.35866 11.8667 9.66699 11.6583 10.0087 11.6583C10.3503 11.6583 10.6587 11.8667 10.7837 12.1833L11.4837 13.9583L12.3253 10.625C12.4337 10.175 12.892 9.90833 13.3337 10.0167C13.7837 10.125 14.0503 10.5833 13.942 11.025L13.9337 11.0333Z" fill="#6D6E6F"/>
</g>
<defs>
<clipPath id="clip0_3604_1346">
<rect width="20" height="20" fill="white"/>
</clipPath>
</defs>
</svg>
