<svg width="18" height="20" viewBox="0 0 18 20" fill="none" xmlns="http://www.w3.org/2000/svg">
<path d="M17.3328 8.7375V15.8333C17.3328 18.1308 15.4637 20 13.1662 20H4.83366C2.53616 20 0.666992 18.1308 0.666992 15.8333V4.16667C0.666992 1.86917 2.53616 0 4.83366 0H8.59616C10.1545 0 11.6195 0.6075 12.7212 1.70917L15.6245 4.6125C16.7262 5.71417 17.3328 7.17917 17.3328 8.7375ZM11.542 2.88667C11.277 2.62167 10.9828 2.3975 10.6662 2.215V5.8325C10.6662 6.2925 11.0395 6.66583 11.4995 6.66583H15.117C14.9353 6.34917 14.7103 6.055 14.4453 5.79L11.542 2.88667ZM15.6662 8.7375C15.6662 8.60167 15.6595 8.46667 15.647 8.33333H11.4995C10.1212 8.33333 8.99949 7.21167 8.99949 5.83333V1.68583C8.86616 1.67333 8.73116 1.66667 8.59533 1.66667H4.83283C3.45449 1.66667 2.33283 2.78833 2.33283 4.16667V15.8333C2.33283 17.2117 3.45449 18.3333 4.83283 18.3333H13.1662C14.5445 18.3333 15.6662 17.2117 15.6662 15.8333V8.7375Z" fill="#6D6E6F"/>
<path d="M11.7178 11.2822H9.7207V17H8.13867V11.2822H6.15137V9.99805H11.7178V11.2822Z" fill="#6D6E6F"/>
</svg>
