<svg width="21" height="20" viewBox="0 0 21 20" fill="none" xmlns="http://www.w3.org/2000/svg">
<path d="M18.3764 8.7375V15.8333C18.3764 18.1308 16.5028 20 14.1998 20H5.84749C3.54452 20 1.6709 18.1308 1.6709 15.8333V4.16667C1.6709 1.86917 3.54452 0 5.84749 0H9.61895C11.181 0 12.6495 0.6075 13.7538 1.70917L16.664 4.6125C17.7683 5.71417 18.3764 7.17917 18.3764 8.7375ZM12.5718 2.88667C12.3062 2.62167 12.0113 2.3975 11.6939 2.215V5.8325C11.6939 6.2925 12.0681 6.66583 12.5292 6.66583H16.1553C15.9732 6.34917 15.7477 6.055 15.482 5.79L12.5718 2.88667ZM16.7058 8.7375C16.7058 8.60167 16.6991 8.46667 16.6866 8.33333H12.5292C11.1476 8.33333 10.0232 7.21167 10.0232 5.83333V1.68583C9.88959 1.67333 9.75427 1.66667 9.61811 1.66667H5.84665C4.46504 1.66667 3.3407 2.78833 3.3407 4.16667V15.8333C3.3407 17.2117 4.46504 18.3333 5.84665 18.3333H14.1998C15.5814 18.3333 16.7058 17.2117 16.7058 15.8333V8.7375Z" fill="#6D6E6F"/>
<path d="M6.04639 12.4719C6.04639 12.9875 5.92643 13.3823 5.68652 13.6562C5.4484 13.9302 5.10286 14.0671 4.6499 14.0671C4.44759 14.0671 4.2605 14.0322 4.08862 13.9624V13.1487C4.23722 13.2615 4.40373 13.3179 4.58813 13.3179C4.98381 13.3179 5.18164 13.0243 5.18164 12.437V10.1489H6.04639V12.4719ZM6.2174 13.8523V12.9929C6.37316 13.1236 6.54235 13.2221 6.72497 13.2883C6.90759 13.3528 7.092 13.385 7.27819 13.385C7.38741 13.385 7.48229 13.3752 7.56286 13.3555C7.64522 13.3358 7.71325 13.3089 7.76696 13.2749C7.82246 13.2391 7.86364 13.1979 7.8905 13.1514C7.91735 13.103 7.93078 13.0511 7.93078 12.9956C7.93078 12.9204 7.9093 12.8533 7.86633 12.7942C7.82336 12.7351 7.76428 12.6805 7.68908 12.6304C7.61568 12.5802 7.52795 12.5319 7.4259 12.4854C7.32385 12.4388 7.21374 12.3914 7.09558 12.343C6.79479 12.2177 6.5701 12.0646 6.4215 11.8838C6.27469 11.703 6.20129 11.4845 6.20129 11.2285C6.20129 11.028 6.24157 10.8561 6.32214 10.7129C6.40271 10.5679 6.51192 10.4488 6.64978 10.3557C6.78942 10.2626 6.95056 10.1946 7.13317 10.1516C7.31579 10.1069 7.50915 10.0845 7.71325 10.0845C7.91377 10.0845 8.09102 10.097 8.24499 10.1221C8.40075 10.1453 8.54398 10.182 8.67468 10.2322V11.0352C8.61022 10.9904 8.53951 10.951 8.46252 10.917C8.38732 10.883 8.30944 10.8552 8.22888 10.8337C8.14831 10.8105 8.06774 10.7935 7.98718 10.7827C7.9084 10.772 7.83321 10.7666 7.76159 10.7666C7.66312 10.7666 7.5736 10.7764 7.49304 10.7961C7.41247 10.814 7.34444 10.84 7.28894 10.874C7.23343 10.908 7.19047 10.9492 7.16003 10.9976C7.12959 11.0441 7.11437 11.0969 7.11437 11.156C7.11437 11.2205 7.13138 11.2786 7.1654 11.3306C7.19942 11.3807 7.24776 11.429 7.31042 11.4756C7.37308 11.5203 7.44917 11.5651 7.53869 11.6099C7.62821 11.6528 7.72937 11.6976 7.84216 11.7441C7.99613 11.8086 8.13399 11.8775 8.25573 11.9509C8.37927 12.0225 8.4849 12.104 8.57263 12.1953C8.66035 12.2866 8.72749 12.3914 8.77404 12.5095C8.82059 12.6259 8.84387 12.762 8.84387 12.9177C8.84387 13.1326 8.80269 13.3134 8.72033 13.4602C8.63977 13.6052 8.52966 13.7234 8.39001 13.8147C8.25036 13.9042 8.08744 13.9687 7.90124 14.0081C7.71683 14.0474 7.52168 14.0671 7.31579 14.0671C7.10453 14.0671 6.90311 14.0492 6.71154 14.0134C6.52176 13.9776 6.35705 13.9239 6.2174 13.8523ZM10.6101 14.0671C10.0587 14.0671 9.60928 13.8881 9.26195 13.53C8.91462 13.1702 8.74096 12.702 8.74096 12.1255C8.74096 11.5168 8.91731 11.0244 9.27001 10.6484C9.62271 10.2725 10.09 10.0845 10.6719 10.0845C11.2215 10.0845 11.6655 10.2644 12.0039 10.6243C12.3441 10.9841 12.5142 11.4586 12.5142 12.0476C12.5142 12.6528 12.3378 13.1406 11.9851 13.5112C11.6342 13.8818 11.1759 14.0671 10.6101 14.0671ZM10.6477 10.8311C10.3433 10.8311 10.1016 10.9456 9.9226 11.1748C9.74356 11.4022 9.65404 11.7039 9.65404 12.0798C9.65404 12.4612 9.74356 12.7629 9.9226 12.9849C10.1016 13.2069 10.3362 13.3179 10.6262 13.3179C10.9252 13.3179 11.1624 13.2104 11.3379 12.9956C11.5133 12.779 11.6011 12.4791 11.6011 12.0959C11.6011 11.6967 11.516 11.3861 11.3459 11.1641C11.1759 10.9421 10.9431 10.8311 10.6477 10.8311ZM16.1254 14H15.2499L13.6627 11.5803C13.5696 11.4389 13.5052 11.3324 13.4693 11.2607H13.4586C13.4729 11.3968 13.4801 11.6045 13.4801 11.8838V14H12.661V10.1489H13.5956L15.1236 12.4934C15.1935 12.599 15.2579 12.7038 15.317 12.8076H15.3277C15.3134 12.7181 15.3063 12.5417 15.3063 12.2786V10.1489H16.1254V14Z" fill="#6D6E6F"/>
</svg>
