<svg width="20" height="20" viewBox="0 0 20 20" fill="none" xmlns="http://www.w3.org/2000/svg">
<g clip-path="url(#clip0_3604_1331)">
<path d="M12.7253 11.3667L11.0837 13.3333L12.7253 15.3C13.017 15.65 12.9753 16.175 12.617 16.475C12.4587 16.6083 12.2753 16.6667 12.0837 16.6667C11.842 16.6667 11.6087 16.5667 11.442 16.3667L10.0003 14.6333L8.55866 16.3667C8.39199 16.5667 8.15866 16.6667 7.91699 16.6667C7.72533 16.6667 7.54199 16.6 7.38366 16.475C7.03366 16.1833 6.98366 15.6583 7.27533 15.3L8.91699 13.3333L7.27533 11.3667C6.98366 11.0167 7.02533 10.4917 7.38366 10.1917C7.74199 9.9 8.25866 9.94167 8.55866 10.3L10.0003 12.0333L11.442 10.3C11.7337 9.95 12.2587 9.9 12.617 10.1917C12.967 10.4833 13.017 11.0083 12.7253 11.3667ZM18.3337 8.74167V15.8333C18.3337 18.1333 16.467 20 14.167 20H5.83366C3.53366 20 1.66699 18.1333 1.66699 15.8333V4.16667C1.66699 1.86667 3.53366 0 5.83366 0H9.59199C11.1503 0 12.617 0.608333 13.717 1.70833L16.617 4.61667C17.717 5.71667 18.3253 7.18333 18.3253 8.74167H18.3337ZM12.542 2.88333C12.2753 2.61667 11.9837 2.39167 11.667 2.20833V5.83333C11.667 6.29167 12.042 6.66667 12.5003 6.66667H16.117C15.9337 6.35 15.7087 6.05833 15.442 5.79167L12.542 2.88333ZM16.667 8.73333C16.667 8.6 16.667 8.45833 16.6503 8.325H12.5003C11.1253 8.325 10.0003 7.2 10.0003 5.825V1.68333C9.86699 1.66667 9.73366 1.66667 9.59199 1.66667H5.83366C4.45866 1.66667 3.33366 2.79167 3.33366 4.16667V15.8333C3.33366 17.2083 4.45866 18.3333 5.83366 18.3333H14.167C15.542 18.3333 16.667 17.2083 16.667 15.8333V8.74167V8.73333Z" fill="#6D6E6F"/>
</g>
<defs>
<clipPath id="clip0_3604_1331">
<rect width="20" height="20" fill="white"/>
</clipPath>
</defs>
</svg>
