<svg width="21" height="21" viewBox="0 0 21 21" fill="none" xmlns="http://www.w3.org/2000/svg">
<path d="M19.2491 9.17437V16.625C19.2491 19.0374 17.2865 21 14.8741 21H6.125C3.71263 21 1.75 19.0374 1.75 16.625V4.375C1.75 1.96262 3.71263 0 6.125 0H10.0756C11.7119 0 13.2501 0.637875 14.4069 1.79463L17.4554 4.84312C18.6121 5.99987 19.2491 7.53812 19.2491 9.17437ZM13.1688 3.031C12.8905 2.75275 12.5816 2.51737 12.2491 2.32575V6.12412C12.2491 6.60712 12.6411 6.99913 13.1241 6.99913H16.9225C16.7318 6.66663 16.4955 6.35775 16.2173 6.0795L13.1688 3.031ZM17.4991 9.17437C17.4991 9.03175 17.4921 8.89 17.479 8.75H13.1241C11.6769 8.75 10.4991 7.57225 10.4991 6.125V1.77012C10.3591 1.757 10.2174 1.75 10.0748 1.75H6.12413C4.67688 1.75 3.49913 2.92775 3.49913 4.375V16.625C3.49913 18.0722 4.67688 19.25 6.12413 19.25H14.8741C16.3214 19.25 17.4991 18.0722 17.4991 16.625V9.17437Z" fill="#6D6E6F"/>
<path d="M6.57 15.6228C6.282 15.6228 6.036 15.5628 5.832 15.4428C5.632 15.3228 5.466 15.1308 5.334 14.8668L5.982 14.4228C6.03 14.5188 6.098 14.5948 6.186 14.6508C6.274 14.7068 6.366 14.7348 6.462 14.7348C6.618 14.7348 6.734 14.6888 6.81 14.5968C6.89 14.5048 6.93 14.3308 6.93 14.0748V11.6508H7.962V14.1588C7.962 14.4268 7.912 14.6728 7.812 14.8968C7.712 15.1168 7.558 15.2928 7.35 15.4248C7.146 15.5568 6.886 15.6228 6.57 15.6228ZM8.73919 15.5508V11.6508H10.1672C10.4512 11.6508 10.7132 11.6908 10.9532 11.7708C11.1932 11.8508 11.3852 11.9848 11.5292 12.1728C11.6772 12.3608 11.7512 12.6188 11.7512 12.9468C11.7512 13.2628 11.6772 13.5228 11.5292 13.7268C11.3852 13.9268 11.1932 14.0748 10.9532 14.1708C10.7172 14.2668 10.4632 14.3148 10.1912 14.3148H9.77119V15.5508H8.73919ZM9.77119 13.4988H10.1432C10.3472 13.4988 10.4972 13.4508 10.5932 13.3548C10.6932 13.2548 10.7432 13.1188 10.7432 12.9468C10.7432 12.7708 10.6892 12.6468 10.5812 12.5748C10.4732 12.5028 10.3192 12.4668 10.1192 12.4668H9.77119V13.4988ZM14.1296 15.6228C13.7656 15.6228 13.4336 15.5508 13.1336 15.4068C12.8376 15.2588 12.6016 15.0368 12.4256 14.7408C12.2496 14.4448 12.1616 14.0748 12.1616 13.6308C12.1616 13.3028 12.2136 13.0128 12.3176 12.7608C12.4216 12.5048 12.5636 12.2888 12.7436 12.1128C12.9236 11.9368 13.1296 11.8048 13.3616 11.7168C13.5976 11.6248 13.8456 11.5788 14.1056 11.5788C14.3936 11.5788 14.6436 11.6288 14.8556 11.7288C15.0676 11.8288 15.2416 11.9508 15.3776 12.0948L14.8376 12.7188C14.7416 12.6348 14.6396 12.5728 14.5316 12.5328C14.4276 12.4888 14.2976 12.4668 14.1416 12.4668C13.9656 12.4668 13.8076 12.5128 13.6676 12.6048C13.5276 12.6928 13.4176 12.8208 13.3376 12.9888C13.2576 13.1568 13.2176 13.3588 13.2176 13.5948C13.2176 13.8388 13.2536 14.0468 13.3256 14.2188C13.4016 14.3868 13.5136 14.5148 13.6616 14.6028C13.8136 14.6908 14.0056 14.7348 14.2376 14.7348C14.2936 14.7348 14.3476 14.7288 14.3996 14.7168C14.4556 14.7048 14.5016 14.6868 14.5376 14.6628V14.1228H13.9616V13.2828H15.4496V15.1428C15.3136 15.2748 15.1276 15.3888 14.8916 15.4848C14.6596 15.5768 14.4056 15.6228 14.1296 15.6228Z" fill="#6D6E6F"/>
</svg>
