<svg width="21" height="21" viewBox="0 0 21 21" fill="none" xmlns="http://www.w3.org/2000/svg">
<path d="M19.2491 9.17437V16.625C19.2491 19.0374 17.2865 21 14.8741 21H6.125C3.71263 21 1.75 19.0374 1.75 16.625V4.375C1.75 1.96262 3.71263 0 6.125 0H10.0756C11.7119 0 13.2501 0.637875 14.4069 1.79463L17.4554 4.84312C18.6121 5.99987 19.2491 7.53812 19.2491 9.17437ZM13.1688 3.031C12.8905 2.75275 12.5816 2.51737 12.2491 2.32575V6.12412C12.2491 6.60712 12.6411 6.99913 13.1241 6.99913H16.9225C16.7318 6.66663 16.4955 6.35775 16.2173 6.0795L13.1688 3.031ZM17.4991 9.17437C17.4991 9.03175 17.4921 8.89 17.479 8.75H13.1241C11.6769 8.75 10.4991 7.57225 10.4991 6.125V1.77012C10.3591 1.757 10.2174 1.75 10.0748 1.75H6.12413C4.67688 1.75 3.49913 2.92775 3.49913 4.375V16.625C3.49913 18.0722 4.67688 19.25 6.12413 19.25H14.8741C16.3214 19.25 17.4991 18.0722 17.4991 16.625V9.17437Z" fill="#6D6E6F"/>
<path d="M5.42676 13.5527V15H4.48047V10.7988H5.96289C7.02148 10.7988 7.55078 11.2451 7.55078 12.1377C7.55078 12.5596 7.39844 12.9014 7.09375 13.1631C6.79102 13.4229 6.38574 13.5527 5.87793 13.5527H5.42676ZM5.42676 11.5254V12.835H5.79883C6.30273 12.835 6.55469 12.6143 6.55469 12.1729C6.55469 11.7412 6.30273 11.5254 5.79883 11.5254H5.42676ZM11.7053 15H10.7502L9.01879 12.3604C8.91723 12.2061 8.84691 12.0898 8.80785 12.0117H8.79613C8.81176 12.1602 8.81957 12.3867 8.81957 12.6914V15H7.92602V10.7988H8.94555L10.6125 13.3564C10.6887 13.4717 10.759 13.5859 10.8235 13.6992H10.8352C10.8196 13.6016 10.8118 13.4092 10.8118 13.1221V10.7988H11.7053V15ZM15.8745 14.7188C15.4643 14.9551 14.9546 15.0732 14.3452 15.0732C13.6694 15.0732 13.1362 14.8867 12.7456 14.5137C12.3569 14.1387 12.1626 13.623 12.1626 12.9668C12.1626 12.3066 12.3755 11.7686 12.8012 11.3525C13.227 10.9365 13.7934 10.7285 14.5005 10.7285C14.9458 10.7285 15.3384 10.79 15.6782 10.9131V11.8008C15.354 11.6133 14.9575 11.5195 14.4887 11.5195C14.0962 11.5195 13.7759 11.6475 13.5278 11.9033C13.2817 12.1572 13.1587 12.4971 13.1587 12.9229C13.1587 13.3545 13.269 13.6885 13.4897 13.9248C13.7124 14.1611 14.0122 14.2793 14.3891 14.2793C14.6157 14.2793 14.7954 14.2471 14.9282 14.1826V13.3623H14.0874V12.6064H15.8745V14.7188Z" fill="#6D6E6F"/>
</svg>
