<svg width="21" height="20" viewBox="0 0 21 20" fill="none" xmlns="http://www.w3.org/2000/svg">
<path d="M18.3764 8.7375V15.8333C18.3764 18.1308 16.5028 20 14.1998 20H5.84749C3.54452 20 1.6709 18.1308 1.6709 15.8333V4.16667C1.6709 1.86917 3.54452 0 5.84749 0H9.61895C11.181 0 12.6495 0.6075 13.7538 1.70917L16.664 4.6125C17.7683 5.71417 18.3764 7.17917 18.3764 8.7375ZM12.5718 2.88667C12.3062 2.62167 12.0113 2.3975 11.6939 2.215V5.8325C11.6939 6.2925 12.0681 6.66583 12.5292 6.66583H16.1553C15.9732 6.34917 15.7477 6.055 15.482 5.79L12.5718 2.88667ZM16.7058 8.7375C16.7058 8.60167 16.6991 8.46667 16.6866 8.33333H12.5292C11.1476 8.33333 10.0232 7.21167 10.0232 5.83333V1.68583C9.88959 1.67333 9.75427 1.66667 9.61811 1.66667H5.84665C4.46504 1.66667 3.3407 2.78833 3.3407 4.16667V15.8333C3.3407 17.2117 4.46504 18.3333 5.84665 18.3333H14.1998C15.5814 18.3333 16.7058 17.2117 16.7058 15.8333V8.7375Z" fill="#6D6E6F"/>
<path d="M9.60693 14.6719C9.12842 14.9476 8.53369 15.0854 7.82275 15.0854C7.03434 15.0854 6.41227 14.8678 5.95654 14.4326C5.50309 13.9951 5.27637 13.3936 5.27637 12.6279C5.27637 11.8577 5.52474 11.23 6.02148 10.7446C6.51823 10.2593 7.17904 10.0166 8.00391 10.0166C8.52344 10.0166 8.98145 10.0884 9.37793 10.2319V11.2676C8.99967 11.0488 8.53711 10.9395 7.99023 10.9395C7.53223 10.9395 7.15853 11.0887 6.86914 11.3872C6.58203 11.6834 6.43848 12.0799 6.43848 12.5767C6.43848 13.0802 6.56722 13.4699 6.82471 13.7456C7.08447 14.0213 7.43424 14.1592 7.87402 14.1592C8.13835 14.1592 8.34798 14.1216 8.50293 14.0464V13.0894H7.52197V12.2075H9.60693V14.6719ZM11.2446 15H10.1405V10.0986H11.2446V15ZM14.7757 10.9976H13.0462V12.2007H14.6356V13.0962H13.0462V15H11.9422V10.0986H14.7757V10.9976Z" fill="#6D6E6F"/>
</svg>
