<svg width="20" height="20" viewBox="0 0 20 20" fill="none" xmlns="http://www.w3.org/2000/svg">
<g clip-path="url(#clip0_3604_1297)">
<path d="M16.6253 4.61667L13.717 1.70833C12.617 0.608333 11.1503 0 9.59199 0H5.83366C3.53366 0 1.66699 1.86667 1.66699 4.16667V15.8333C1.66699 18.1333 3.53366 20 5.83366 20H14.167C16.467 20 18.3337 18.1333 18.3337 15.8333V8.74167C18.3337 7.18333 17.7253 5.71667 16.6253 4.61667ZM15.4503 5.79167C15.717 6.05833 15.942 6.35 16.1253 6.66667H12.5087C12.0503 6.66667 11.6753 6.29167 11.6753 5.83333V2.21667C11.992 2.4 12.2837 2.625 12.5503 2.89167L15.4587 5.8L15.4503 5.79167ZM16.667 15.8333C16.667 17.2083 15.542 18.3333 14.167 18.3333H5.83366C4.45866 18.3333 3.33366 17.2083 3.33366 15.8333V4.16667C3.33366 2.79167 4.45866 1.66667 5.83366 1.66667H9.59199C9.72533 1.66667 9.86699 1.66667 10.0003 1.68333V5.83333C10.0003 7.20833 11.1253 8.33333 12.5003 8.33333H16.6503C16.667 8.46667 16.667 8.6 16.667 8.74167V15.8333ZM5.90866 10.8333H5.00033C4.54199 10.8333 4.16699 11.2083 4.16699 11.6667V15.3667C4.16699 15.6583 4.40033 15.8833 4.68366 15.8833C4.96699 15.8833 5.20033 15.65 5.20033 15.3667V14.35H5.90033C6.88366 14.35 7.68366 13.5583 7.68366 12.5917C7.68366 11.625 6.88366 10.8333 5.90033 10.8333H5.90866ZM5.90866 13.3083H5.21699V11.875H5.91699C6.31699 11.875 6.65866 12.2 6.65866 12.5917C6.65866 12.9833 6.31699 13.3083 5.91699 13.3083H5.90866ZM15.8503 11.3583C15.8503 11.65 15.617 11.875 15.3337 11.875H13.9253V12.825H14.9587C15.2503 12.825 15.4753 13.0583 15.4753 13.3417C15.4753 13.625 15.242 13.8583 14.9587 13.8583H13.9253V15.3583C13.9253 15.65 13.692 15.875 13.4087 15.875C13.1253 15.875 12.892 15.6417 12.892 15.3583V11.35C12.892 11.0583 13.1253 10.8333 13.4087 10.8333H15.3337C15.6253 10.8333 15.8503 11.0667 15.8503 11.35V11.3583ZM10.0753 10.8417H9.16699C8.70866 10.8417 8.33366 11.2167 8.33366 11.675V15.375C8.33366 15.6667 8.56699 15.8417 8.85033 15.8417C9.13366 15.8417 10.067 15.8417 10.067 15.8417C11.0503 15.8417 11.8503 15.05 11.8503 14.0833V12.6C11.8503 11.6333 11.0503 10.8417 10.067 10.8417H10.0753ZM10.817 14.0833C10.817 14.475 10.4753 14.8 10.0753 14.8H9.38366V11.8833H10.0837C10.4837 11.8833 10.8253 12.2083 10.8253 12.6V14.0833H10.817Z" fill="#6D6E6F"/>
</g>
<defs>
<clipPath id="clip0_3604_1297">
<rect width="20" height="20" fill="white"/>
</clipPath>
</defs>
</svg>
