<svg width="16" height="16" viewBox="0 0 16 16" fill="none" xmlns="http://www.w3.org/2000/svg">
<path d="M11.2411 15.9013H7.99963C7.66413 15.9013 7.39185 15.629 7.39185 15.2935C7.39185 14.958 7.66413 14.6858 7.99963 14.6858H11.2411C11.7995 14.6858 12.2541 14.2311 12.2541 13.6728V12.8624C12.2541 12.5269 12.5264 12.2546 12.8619 12.2546C13.1974 12.2546 13.4697 12.5269 13.4697 12.8624V13.6728C13.4697 14.9021 12.4705 15.9013 11.2411 15.9013Z" fill="#6D6E6F"/>
<path fill-rule="evenodd" clip-rule="evenodd" d="M12.8618 12.3533C12.5808 12.3533 12.3527 12.5814 12.3527 12.8623V13.6727C12.3527 14.2856 11.8539 14.7844 11.241 14.7844H7.99951C7.71857 14.7844 7.4905 15.0125 7.4905 15.2934C7.4905 15.5744 7.71857 15.8024 7.99951 15.8024H11.241C12.4158 15.8024 13.3708 14.8475 13.3708 13.6727V12.8623C13.3708 12.5814 13.1427 12.3533 12.8618 12.3533ZM12.1552 12.8623C12.1552 12.4723 12.4717 12.1558 12.8618 12.1558C13.2518 12.1558 13.5683 12.4723 13.5683 12.8623V13.6727C13.5683 14.9566 12.5249 16 11.241 16H7.99951C7.60947 16 7.29297 15.6835 7.29297 15.2934C7.29297 14.9034 7.60947 14.5869 7.99951 14.5869H11.241C11.7448 14.5869 12.1552 14.1765 12.1552 13.6727V12.8623Z" fill="#6D6E6F"/>
<path d="M13.6727 6.58187H13.4701V5.56891C13.4701 2.55269 11.0162 0.098877 8.00003 0.098877C4.98382 0.098877 2.53 2.55269 2.53 5.56891V6.58187H2.32741C1.09807 6.58187 0.098877 7.58107 0.098877 8.8104V11.2415C0.098877 12.4709 1.09807 13.4701 2.32741 13.4701H3.94816C4.73017 13.4701 5.36631 12.8339 5.36631 12.0519V8.00003C5.36631 7.21802 4.73017 6.58187 3.94816 6.58187H3.74556V5.56891C3.74556 3.22287 5.65399 1.31444 8.00003 1.31444C10.3461 1.31444 12.2545 3.22287 12.2545 5.56891V6.58187H12.0519C11.2699 6.58187 10.6337 7.21802 10.6337 8.00003V12.0519C10.6337 12.8339 11.2699 13.4701 12.0519 13.4701H13.6727C14.902 13.4701 15.9012 12.4709 15.9012 11.2415V8.8104C15.9012 7.58107 14.902 6.58187 13.6727 6.58187ZM4.15075 8.00003V12.0519C4.15075 12.1637 4.05999 12.2545 3.94816 12.2545H2.32741C1.76906 12.2545 1.31444 11.7999 1.31444 11.2415V8.8104C1.31444 8.25206 1.76906 7.79744 2.32741 7.79744H3.94816C4.05999 7.79744 4.15075 7.8882 4.15075 8.00003ZM14.6856 11.2415C14.6856 11.7999 14.231 12.2545 13.6727 12.2545H12.0519C11.9401 12.2545 11.8493 12.1637 11.8493 12.0519V8.00003C11.8493 7.8882 11.9401 7.79744 12.0519 7.79744H13.6727C14.231 7.79744 14.6856 8.25206 14.6856 8.8104V11.2415Z" fill="#6D6E6F"/>
<path fill-rule="evenodd" clip-rule="evenodd" d="M2.43112 5.56879C2.43112 2.49803 4.92916 0 7.99992 0C11.0707 0 13.5687 2.49803 13.5687 5.56879V6.483H13.6725C14.9564 6.483 15.9998 7.52641 15.9998 8.81029V11.2414C15.9998 12.5253 14.9564 13.5687 13.6725 13.5687H12.0518C11.2152 13.5687 10.5349 12.8883 10.5349 12.0518V7.99992C10.5349 7.16336 11.2152 6.483 12.0518 6.483H12.1556V5.56879C12.1556 3.2773 10.2914 1.41309 7.99992 1.41309C5.70843 1.41309 3.84421 3.2773 3.84421 5.56879V6.483H3.94804C4.7846 6.483 5.46496 7.16336 5.46496 7.99992V12.0518C5.46496 12.8883 4.7846 13.5687 3.94804 13.5687H2.32729C1.04341 13.5687 0 12.5253 0 11.2414V8.81029C0 7.52641 1.04341 6.483 2.32729 6.483H2.43112V5.56879ZM7.99992 0.197529C5.03825 0.197529 2.62865 2.60712 2.62865 5.56879V6.68053H2.32729C1.1525 6.68053 0.197529 7.6355 0.197529 8.81029V11.2414C0.197529 12.4162 1.1525 13.3712 2.32729 13.3712H3.94804C4.67551 13.3712 5.26744 12.7793 5.26744 12.0518V7.99992C5.26744 7.27245 4.67551 6.68053 3.94804 6.68053H3.64669V5.56879C3.64669 3.16821 5.59934 1.21556 7.99992 1.21556C10.4005 1.21556 12.3531 3.16821 12.3531 5.56879V6.68053H12.0518C11.3243 6.68053 10.7324 7.27245 10.7324 7.99992V12.0518C10.7324 12.7793 11.3243 13.3712 12.0518 13.3712H13.6725C14.8473 13.3712 15.8023 12.4162 15.8023 11.2414V8.81029C15.8023 7.6355 14.8473 6.68053 13.6725 6.68053H13.3712V5.56879C13.3712 2.60712 10.9616 0.197529 7.99992 0.197529ZM2.32729 7.89609C1.82349 7.89609 1.41309 8.30649 1.41309 8.81029V11.2414C1.41309 11.7452 1.82349 12.1556 2.32729 12.1556H3.94804C4.00533 12.1556 4.05187 12.1091 4.05187 12.0518V7.99992C4.05187 7.94263 4.00533 7.89609 3.94804 7.89609H2.32729ZM1.21556 8.81029C1.21556 8.1974 1.7144 7.69856 2.32729 7.69856H3.94804C4.11442 7.69856 4.2494 7.83354 4.2494 7.99992V12.0518C4.2494 12.2182 4.11442 12.3531 3.94804 12.3531H2.32729C1.7144 12.3531 1.21556 11.8543 1.21556 11.2414V8.81029ZM12.0518 7.89609C11.9945 7.89609 11.948 7.94263 11.948 7.99992V12.0518C11.948 12.1091 11.9945 12.1556 12.0518 12.1556H13.6725C14.1763 12.1556 14.5867 11.7452 14.5867 11.2414V8.81029C14.5867 8.30649 14.1763 7.89609 13.6725 7.89609H12.0518ZM11.7504 7.99992C11.7504 7.83354 11.8854 7.69856 12.0518 7.69856H13.6725C14.2854 7.69856 14.7843 8.1974 14.7843 8.81029V11.2414C14.7843 11.8543 14.2854 12.3531 13.6725 12.3531H12.0518C11.8854 12.3531 11.7504 12.2182 11.7504 12.0518V7.99992Z" fill="#6D6E6F"/>
</svg>
