<svg width="20" height="18" viewBox="0 0 20 18" fill="none" xmlns="http://www.w3.org/2000/svg">
<path d="M18.0259 12.9779V11.7759V10.5416C18.0259 10 17.9268 8.923 17.5 8.5C17.158 8.05244 16.6038 8.00099 15.9998 8H14.4998H12.9998H11.9998H10.9998H10.5658V7.76953V7.5V7.26562V7V6.5V5.02864C11.1832 4.89083 11.7276 4.53262 12.0949 4.02251C12.4622 3.5124 12.6444 2.88622 12.5743 2.26374C12.5043 1.64127 11.9717 0.917647 11.5 0.5C11.0283 0.0823527 10.5 0 10 0C9.36706 0 8.75616 0.23091 8.28448 0.648557C7.81281 1.0662 7.51329 1.64127 7.44323 2.26374C7.37317 2.88622 7.53748 3.5124 7.90474 4.02251C8.27199 4.53262 8.8164 4.89083 9.43383 5.02864V8H4.2881C3.68348 8.00049 2.79188 8.05233 2.484 8.5C2.05638 8.92297 1.89567 9.73912 1.93228 10.5425V12.9567C1.31459 13.0945 0.844839 13.4656 0.477406 13.9759C0.109974 14.4862 -0.0544375 15.1126 0.015625 15.7353C0.0856875 16.358 0.385305 16.9333 0.857159 17.3512C1.32901 17.769 1.93997 18 2.57316 18C3.20635 18 3.81732 17.769 4.28917 17.3512C4.76102 16.9333 5.06064 16.358 5.1307 15.7353C5.20076 15.1126 5.03635 14.4862 4.66892 13.9759C4.30149 13.4656 3.80223 13.0945 3.18455 12.9567V12.3771V11.7513V10.5425C3.18505 10.2411 3.26086 9.95223 3.47622 9.73912C3.69158 9.52601 3.98353 9.50049 4.2881 9.5H7H9.43383V12.9676C8.8164 13.1054 8.27199 13.4636 7.90474 13.9737C7.53748 14.4838 7.37317 15.11 7.44323 15.7325C7.51329 16.355 7.81281 16.93 8.28448 17.3477C8.75616 17.7653 9.36688 17.9962 9.99982 17.9962C10.6328 17.9962 11.2435 17.7653 11.7152 17.3477C12.1868 16.93 12.4863 16.355 12.5564 15.7325C12.6265 15.11 12.4622 14.4838 12.0949 13.9737C11.7276 13.4636 11.1832 13.1054 10.5658 12.9676V9.5H13H15.5C15.8041 9.50099 16.3116 9.52771 16.5262 9.74082C16.7409 9.95393 16.7607 10.2407 16.7607 10.5416V11.7759V12.9704C16.1433 13.1082 15.6996 13.4664 15.3323 13.9765C14.9651 14.4866 14.8008 15.1128 14.8708 15.7353C14.9409 16.3578 15.2404 16.9328 15.7121 17.3505C16.1838 17.7681 16.7945 17.999 17.4274 17.999C18.0604 17.999 18.6711 17.7681 19.1427 17.3505C19.6144 16.9328 19.9139 16.3578 19.984 15.7353C20.0541 15.1128 19.8898 14.4866 19.5225 13.9765C19.1552 13.4664 18.6108 13.1082 17.9934 12.9704L18.0259 12.9779ZM4.01454 15.4468C4.01454 15.7288 3.93006 16.0043 3.77178 16.2387C3.6135 16.4731 3.38854 16.6558 3.12534 16.7637C2.86213 16.8716 2.57251 16.8998 2.29309 16.8448C2.01368 16.7898 1.75702 16.6541 1.55557 16.4547C1.35412 16.2554 1.21693 16.0014 1.16136 15.7249C1.10578 15.4484 1.1343 15.1618 1.24332 14.9014C1.35235 14.6409 1.53697 14.4183 1.77385 14.2617C2.01072 14.1051 2.28922 14.0215 2.57411 14.0215C2.95598 14.022 3.32207 14.1723 3.59209 14.4395C3.86212 14.7067 4.01404 15.069 4.01454 15.4468ZM11.4412 15.4468C11.4412 15.7287 11.3567 16.0043 11.1985 16.2386C11.0403 16.473 10.8154 16.6557 10.5522 16.7636C10.2891 16.8715 9.99948 16.8998 9.72009 16.8449C9.4407 16.79 9.18404 16.6543 8.98256 16.4551C8.78107 16.2558 8.64381 16.0019 8.58812 15.7255C8.53244 15.4491 8.56083 15.1625 8.66971 14.902C8.77859 14.6415 8.96306 14.4189 9.19981 14.2621C9.43657 14.1054 9.71497 14.0216 9.99982 14.0215C10.3816 14.0222 10.7476 14.1726 11.0175 14.4398C11.2875 14.7069 11.4404 15.069 11.4412 15.4468ZM9.99982 3.97571C9.71466 3.9759 9.43586 3.89238 9.19868 3.73573C8.9615 3.57907 8.77661 3.35632 8.6674 3.09566C8.55819 2.835 8.52957 2.54814 8.58515 2.27138C8.64074 1.99461 8.77803 1.74038 8.97967 1.54085C9.18131 1.34133 9.43822 1.20546 9.71791 1.15046C9.99759 1.09546 10.2875 1.12378 10.5509 1.23185C10.8143 1.33992 11.0394 1.52288 11.1977 1.75757C11.356 1.99227 11.4404 2.26816 11.4402 2.55034C11.4397 2.92822 11.2878 3.29048 11.0178 3.55768C10.7478 3.82489 10.3817 3.97522 9.99982 3.97571ZM17.4265 16.8731C17.1414 16.8733 16.8626 16.7898 16.6254 16.6332C16.3883 16.4766 16.2034 16.2539 16.0941 15.9933C15.9849 15.7327 15.9562 15.4459 16.0117 15.1692C16.0672 14.8924 16.2044 14.6382 16.406 14.4386C16.6075 14.239 16.8644 14.1031 17.144 14.048C17.4236 13.9929 17.7135 14.0211 17.9769 14.129C18.2403 14.2369 18.4655 14.4198 18.6239 14.6543C18.7823 14.8889 18.8669 15.1647 18.8669 15.4468C18.8667 15.825 18.7149 16.1876 18.4448 16.4551C18.1748 16.7227 17.8086 16.8724 17.4265 16.8731Z" fill="#6D6E6F"/>
</svg>
