<svg width="18" height="16" viewBox="0 0 18 16" fill="none" xmlns="http://www.w3.org/2000/svg">
<path d="M9.34607 0C7.62397 0.00838151 5.95331 0.587799 4.59582 1.64747C3.23833 2.70715 2.27072 4.18721 1.84459 5.85577L1.32331 5.06745C1.27397 4.98492 1.20841 4.91324 1.13061 4.85673C1.05281 4.80022 0.964363 4.76005 0.870614 4.73865C0.776866 4.71724 0.679754 4.71505 0.585134 4.7322C0.490515 4.74935 0.400349 4.78548 0.320073 4.83842C0.239797 4.89136 0.171075 4.96001 0.11805 5.04023C0.065025 5.12045 0.0287964 5.21058 0.0115487 5.30518C-0.0056991 5.39978 -0.00360863 5.49689 0.017694 5.59066C0.0389966 5.68443 0.07907 5.77292 0.135498 5.85078L1.70216 8.22499C1.81099 8.37728 1.97144 8.48483 2.15365 8.52764C2.3397 8.56455 2.53282 8.52751 2.69201 8.42439L5.04201 6.84134C5.12303 6.79074 5.19305 6.72436 5.24789 6.64614C5.30273 6.56793 5.34127 6.47948 5.36123 6.38606C5.38118 6.29264 5.38213 6.19616 5.36403 6.10237C5.34592 6.00857 5.30913 5.91938 5.25585 5.84009C5.20256 5.76081 5.13387 5.69306 5.05386 5.64087C4.97385 5.58868 4.88416 5.55312 4.79012 5.53631C4.69609 5.51951 4.59963 5.52179 4.50649 5.54302C4.41336 5.56426 4.32545 5.60402 4.24799 5.65993L3.1791 6.3806C3.46358 5.22582 4.06692 4.17425 4.9203 3.34587C5.77367 2.5175 6.8427 1.94567 8.00543 1.69564C9.16815 1.44561 10.3777 1.52743 11.4962 1.93179C12.6147 2.33614 13.5969 3.04673 14.331 3.98249C15.065 4.91826 15.5212 6.0415 15.6476 7.22408C15.7739 8.40665 15.5654 9.60093 15.0456 10.6707C14.5259 11.7404 13.7159 12.6425 12.7081 13.274C11.7004 13.9056 10.5354 14.2411 9.34607 14.2424C8.32655 14.2397 7.32277 13.9908 6.42007 13.5169C5.51736 13.0431 4.74242 12.3582 4.16112 11.5207C4.10905 11.4407 4.04146 11.3721 3.96235 11.3188C3.88323 11.2654 3.79421 11.2286 3.70057 11.2103C3.60693 11.1921 3.51058 11.1928 3.41724 11.2125C3.3239 11.2323 3.23547 11.2705 3.1572 11.3251C3.07893 11.3796 3.01242 11.4493 2.96162 11.5301C2.91082 11.6108 2.87676 11.701 2.86147 11.7951C2.84618 11.8893 2.84996 11.9856 2.87259 12.0783C2.89523 12.1709 2.93626 12.2581 2.99324 12.3346C3.93827 13.697 5.2954 14.7204 6.86519 15.2542C8.43497 15.7881 10.1346 15.8043 11.7143 15.3006C13.294 14.7968 14.6704 13.7996 15.6413 12.4555C16.6122 11.1114 17.1264 9.49131 17.1082 7.83333C17.1152 5.76598 16.3019 3.78025 14.8468 2.31175C13.3916 0.843241 11.4134 0.0118684 9.34607 0Z" fill="#6D6E6F"/>
<path d="M9.27413 3.52734C9.08527 3.52734 8.90414 3.60237 8.77059 3.73592C8.63704 3.86947 8.56201 4.0506 8.56201 4.23946V7.83567C8.56504 8.02392 8.63965 8.20394 8.77066 8.33914L10.907 10.4947C11.0411 10.6267 11.2214 10.701 11.4095 10.702C11.5976 10.7029 11.7786 10.6303 11.914 10.4997C12.048 10.3667 12.1238 10.186 12.1246 9.99713C12.1254 9.8083 12.0512 9.62689 11.9182 9.49278L9.98625 7.54299V4.23946C9.98625 4.0506 9.91123 3.86947 9.77768 3.73592C9.64413 3.60237 9.463 3.52734 9.27413 3.52734Z" fill="#6D6E6F"/>
</svg>
