<svg width="16" height="16" viewBox="0 0 16 16" fill="none" xmlns="http://www.w3.org/2000/svg">
<path d="M9.7559 16H2.14154C0.960821 16 0 14.9883 0 13.7436V2.25641C0 1.01169 0.960821 0 2.14154 0H9.7559C10.9366 0 11.8974 1.01169 11.8974 2.25641V5.53846C11.8974 5.87815 11.6217 6.15385 11.2821 6.15385C10.9424 6.15385 10.6667 5.87815 10.6667 5.53846V2.25641C10.6667 1.7001 10.2498 1.23077 9.7559 1.23077H2.14154C1.64759 1.23077 1.23077 1.7001 1.23077 2.25641V13.7436C1.23077 14.2999 1.64759 14.7692 2.14154 14.7692H9.7559C10.2498 14.7692 10.6667 14.2999 10.6667 13.7436V10.4615C10.6667 10.1218 10.9424 9.84615 11.2821 9.84615C11.6217 9.84615 11.8974 10.1218 11.8974 10.4615V13.7436C11.8974 14.9883 10.9366 16 9.7559 16ZM9.4359 3.89744C9.4359 3.55774 9.1602 3.28205 8.82051 3.28205H3.07692C2.73723 3.28205 2.46154 3.55774 2.46154 3.89744C2.46154 4.23713 2.73723 4.51282 3.07692 4.51282H8.82051C9.1602 4.51282 9.4359 4.23713 9.4359 3.89744ZM7.79487 6.35897C7.79487 6.01928 7.51918 5.74359 7.17949 5.74359H3.07692C2.73723 5.74359 2.46154 6.01928 2.46154 6.35897C2.46154 6.69867 2.73723 6.97436 3.07692 6.97436H7.17949C7.51918 6.97436 7.79487 6.69867 7.79487 6.35897Z" fill="#6D6E6F"/>
<path d="M6.9228 13.3841C6.65367 13.3841 6.39275 13.2783 6.19829 13.0838C5.95542 12.8409 5.85039 12.4947 5.91767 12.1583L6.27952 10.3474C6.36649 9.90843 6.58065 9.50966 6.89655 9.19377L11.7663 4.3232C12.6459 3.44443 14.0777 3.44361 14.9573 4.3232C15.8369 5.20279 15.8369 6.63459 14.9573 7.51418L10.0867 12.3847C9.7708 12.7015 9.37203 12.9148 8.93388 13.0018L7.12301 13.3636C7.05572 13.3776 6.98844 13.3833 6.92116 13.3833L6.9228 13.3841ZM13.363 4.89346C13.1004 4.89346 12.8379 4.99356 12.6377 5.19377L7.76711 10.0643C7.62352 10.2079 7.5267 10.3893 7.48649 10.5878L7.18454 12.0967L8.69347 11.7948C8.89203 11.7554 9.07337 11.6578 9.21696 11.5142L14.0875 6.64361C14.4871 6.24402 14.4871 5.59254 14.0875 5.19295C13.8873 4.99274 13.6248 4.89264 13.3622 4.89264L13.363 4.89346Z" fill="#6D6E6F"/>
</svg>
