<svg width="18" height="18" viewBox="0 0 18 18" fill="none" xmlns="http://www.w3.org/2000/svg">
<g clip-path="url(#clip0_1033_9721)">
<path d="M9 12.75C6.93 12.75 5.25 11.07 5.25 9C5.25 6.93 6.93 5.25 9 5.25C11.07 5.25 12.75 6.93 12.75 9C12.75 11.07 11.07 12.75 9 12.75ZM9 6.75C7.7625 6.75 6.75 7.7625 6.75 9C6.75 10.2375 7.7625 11.25 9 11.25C10.2375 11.25 11.25 10.2375 11.25 9C11.25 7.7625 10.2375 6.75 9 6.75ZM9.75 3V0.75C9.75 0.3375 9.4125 0 9 0C8.5875 0 8.25 0.3375 8.25 0.75V3C8.25 3.4125 8.5875 3.75 9 3.75C9.4125 3.75 9.75 3.4125 9.75 3ZM9.75 17.25V15C9.75 14.5875 9.4125 14.25 9 14.25C8.5875 14.25 8.25 14.5875 8.25 15V17.25C8.25 17.6625 8.5875 18 9 18C9.4125 18 9.75 17.6625 9.75 17.25ZM3.75 9C3.75 8.5875 3.4125 8.25 3 8.25H0.75C0.3375 8.25 0 8.5875 0 9C0 9.4125 0.3375 9.75 0.75 9.75H3C3.4125 9.75 3.75 9.4125 3.75 9ZM18 9C18 8.5875 17.6625 8.25 17.25 8.25H15C14.5875 8.25 14.25 8.5875 14.25 9C14.25 9.4125 14.5875 9.75 15 9.75H17.25C17.6625 9.75 18 9.4125 18 9ZM5.0325 5.0325C5.325 4.74 5.325 4.2675 5.0325 3.975L3.5325 2.475C3.24 2.1825 2.7675 2.1825 2.475 2.475C2.1825 2.7675 2.1825 3.24 2.475 3.5325L3.975 5.0325C4.125 5.1825 4.3125 5.25 4.5075 5.25C4.7025 5.25 4.89 5.175 5.04 5.0325H5.0325ZM15.5325 15.5325C15.825 15.24 15.825 14.7675 15.5325 14.475L14.0325 12.975C13.74 12.6825 13.2675 12.6825 12.975 12.975C12.6825 13.2675 12.6825 13.74 12.975 14.0325L14.475 15.5325C14.625 15.6825 14.8125 15.75 15.0075 15.75C15.2025 15.75 15.39 15.675 15.54 15.5325H15.5325ZM3.5325 15.5325L5.0325 14.0325C5.325 13.74 5.325 13.2675 5.0325 12.975C4.74 12.6825 4.2675 12.6825 3.975 12.975L2.475 14.475C2.1825 14.7675 2.1825 15.24 2.475 15.5325C2.625 15.6825 2.8125 15.75 3.0075 15.75C3.2025 15.75 3.39 15.675 3.54 15.5325H3.5325ZM14.0325 5.0325L15.5325 3.5325C15.825 3.24 15.825 2.7675 15.5325 2.475C15.24 2.1825 14.7675 2.1825 14.475 2.475L12.975 3.975C12.6825 4.2675 12.6825 4.74 12.975 5.0325C13.125 5.1825 13.3125 5.25 13.5075 5.25C13.7025 5.25 13.89 5.175 14.04 5.0325H14.0325Z" fill="white"/>
</g>
<defs>
<clipPath id="clip0_1033_9721">
<rect width="18" height="18" fill="white"/>
</clipPath>
</defs>
</svg>
