<svg width="18" height="15" viewBox="0 0 18 15" fill="none" xmlns="http://www.w3.org/2000/svg">
<path d="M5.25 2.6667H17.25C17.4489 2.6667 17.6397 2.57891 17.7803 2.42262C17.921 2.26634 18 2.05437 18 1.83335C18 1.61233 17.921 1.40037 17.7803 1.24408C17.6397 1.0878 17.4489 1 17.25 1H5.25C5.05109 1 4.86032 1.0878 4.71967 1.24408C4.57902 1.40037 4.5 1.61233 4.5 1.83335C4.5 2.05437 4.57902 2.26634 4.71967 2.42262C4.86032 2.57891 5.05109 2.6667 5.25 2.6667Z" fill="#6D6E6F"/>
<path d="M17.25 7H5.25C5.05109 7 4.86032 7.0878 4.71967 7.24408C4.57902 7.40037 4.5 7.61233 4.5 7.83335C4.5 8.05437 4.57902 8.26634 4.71967 8.42262C4.86032 8.57891 5.05109 8.6667 5.25 8.6667H17.25C17.4489 8.6667 17.6397 8.57891 17.7803 8.42262C17.921 8.26634 18 8.05437 18 7.83335C18 7.61233 17.921 7.40037 17.7803 7.24408C17.6397 7.0878 17.4489 7 17.25 7Z" fill="#6D6E6F"/>
<path d="M17.25 13H5.25C5.05109 13 4.86032 13.0878 4.71967 13.2441C4.57902 13.4004 4.5 13.6123 4.5 13.8334C4.5 14.0544 4.57902 14.2663 4.71967 14.4226C4.86032 14.5789 5.05109 14.6667 5.25 14.6667H17.25C17.4489 14.6667 17.6397 14.5789 17.7803 14.4226C17.921 14.2663 18 14.0544 18 13.8334C18 13.6123 17.921 13.4004 17.7803 13.2441C17.6397 13.0878 17.4489 13 17.25 13Z" fill="#6D6E6F"/>
<path d="M1.5 3C2.32843 3 3 2.32843 3 1.5C3 0.671573 2.32843 0 1.5 0C0.671573 0 0 0.671573 0 1.5C0 2.32843 0.671573 3 1.5 3Z" fill="#6D6E6F"/>
<path d="M1.5 9C2.32843 9 3 8.32843 3 7.5C3 6.67157 2.32843 6 1.5 6C0.671573 6 0 6.67157 0 7.5C0 8.32843 0.671573 9 1.5 9Z" fill="#6D6E6F"/>
<path d="M1.5 15C2.32843 15 3 14.3284 3 13.5C3 12.6716 2.32843 12 1.5 12C0.671573 12 0 12.6716 0 13.5C0 14.3284 0.671573 15 1.5 15Z" fill="#6D6E6F"/>
</svg>
