<svg width="13" height="13" viewBox="0 0 13 13" fill="none" xmlns="http://www.w3.org/2000/svg">
<path d="M12.8481 12.0828L9.61752 8.85223C10.4979 7.77552 10.9307 6.40163 10.8265 5.01473C10.7223 3.62783 10.089 2.33404 9.05767 1.40097C8.0263 0.467897 6.67576 -0.0330682 5.28538 0.00169543C3.89501 0.0364591 2.57119 0.604292 1.58774 1.58774C0.604292 2.57119 0.0364591 3.89501 0.00169543 5.28538C-0.0330682 6.67576 0.467897 8.0263 1.40097 9.05767C2.33404 10.089 3.62783 10.7223 5.01473 10.8265C6.40163 10.9307 7.77552 10.4979 8.85223 9.61752L12.0828 12.8481C12.1849 12.9467 12.3216 13.0012 12.4635 13C12.6054 12.9987 12.7411 12.9418 12.8415 12.8415C12.9418 12.7411 12.9987 12.6054 13 12.4635C13.0012 12.3216 12.9467 12.1849 12.8481 12.0828ZM5.42954 9.75932C4.57319 9.75932 3.73608 9.50538 3.02405 9.02962C2.31202 8.55386 1.75706 7.87764 1.42935 7.08648C1.10164 6.29531 1.0159 5.42474 1.18296 4.58485C1.35003 3.74495 1.7624 2.97346 2.36793 2.36793C2.97346 1.7624 3.74495 1.35003 4.58485 1.18296C5.42474 1.0159 6.29531 1.10164 7.08648 1.42935C7.87764 1.75706 8.55386 2.31202 9.02962 3.02405C9.50538 3.73608 9.75932 4.57319 9.75932 5.42954C9.75803 6.57748 9.30144 7.67802 8.48973 8.48973C7.67802 9.30144 6.57748 9.75803 5.42954 9.75932Z" fill="#fff"/>
</svg>
