<svg width="15" height="15" viewBox="0 0 15 15" fill="none" xmlns="http://www.w3.org/2000/svg">
<g clip-path="url(#clip0_1283_1022)">
<mask id="mask0_1283_1022" style="mask-type:luminance" maskUnits="userSpaceOnUse" x="0" y="0" width="15" height="15">
<path d="M15 0H0V15H15V0Z" fill="white"/>
</mask>
<g mask="url(#mask0_1283_1022)">
<path d="M7.1725 9.375C7.00674 9.375 6.84777 9.44085 6.73056 9.55806C6.61335 9.67527 6.5475 9.83424 6.5475 10V11.875C6.5475 12.3723 6.34996 12.8492 5.99833 13.2008C5.64669 13.5525 5.16978 13.75 4.6725 13.75H3.125C2.62772 13.75 2.15081 13.5525 1.79917 13.2008C1.44754 12.8492 1.25 12.3723 1.25 11.875V3.125C1.25 2.62772 1.44754 2.15081 1.79917 1.79917C2.15081 1.44754 2.62772 1.25 3.125 1.25H4.6725C5.16978 1.25 5.64669 1.44754 5.99833 1.79917C6.34996 2.15081 6.5475 2.62772 6.5475 3.125V5C6.5475 5.16576 6.61335 5.32473 6.73056 5.44194C6.84777 5.55915 7.00674 5.625 7.1725 5.625C7.33826 5.625 7.49723 5.55915 7.61444 5.44194C7.73165 5.32473 7.7975 5.16576 7.7975 5V3.125C7.79651 2.2965 7.46695 1.50222 6.88111 0.916387C6.29528 0.330551 5.501 0.000992411 4.6725 0H3.125C2.2965 0.000992411 1.50222 0.330551 0.916387 0.916387C0.330551 1.50222 0.000992411 2.2965 0 3.125V11.875C0.000992411 12.7035 0.330551 13.4978 0.916387 14.0836C1.50222 14.6694 2.2965 14.999 3.125 15H4.6725C5.501 14.999 6.29528 14.6694 6.88111 14.0836C7.46695 13.4978 7.79651 12.7035 7.7975 11.875V10C7.7975 9.83424 7.73165 9.67527 7.61444 9.55806C7.49723 9.44085 7.33826 9.375 7.1725 9.375Z" fill="#6D6E6F"/>
<path d="M14.2919 6.17424L11.4256 3.30799C11.368 3.24829 11.299 3.20068 11.2228 3.16792C11.1465 3.13517 11.0645 3.11793 10.9815 3.11721C10.8985 3.11648 10.8162 3.1323 10.7394 3.16372C10.6626 3.19515 10.5928 3.24156 10.5341 3.30024C10.4754 3.35892 10.429 3.42871 10.3976 3.50552C10.3662 3.58233 10.3504 3.66463 10.3511 3.74761C10.3518 3.8306 10.3691 3.91261 10.4018 3.98886C10.4346 4.06512 10.4822 4.13408 10.5419 4.19174L13.2056 6.85611L3.75 6.87486C3.58424 6.87486 3.42527 6.94071 3.30806 7.05792C3.19085 7.17513 3.125 7.3341 3.125 7.49986C3.125 7.66562 3.19085 7.82459 3.30806 7.9418C3.42527 8.05901 3.58424 8.12486 3.75 8.12486L13.2425 8.10549L10.5406 10.808C10.4809 10.8657 10.4333 10.9347 10.4006 11.0109C10.3678 11.0872 10.3506 11.1692 10.3498 11.2522C10.3491 11.3351 10.3649 11.4174 10.3964 11.4943C10.4278 11.5711 10.4742 11.6409 10.5329 11.6995C10.5916 11.7582 10.6613 11.8046 10.7382 11.8361C10.815 11.8675 10.8973 11.8833 10.9803 11.8826C11.0632 11.8818 11.1453 11.8646 11.2215 11.8318C11.2978 11.7991 11.3667 11.7515 11.4244 11.6918L14.2906 8.82549C14.6423 8.47404 14.84 7.9973 14.8402 7.50012C14.8405 7.00294 14.6432 6.52602 14.2919 6.17424Z" fill="#6D6E6F"/>
</g>
</g>
<defs>
<clipPath id="clip0_1283_1022">
<rect width="15" height="15" fill="white"/>
</clipPath>
</defs>
</svg>
