<svg width="15" height="15" viewBox="0 0 15 15" fill="none" xmlns="http://www.w3.org/2000/svg">
<g clip-path="url(#clip0_1240_1222)">
<mask id="mask0_1240_1222" style="mask-type:luminance" maskUnits="userSpaceOnUse" x="0" y="0" width="15" height="15">
<path d="M15 0H0V15H15V0Z" fill="white"/>
</mask>
<g mask="url(#mask0_1240_1222)">
<path d="M4.375 0H2.5C1.83696 0 1.20107 0.263392 0.732233 0.732233C0.263392 1.20107 0 1.83696 0 2.5V4.375C0 5.03804 0.263392 5.67393 0.732233 6.14277C1.20107 6.61161 1.83696 6.875 2.5 6.875H4.375C5.03804 6.875 5.67393 6.61161 6.14277 6.14277C6.61161 5.67393 6.875 5.03804 6.875 4.375V2.5C6.875 1.83696 6.61161 1.20107 6.14277 0.732233C5.67393 0.263392 5.03804 0 4.375 0ZM5.625 4.375C5.625 4.70652 5.4933 5.02446 5.25888 5.25888C5.02446 5.4933 4.70652 5.625 4.375 5.625H2.5C2.16848 5.625 1.85054 5.4933 1.61612 5.25888C1.3817 5.02446 1.25 4.70652 1.25 4.375V2.5C1.25 2.16848 1.3817 1.85054 1.61612 1.61612C1.85054 1.3817 2.16848 1.25 2.5 1.25H4.375C4.70652 1.25 5.02446 1.3817 5.25888 1.61612C5.4933 1.85054 5.625 2.16848 5.625 2.5V4.375Z" fill="#FFFFFF"/>
<path d="M4.375 8.125H2.5C1.83696 8.125 1.20107 8.38839 0.732233 8.85723C0.263392 9.32607 0 9.96196 0 10.625V12.5C0 13.163 0.263392 13.7989 0.732233 14.2678C1.20107 14.7366 1.83696 15 2.5 15H4.375C5.03804 15 5.67393 14.7366 6.14277 14.2678C6.61161 13.7989 6.875 13.163 6.875 12.5V10.625C6.875 9.96196 6.61161 9.32607 6.14277 8.85723C5.67393 8.38839 5.03804 8.125 4.375 8.125ZM5.625 12.5C5.625 12.8315 5.4933 13.1495 5.25888 13.3839C5.02446 13.6183 4.70652 13.75 4.375 13.75H2.5C2.16848 13.75 1.85054 13.6183 1.61612 13.3839C1.3817 13.1495 1.25 12.8315 1.25 12.5V10.625C1.25 10.2935 1.3817 9.97554 1.61612 9.74112C1.85054 9.5067 2.16848 9.375 2.5 9.375H4.375C4.70652 9.375 5.02446 9.5067 5.25888 9.74112C5.4933 9.97554 5.625 10.2935 5.625 10.625V12.5Z" fill="#FFFFFF"/>
<path d="M12.5 8.125H10.625C9.96196 8.125 9.32607 8.38839 8.85723 8.85723C8.38839 9.32607 8.125 9.96196 8.125 10.625V12.5C8.125 13.163 8.38839 13.7989 8.85723 14.2678C9.32607 14.7366 9.96196 15 10.625 15H12.5C13.163 15 13.7989 14.7366 14.2678 14.2678C14.7366 13.7989 15 13.163 15 12.5V10.625C15 9.96196 14.7366 9.32607 14.2678 8.85723C13.7989 8.38839 13.163 8.125 12.5 8.125ZM13.75 12.5C13.75 12.8315 13.6183 13.1495 13.3839 13.3839C13.1495 13.6183 12.8315 13.75 12.5 13.75H10.625C10.2935 13.75 9.97554 13.6183 9.74112 13.3839C9.5067 13.1495 9.375 12.8315 9.375 12.5V10.625C9.375 10.2935 9.5067 9.97554 9.74112 9.74112C9.97554 9.5067 10.2935 9.375 10.625 9.375H12.5C12.8315 9.375 13.1495 9.5067 13.3839 9.74112C13.6183 9.97554 13.75 10.2935 13.75 10.625V12.5Z" fill="#FFFFFF"/>
<path d="M8.75 4.375H10.625V6.25C10.625 6.41576 10.6908 6.57473 10.8081 6.69194C10.9253 6.80915 11.0842 6.875 11.25 6.875C11.4158 6.875 11.5747 6.80915 11.6919 6.69194C11.8092 6.57473 11.875 6.41576 11.875 6.25V4.375H13.75C13.9158 4.375 14.0747 4.30915 14.1919 4.19194C14.3092 4.07473 14.375 3.91576 14.375 3.75C14.375 3.58424 14.3092 3.42527 14.1919 3.30806C14.0747 3.19085 13.9158 3.125 13.75 3.125H11.875V1.25C11.875 1.08424 11.8092 0.925269 11.6919 0.808058C11.5747 0.690848 11.4158 0.625 11.25 0.625C11.0842 0.625 10.9253 0.690848 10.8081 0.808058C10.6908 0.925269 10.625 1.08424 10.625 1.25V3.125H8.75C8.58424 3.125 8.42527 3.19085 8.30806 3.30806C8.19085 3.42527 8.125 3.58424 8.125 3.75C8.125 3.91576 8.19085 4.07473 8.30806 4.19194C8.42527 4.30915 8.58424 4.375 8.75 4.375Z" fill="#FFFFFF"/>
</g>
</g>
<defs>
<clipPath id="clip0_1240_1222">
<rect width="15" height="15" fill="white"/>
</clipPath>
</defs>
</svg>
