<svg width="16" height="16" viewBox="0 0 16 16" fill="none" xmlns="http://www.w3.org/2000/svg">
<g clip-path="url(#clip0_1240_1201)">
<mask id="mask0_1240_1201" style="mask-type:luminance" maskUnits="userSpaceOnUse" x="0" y="0" width="16" height="16">
<path d="M16 0H0V16H16V0Z" fill="white"/>
</mask>
<g mask="url(#mask0_1240_1201)">
<path d="M12.6667 5.616V4.66667C12.6667 3.42899 12.1751 2.24201 11.2999 1.36684C10.4247 0.491665 9.23771 0 8.00004 0C6.76237 0 5.57538 0.491665 4.70021 1.36684C3.82504 2.24201 3.33337 3.42899 3.33337 4.66667V5.616C2.73961 5.87514 2.23424 6.30169 1.87904 6.84348C1.52385 7.38527 1.33423 8.01883 1.33337 8.66667V12.6667C1.33443 13.5504 1.68596 14.3977 2.31086 15.0225C2.93574 15.6474 3.78297 15.9989 4.66671 16H11.3334C12.2171 15.9989 13.0644 15.6474 13.6892 15.0225C14.3142 14.3977 14.6656 13.5504 14.6667 12.6667V8.66667C14.6659 8.01883 14.4762 7.38527 14.121 6.84348C13.7658 6.30169 13.2605 5.87514 12.6667 5.616ZM4.66671 4.66667C4.66671 3.78261 5.0179 2.93476 5.64302 2.30964C6.26814 1.68452 7.11599 1.33333 8.00004 1.33333C8.88409 1.33333 9.73194 1.68452 10.3571 2.30964C10.9822 2.93476 11.3334 3.78261 11.3334 4.66667V5.33333H4.66671V4.66667ZM13.3334 12.6667C13.3334 13.1971 13.1227 13.7058 12.7476 14.0809C12.3725 14.456 11.8638 14.6667 11.3334 14.6667H4.66671C4.13628 14.6667 3.62757 14.456 3.2525 14.0809C2.87742 13.7058 2.66671 13.1971 2.66671 12.6667V8.66667C2.66671 8.13624 2.87742 7.62753 3.2525 7.25245C3.62757 6.87738 4.13628 6.66667 4.66671 6.66667H11.3334C11.8638 6.66667 12.3725 6.87738 12.7476 7.25245C13.1227 7.62753 13.3334 8.13624 13.3334 8.66667V12.6667Z" fill="#6D6E6F"/>
<path d="M8.00004 9.3335C7.82323 9.3335 7.65366 9.40374 7.52864 9.52876C7.40361 9.65378 7.33337 9.82335 7.33337 10.0002V11.3335C7.33337 11.5103 7.40361 11.6798 7.52864 11.8049C7.65366 11.93 7.82323 12.0002 8.00004 12.0002C8.17685 12.0002 8.34642 11.93 8.47144 11.8049C8.59647 11.6798 8.66671 11.5103 8.66671 11.3335V10.0002C8.66671 9.82335 8.59647 9.65378 8.47144 9.52876C8.34642 9.40374 8.17685 9.3335 8.00004 9.3335Z" fill="#6D6E6F"/>
</g>
</g>
<defs>
<clipPath id="clip0_1240_1201">
<rect width="16" height="16" fill="white"/>
</clipPath>
</defs>
</svg>
