<svg width="18" height="18" viewBox="0 0 18 18" fill="none" xmlns="http://www.w3.org/2000/svg">
<g id="Menu">
<g id="Group 125">
<path id="Vector" d="M1.95652 0C0.87763 0 0 0.877704 0 1.95655C0 3.0354 0.877266 3.91304 1.95652 3.91304C3.03578 3.91304 3.91304 3.0354 3.91304 1.95655C3.91304 0.877704 3.03535 0 1.95652 0Z" fill="#0B2E58"/>
<path id="Vector_2" d="M1.95652 7.04346C0.87763 7.04346 0 7.92116 0 9.00001C0 10.0789 0.877266 10.9565 1.95652 10.9565C3.03578 10.9565 3.91304 10.0789 3.91304 9.00001C3.91304 7.92116 3.03535 7.04346 1.95652 7.04346Z" fill="#0B2E58"/>
<path id="Vector_3" d="M1.95652 14.0869C0.87763 14.0869 0 14.9646 0 16.0435C0 17.1223 0.877266 18 1.95652 18C3.03578 18 3.91304 17.1223 3.91304 16.0435C3.91304 14.9646 3.03535 14.0869 1.95652 14.0869Z" fill="#0B2E58"/>
<path id="Vector_4" d="M8.99949 0C7.9206 0 7.04297 0.877704 7.04297 1.95655C7.04297 3.0354 7.92024 3.91304 8.99949 3.91304C10.0787 3.91304 10.956 3.0354 10.956 1.95655C10.956 0.877704 10.0783 0 8.99949 0Z" fill="#0B2E58"/>
<path id="Vector_5" d="M8.99949 7.04346C7.9206 7.04346 7.04297 7.92116 7.04297 9.00001C7.04297 10.0789 7.92024 10.9565 8.99949 10.9565C10.0787 10.9565 10.956 10.0789 10.956 9.00001C10.956 7.92116 10.0783 7.04346 8.99949 7.04346Z" fill="#0B2E58"/>
<path id="Vector_6" d="M8.99949 14.0869C7.9206 14.0869 7.04297 14.9646 7.04297 16.0435C7.04297 17.1223 7.92024 18 8.99949 18C10.0787 18 10.956 17.1223 10.956 16.0435C10.956 14.9646 10.0783 14.0869 8.99949 14.0869Z" fill="#0B2E58"/>
<path id="Vector_7" d="M16.0444 0C14.9655 0 14.0879 0.877704 14.0879 1.95655C14.0879 3.0354 14.9652 3.91304 16.0444 3.91304C17.1237 3.91304 18.0009 3.0354 18.0009 1.95655C18.0009 0.877704 17.1232 0 16.0444 0Z" fill="#0B2E58"/>
<path id="Vector_8" d="M16.0444 7.04346C14.9655 7.04346 14.0879 7.92116 14.0879 9.00001C14.0879 10.0789 14.9652 10.9565 16.0444 10.9565C17.1237 10.9565 18.0009 10.0789 18.0009 9.00001C18.0009 7.92116 17.1232 7.04346 16.0444 7.04346Z" fill="#0B2E58"/>
<path id="Vector_9" d="M16.0444 14.0869C14.9655 14.0869 14.0879 14.9646 14.0879 16.0435C14.0879 17.1223 14.9652 18 16.0444 18C17.1237 18 18.0009 17.1223 18.0009 16.0435C18.0009 14.9646 17.1232 14.0869 16.0444 14.0869Z" fill="#0B2E58"/>
</g>
</g>
</svg>
