<svg width="18" height="18" viewBox="0 0 18 18" fill="none" xmlns="http://www.w3.org/2000/svg">
<g id="Group 262">
<path id="Vector" d="M14.25 4.5V3C14.25 2.20435 13.9339 1.44129 13.3713 0.87868C12.8087 0.316071 12.0456 0 11.25 0L6.75 0C5.95435 0 5.19129 0.316071 4.62868 0.87868C4.06607 1.44129 3.75 2.20435 3.75 3V4.5C2.7558 4.50119 1.80267 4.89666 1.09966 5.59966C0.396661 6.30267 0.00119089 7.2558 0 8.25L0 12C0.00119089 12.9942 0.396661 13.9473 1.09966 14.6503C1.80267 15.3533 2.7558 15.7488 3.75 15.75C3.75 16.3467 3.98705 16.919 4.40901 17.341C4.83097 17.7629 5.40326 18 6 18H12C12.5967 18 13.169 17.7629 13.591 17.341C14.0129 16.919 14.25 16.3467 14.25 15.75C15.2442 15.7488 16.1973 15.3533 16.9003 14.6503C17.6033 13.9473 17.9988 12.9942 18 12V8.25C17.9988 7.2558 17.6033 6.30267 16.9003 5.59966C16.1973 4.89666 15.2442 4.50119 14.25 4.5ZM5.25 3C5.25 2.60218 5.40804 2.22064 5.68934 1.93934C5.97064 1.65804 6.35218 1.5 6.75 1.5H11.25C11.6478 1.5 12.0294 1.65804 12.3107 1.93934C12.592 2.22064 12.75 2.60218 12.75 3V4.5H5.25V3ZM12.75 15.75C12.75 15.9489 12.671 16.1397 12.5303 16.2803C12.3897 16.421 12.1989 16.5 12 16.5H6C5.80109 16.5 5.61032 16.421 5.46967 16.2803C5.32902 16.1397 5.25 15.9489 5.25 15.75V12.75C5.25 12.5511 5.32902 12.3603 5.46967 12.2197C5.61032 12.079 5.80109 12 6 12H12C12.1989 12 12.3897 12.079 12.5303 12.2197C12.671 12.3603 12.75 12.5511 12.75 12.75V15.75ZM16.5 12C16.5 12.5967 16.2629 13.169 15.841 13.591C15.419 14.0129 14.8467 14.25 14.25 14.25V12.75C14.25 12.1533 14.0129 11.581 13.591 11.159C13.169 10.7371 12.5967 10.5 12 10.5H6C5.40326 10.5 4.83097 10.7371 4.40901 11.159C3.98705 11.581 3.75 12.1533 3.75 12.75V14.25C3.15326 14.25 2.58097 14.0129 2.15901 13.591C1.73705 13.169 1.5 12.5967 1.5 12V8.25C1.5 7.65326 1.73705 7.08097 2.15901 6.65901C2.58097 6.23705 3.15326 6 3.75 6H14.25C14.8467 6 15.419 6.23705 15.841 6.65901C16.2629 7.08097 16.5 7.65326 16.5 8.25V12Z" fill="#6D6E6F"/>
<path id="Vector_2" d="M13.5 7.5H12C11.8011 7.5 11.6103 7.57902 11.4697 7.71967C11.329 7.86032 11.25 8.05109 11.25 8.25C11.25 8.44891 11.329 8.63968 11.4697 8.78033C11.6103 8.92098 11.8011 9 12 9H13.5C13.6989 9 13.8897 8.92098 14.0303 8.78033C14.171 8.63968 14.25 8.44891 14.25 8.25C14.25 8.05109 14.171 7.86032 14.0303 7.71967C13.8897 7.57902 13.6989 7.5 13.5 7.5Z" fill="#6D6E6F"/>
</g>
</svg>
