<svg width="16" height="16" viewBox="0 0 16 16" fill="none" xmlns="http://www.w3.org/2000/svg">
<g clip-path="url(#clip0_1906_936)">
<path fill-rule="evenodd" clip-rule="evenodd" d="M11.5818 16.135H4.63784C1.92999 16.135 0.110596 14.2346 0.110596 11.4063V4.86371C0.110596 2.03546 1.92999 0.13501 4.63784 0.13501H7.58019C7.90598 0.13501 8.17039 0.39942 8.17039 0.725212C8.17039 1.051 7.90598 1.31541 7.58019 1.31541H4.63784C2.6044 1.31541 1.291 2.70829 1.291 4.86371V11.4063C1.291 13.5617 2.6044 14.9546 4.63784 14.9546H11.5818C13.6152 14.9546 14.9294 13.5617 14.9294 11.4063V8.23653C14.9294 7.91074 15.1938 7.64633 15.5196 7.64633C15.8454 7.64633 16.1098 7.91074 16.1098 8.23653V11.4063C16.1098 14.2346 14.2896 16.135 11.5818 16.135Z" fill="#6D6E6F"/>
<path fill-rule="evenodd" clip-rule="evenodd" d="M12.2774 3.6169C12.5117 3.38258 12.8916 3.38258 13.1259 3.6169C13.3602 3.85121 13.3602 4.23111 13.1259 4.46543L10.4025 7.18887L13.126 9.91239C13.3603 10.1467 13.3603 10.5266 13.126 10.7609C12.8917 10.9952 12.5118 10.9952 12.2775 10.7609L9.55394 8.0374L6.83042 10.7609C6.5961 10.9952 6.2162 10.9952 5.98189 10.7609C5.74757 10.5266 5.74757 10.1467 5.98189 9.91239L8.70541 7.18887L5.98197 4.46543C5.74765 4.23111 5.74765 3.85121 5.98197 3.6169C6.21628 3.38258 6.59618 3.38258 6.8305 3.6169L9.55394 6.34034L12.2774 3.6169Z" fill="#6D6E6F"/>
</g>
<defs>
<clipPath id="clip0_1906_936">
<rect width="16" height="16" fill="white"/>
</clipPath>
</defs>
</svg>
