<svg width="70" height="70" viewBox="0 0 70 70" fill="none" xmlns="http://www.w3.org/2000/svg">
<path d="M61.5625 8.4375C62.1493 8.4375 62.625 7.9618 62.625 7.375C62.625 6.7882 62.1493 6.3125 61.5625 6.3125C60.9757 6.3125 60.5 6.7882 60.5 7.375C60.5 7.9618 60.9757 8.4375 61.5625 8.4375Z" fill="#DCDCDC" stroke="#DCDCDC"/>
<path d="M57.3125 8.4375C57.8993 8.4375 58.375 7.9618 58.375 7.375C58.375 6.7882 57.8993 6.3125 57.3125 6.3125C56.7257 6.3125 56.25 6.7882 56.25 7.375C56.25 7.9618 56.7257 8.4375 57.3125 8.4375Z" fill="#DCDCDC" stroke="#DCDCDC"/>
<path d="M53.0625 8.4375C53.6493 8.4375 54.125 7.9618 54.125 7.375C54.125 6.7882 53.6493 6.3125 53.0625 6.3125C52.4757 6.3125 52 6.7882 52 7.375C52 7.9618 52.4757 8.4375 53.0625 8.4375Z" fill="#DCDCDC" stroke="#DCDCDC"/>
<path d="M65.2812 1H4.71875C3.73248 1 2.7866 1.3918 2.0892 2.0892C1.3918 2.7866 1 3.73248 1 4.71875L1 65.2812C1 66.2675 1.3918 67.2134 2.0892 67.9108C2.7866 68.6082 3.73248 69 4.71875 69H65.2812C66.2675 69 67.2134 68.6082 67.9108 67.9108C68.6082 67.2134 69 66.2675 69 65.2812V4.71875C69 3.73248 68.6082 2.7866 67.9108 2.0892C67.2134 1.3918 66.2675 1 65.2812 1ZM4.71875 3.125H65.2812C65.7039 3.125 66.1093 3.29291 66.4082 3.5918C66.7071 3.89068 66.875 4.29606 66.875 4.71875V11.625H3.125V4.71875C3.125 4.29606 3.29291 3.89068 3.5918 3.5918C3.89068 3.29291 4.29606 3.125 4.71875 3.125ZM65.2812 66.875H4.71875C4.29606 66.875 3.89068 66.7071 3.5918 66.4082C3.29291 66.1093 3.125 65.7039 3.125 65.2812V13.75H66.875V65.2812C66.875 65.7039 66.7071 66.1093 66.4082 66.4082C66.1093 66.7071 65.7039 66.875 65.2812 66.875Z" fill="#DCDCDC" stroke="#DCDCDC"/>
<path d="M35.0546 45.7852C30.9002 45.7852 27.1283 47.5914 25.4389 50.407C25.348 50.5268 25.2835 50.6645 25.2498 50.8111C25.216 50.9577 25.2138 51.1097 25.2432 51.2572C25.2726 51.4047 25.3329 51.5443 25.4203 51.6667C25.5077 51.7892 25.62 51.8916 25.75 51.9674C25.8799 52.0432 26.0244 52.0905 26.174 52.1062C26.3236 52.1219 26.4748 52.1057 26.6176 52.0587C26.7605 52.0116 26.8917 51.9348 27.0026 51.8332C27.1136 51.7316 27.2017 51.6077 27.2611 51.4695C28.5733 49.2967 31.6333 47.8942 35.0546 47.8942C38.2792 47.8942 41.2649 49.1905 42.6621 51.1933C42.7381 51.3158 42.8383 51.4215 42.9565 51.5041C43.0747 51.5866 43.2084 51.6443 43.3496 51.6735C43.4908 51.7027 43.6365 51.7028 43.7777 51.6739C43.919 51.645 44.0529 51.5877 44.1713 51.5054C44.2897 51.4231 44.3901 51.3176 44.4664 51.1953C44.5427 51.0729 44.5933 50.9363 44.6151 50.7938C44.6369 50.6513 44.6295 50.5058 44.5933 50.3663C44.5571 50.2267 44.4929 50.096 44.4046 49.982C42.5983 47.4002 39.0124 45.7852 35.0546 45.7852Z" fill="#DCDCDC" stroke="#DCDCDC"/>
<path d="M26.8128 38.9333C27.0161 39.1074 27.2775 39.1983 27.5449 39.188C27.8123 39.1777 28.066 39.0668 28.2552 38.8776C28.4444 38.6884 28.5553 38.4347 28.5656 38.1673C28.5759 37.8999 28.485 37.6384 28.3109 37.4352L24.8153 33.9342L28.3109 30.4333C28.485 30.23 28.5759 29.9686 28.5656 29.7012C28.5553 29.4338 28.4444 29.1801 28.2552 28.9909C28.066 28.8017 27.8123 28.6908 27.5449 28.6805C27.2775 28.6702 27.0161 28.7611 26.8128 28.9352L23.3119 32.4308L19.8109 28.9352C19.6077 28.7611 19.3462 28.6702 19.0788 28.6805C18.8114 28.6908 18.5577 28.8017 18.3685 28.9909C18.1793 29.1801 18.0684 29.4338 18.0581 29.7012C18.0478 29.9686 18.1387 30.23 18.3128 30.4333L21.8084 33.9342L18.3128 37.4352C18.2016 37.5304 18.1112 37.6476 18.0475 37.7795C17.9837 37.9113 17.9478 38.0549 17.9422 38.2012C17.9365 38.3475 17.9612 38.4934 18.0146 38.6298C18.068 38.7661 18.1491 38.8899 18.2526 38.9935C18.3562 39.097 18.48 39.1781 18.6163 39.2315C18.7527 39.2849 18.8986 39.3095 19.0449 39.3039C19.1912 39.2982 19.3348 39.2624 19.4666 39.1986C19.5985 39.1349 19.7157 39.0445 19.8109 38.9333L23.3119 35.4377L26.8128 38.9333Z" fill="#DCDCDC" stroke="#DCDCDC"/>
<path d="M51.6859 28.9379C51.4869 28.74 51.2176 28.6289 50.9369 28.6289C50.6562 28.6289 50.3869 28.74 50.1878 28.9379L46.6869 32.4335L43.1859 28.9379C42.9827 28.7638 42.7212 28.6729 42.4538 28.6832C42.1864 28.6935 41.9327 28.8044 41.7435 28.9936C41.5543 29.1828 41.4434 29.4365 41.4331 29.7039C41.4228 29.9713 41.5137 30.2327 41.6878 30.436L45.1834 33.9369L41.6878 37.4379C41.5766 37.5331 41.4862 37.6503 41.4225 37.7822C41.3587 37.914 41.3228 38.0576 41.3172 38.2039C41.3115 38.3502 41.3362 38.4961 41.3896 38.6325C41.443 38.7688 41.5241 38.8926 41.6276 38.9962C41.7312 39.0997 41.855 39.1808 41.9913 39.2342C42.1277 39.2876 42.2736 39.3122 42.4199 39.3066C42.5662 39.3009 42.7098 39.2651 42.8416 39.2013C42.9735 39.1376 43.0907 39.0472 43.1859 38.936L46.6869 35.4404L50.1878 38.936C50.3911 39.1101 50.6525 39.201 50.9199 39.1907C51.1873 39.1804 51.441 39.0695 51.6302 38.8803C51.8194 38.6911 51.9303 38.4374 51.9406 38.17C51.9509 37.9026 51.86 37.6411 51.6859 37.4379L48.1903 33.9369L51.6859 30.436C51.8838 30.2369 51.9949 29.9676 51.9949 29.6869C51.9949 29.4062 51.8838 29.1369 51.6859 28.9379Z" fill="#DCDCDC" stroke="#DCDCDC"/>
</svg>
