<svg width="18" height="18" viewBox="0 0 18 18" fill="none" xmlns="http://www.w3.org/2000/svg">
<g clip-path="url(#clip0_1240_1167)">
<mask id="mask0_1240_1167" style="mask-type:luminance" maskUnits="userSpaceOnUse" x="0" y="0" width="18" height="18">
<path d="M18 0H0V18H18V0Z" fill="white"/>
</mask>
<g mask="url(#mask0_1240_1167)">
<path d="M16.9171 10.2467L15.4921 5.11975C15.0744 3.61775 14.1666 2.29847 12.9131 1.3716C11.6595 0.444746 10.1321 -0.0365041 8.57369 0.00435599C7.01523 0.045216 5.51515 0.605841 4.31189 1.59711C3.10863 2.58839 2.27124 3.95343 1.93284 5.47525L0.829591 10.4365C0.707727 10.9847 0.710545 11.5532 0.837835 12.1002C0.965126 12.6472 1.21364 13.1586 1.56503 13.5966C1.91642 14.0347 2.36171 14.3882 2.86802 14.6312C3.37434 14.8741 3.92876 15.0002 4.49034 15.0002H5.32584C5.49798 15.8479 5.95789 16.6101 6.62765 17.1575C7.29741 17.7049 8.13582 18.004 9.00084 18.004C9.86586 18.004 10.7043 17.7049 11.374 17.1575C12.0438 16.6101 12.5037 15.8479 12.6758 15.0002H13.3043C13.8825 15.0003 14.4527 14.8666 14.9707 14.6098C15.4886 14.3529 15.9401 13.9798 16.29 13.5196C16.6398 13.0594 16.8785 12.5245 16.9874 11.9567C17.0964 11.389 17.0718 10.8037 16.9171 10.2467ZM9.00084 16.5002C8.53715 16.4983 8.08537 16.3531 7.70732 16.0846C7.32927 15.8161 7.0434 15.4374 6.88884 15.0002H11.1128C10.9583 15.4374 10.6724 15.8161 10.2944 16.0846C9.91631 16.3531 9.46454 16.4983 9.00084 16.5002ZM15.0953 12.6115C14.8863 12.8887 14.6156 13.1134 14.3045 13.2677C13.9935 13.422 13.6508 13.5016 13.3036 13.5002H4.49034C4.15343 13.5002 3.82083 13.4244 3.5171 13.2786C3.21336 13.1329 2.94625 12.9207 2.73546 12.6579C2.52468 12.3951 2.37561 12.0882 2.29926 11.7601C2.22291 11.4319 2.22123 11.0908 2.29434 10.762L3.39684 5.8C3.66261 4.60466 4.32032 3.53245 5.26543 2.75384C6.21055 1.97522 7.38881 1.53488 8.61292 1.50281C9.83703 1.47074 11.0367 1.84879 12.0213 2.57685C13.0059 3.30492 13.7189 4.34121 14.0468 5.521L15.4718 10.648C15.566 10.982 15.581 11.3334 15.5156 11.6742C15.4503 12.015 15.3064 12.336 15.0953 12.6115Z" fill="#FFFFFF"/>
</g>
</g>
<defs>
<clipPath id="clip0_1240_1167">
<rect width="18" height="18" fill="white"/>
</clipPath>
</defs>
</svg>
