<svg width="16" height="16" viewBox="0 0 16 16"  xmlns="http://www.w3.org/2000/svg">
        <path d="M24.9749 12.4875C24.9749 19.3764 19.3764 24.9749 12.4875 24.9749C5.59855 24.9749 0 19.3764 0 12.4875C0 5.59855 5.59855 0 12.4875 0C13.2471 0 14.0172 0.0728436 14.756 0.208125C15.318 0.312187 15.6926 0.853311 15.5885 1.41525C15.4845 1.97718 14.9433 2.35181 14.3814 2.24774C13.7674 2.13328 13.1223 2.08125 12.4875 2.08125C6.75364 2.08125 2.08125 6.75364 2.08125 12.4875C2.08125 18.2213 6.75364 22.8937 12.4875 22.8937C18.2213 22.8937 22.8937 18.2213 22.8937 12.4875C22.8937 11.8527 22.8313 11.2179 22.7272 10.5935C22.6231 10.0316 22.9978 9.49048 23.5597 9.38642C24.132 9.28235 24.6628 9.65698 24.7668 10.2189C24.9021 10.9578 24.9749 11.7278 24.9749 12.4875ZM13.3824 6.30617C13.9547 6.38942 14.4751 5.99399 14.5583 5.42164C14.6416 4.8493 14.2461 4.32899 13.6738 4.24574C13.2783 4.19371 12.8829 4.16249 12.4875 4.16249C7.89833 4.16249 4.16249 7.89833 4.16249 12.4875C4.16249 17.0766 7.89833 20.8125 12.4875 20.8125C17.0766 20.8125 20.8125 17.0766 20.8125 12.4875C20.8125 12.092 20.7812 11.6966 20.7292 11.3012C20.646 10.7288 20.1256 10.3334 19.5533 10.4166C18.981 10.4999 18.5855 11.0202 18.6688 11.5925C18.7104 11.8839 18.7312 12.1857 18.7312 12.4875C18.7312 15.9319 15.9319 18.7312 12.4875 18.7312C9.04301 18.7312 6.24374 15.9319 6.24374 12.4875C6.24374 9.04301 9.04301 6.24374 12.4875 6.24374C12.7893 6.24374 13.091 6.26455 13.3824 6.30617ZM11.1867 9.46967C10.8017 9.04301 10.1461 9.00139 9.71941 9.38642C8.83489 10.1773 8.33539 11.3116 8.33539 12.4875C8.33539 14.7872 10.1981 16.65 12.4979 16.65C13.6842 16.65 14.8081 16.1401 15.5989 15.2659C15.984 14.8393 15.9423 14.1837 15.5157 13.7987C15.089 13.4136 14.4334 13.4553 14.0484 13.8819C13.653 14.319 13.091 14.5791 12.4979 14.5791C11.3532 14.5791 10.4166 13.6426 10.4166 12.4979C10.4166 11.9047 10.6664 11.3428 11.1138 10.9474C11.5405 10.5623 11.5821 9.90673 11.1971 9.48007L11.1867 9.46967ZM12.7997 10.7184C12.3938 11.1243 12.3938 11.7798 12.7997 12.1857C13.0078 12.3938 13.2679 12.4875 13.5385 12.4875C13.8091 12.4875 14.0692 12.3834 14.2773 12.1857L19.1787 7.28436H21.8739C22.1549 7.28436 22.415 7.16989 22.6127 6.98258L24.694 4.90133C24.9958 4.59955 25.079 4.15208 24.9229 3.76705C24.7668 3.38202 24.3818 3.12187 23.9655 3.12187H21.8843V1.04062C21.8843 0.624374 21.6345 0.239343 21.2391 0.0832498C20.8437 -0.0832498 20.4066 0.0104062 20.1048 0.312187L18.0236 2.39343C17.8259 2.59115 17.7218 2.85131 17.7218 3.13227V5.82749L12.8205 10.7288L12.7997 10.7184Z" />
</svg>