<svg width="20" height="20" viewBox="0 0 20 20" fill="none" xmlns="http://www.w3.org/2000/svg">
<g id="plug-cable 1" clip-path="url(#clip0_1465_1703)">
<path id="Vector" d="M19.1667 8.33333H17.5C15.2025 8.33333 13.3333 10.2025 13.3333 12.5V15C13.3333 16.8383 11.8383 18.3333 10 18.3333C8.16167 18.3333 6.66667 16.8383 6.66667 15V12.43C9.02833 12.0325 10.8333 9.97333 10.8333 7.5V5.83333C11.2942 5.83333 11.6667 5.46083 11.6667 5C11.6667 4.53917 11.2942 4.16667 10.8333 4.16667H9.16667V0.833333C9.16667 0.3725 8.79417 0 8.33333 0C7.8725 0 7.5 0.3725 7.5 0.833333V4.16667H4.16667V0.833333C4.16667 0.3725 3.79417 0 3.33333 0C2.8725 0 2.5 0.3725 2.5 0.833333V4.16667H0.833333C0.3725 4.16667 0 4.53917 0 5C0 5.46083 0.3725 5.83333 0.833333 5.83333V7.5C0.833333 9.97333 2.63833 12.0325 5 12.43V15C5 17.7575 7.2425 20 10 20C12.7575 20 15 17.7575 15 15V12.5C15 11.1217 16.1217 10 17.5 10H19.1667C19.6275 10 20 9.6275 20 9.16667C20 8.70583 19.6275 8.33333 19.1667 8.33333ZM2.5 7.5V5.83333H9.16667V7.5C9.16667 9.33833 7.67167 10.8333 5.83333 10.8333C3.995 10.8333 2.5 9.33833 2.5 7.5Z" fill="#6D6E6F"/>
</g>
<defs>
<clipPath id="clip0_1465_1703">
<rect width="20" height="20" fill="white"/>
</clipPath>
</defs>
</svg>
