<svg width="11" height="11" viewBox="0 0 11 11" fill="none" xmlns="http://www.w3.org/2000/svg">
<g clip-path="url(#clip0_2724_1264)">
<path d="M10.3125 4.8125H6.1875V0.6875C6.1875 0.307807 5.87969 0 5.5 0C5.12031 0 4.8125 0.307807 4.8125 0.6875V4.8125H0.6875C0.307807 4.8125 0 5.12031 0 5.5C0 5.87969 0.307807 6.1875 0.6875 6.1875H4.8125V10.3125C4.8125 10.6922 5.12031 11 5.5 11C5.87969 11 6.1875 10.6922 6.1875 10.3125V6.1875H10.3125C10.6922 6.1875 11 5.87969 11 5.5C11 5.12031 10.6922 4.8125 10.3125 4.8125Z" fill="#6D6E6F"/>
</g>
<defs>
<clipPath id="clip0_2724_1264">
<rect width="11" height="11" fill="white"/>
</clipPath>
</defs>
</svg>
