<svg width="16" height="16" viewBox="0 0 16 16" fill="none" xmlns="http://www.w3.org/2000/svg">
<path d="M12.9057 2.22285H11.4897V1.58937C11.4897 1.38441 11.2661 1.29126 11.0611 1.29126H9.96187C9.70103 0.545969 9.04889 0.173326 8.30361 0.173326C7.56652 0.145615 6.89609 0.597574 6.64534 1.29126H5.56468C5.35972 1.29126 5.15477 1.38441 5.15477 1.58937V2.22285H3.73869C2.89954 2.2318 2.21303 2.89378 2.17358 3.73204V14.4083C2.17358 15.2281 2.91887 15.8243 3.73869 15.8243H12.9057C13.7255 15.8243 14.4708 15.2281 14.4708 14.4083V3.73208C14.4314 2.89378 13.7449 2.2318 12.9057 2.22285ZM5.90002 2.03654H6.9248C7.10369 2.01472 7.24737 1.87863 7.27883 1.70117C7.38917 1.22064 7.81074 0.87571 8.30361 0.862729C8.79191 0.877529 9.20713 1.22353 9.30973 1.70117C9.34315 1.88476 9.49632 2.0226 9.68238 2.03654H10.7444V3.52712H5.90002V2.03654ZM13.7255 14.4083C13.7255 14.8182 13.3156 15.079 12.9057 15.079H3.73869C3.32878 15.079 2.91887 14.8182 2.91887 14.4083V3.73208C2.95689 3.3054 3.31038 2.97598 3.73869 2.96817H5.15473V3.91842C5.17442 4.12719 5.35523 4.28336 5.56465 4.27244H11.0611C11.2744 4.2841 11.4609 4.13008 11.4896 3.91842V2.96814H12.9057C13.334 2.97598 13.6875 3.30537 13.7255 3.73204V14.4083H13.7255Z" fill="#6D6E6F"/>
<path fill-rule="evenodd" clip-rule="evenodd" d="M8.30718 0.00120956C9.07335 0.00225173 9.76735 0.371823 10.0816 1.11914H11.0615C11.1866 1.11914 11.3268 1.14695 11.4421 1.21612C11.5624 1.28832 11.6639 1.41329 11.6639 1.59116V2.05073H12.9079C13.8392 2.06066 14.6011 2.79534 14.6449 3.7257L14.6453 3.73387L14.6451 14.41C14.6451 15.3477 13.7986 16 12.906 16H3.73902C2.84649 16 2 15.3477 2 14.41V3.72565C2.04378 2.79533 2.80587 2.06067 3.73717 2.05074L3.73902 2.05072L4.98118 2.05073V1.59116C4.98118 1.41999 5.07112 1.29406 5.18983 1.21852C5.30215 1.14705 5.43973 1.11914 5.56501 1.11914H6.52793C6.83366 0.420682 7.53719 -0.0263954 8.30718 0.00120956ZM8.2974 0.348912C7.63592 0.324043 7.03425 0.729645 6.80923 1.35217L6.76773 1.46697H5.56501C5.48533 1.46697 5.41796 1.48563 5.37656 1.51197C5.34155 1.53425 5.32901 1.55738 5.32901 1.59116V2.39856H3.73999C2.99471 2.40697 2.3849 2.99401 2.34783 3.73804V14.41C2.34783 15.112 2.99191 15.6522 3.73902 15.6522H12.906C13.6532 15.6522 14.2972 15.112 14.2972 14.41V3.73807C14.2602 2.99401 13.6504 2.40697 12.9051 2.39856H11.3161V1.59116C11.3161 1.56407 11.3058 1.53999 11.2631 1.51438C11.2154 1.48573 11.1414 1.46697 11.0615 1.46697H9.83881L9.79805 1.3505C9.56563 0.686434 8.98824 0.349034 8.30393 0.349034L8.2974 0.348912ZM8.3092 0.690691C8.87746 0.707914 9.36069 1.11058 9.4801 1.66644L9.48125 1.67181C9.50015 1.77567 9.58553 1.8541 9.6901 1.86443H10.9187V3.70283H5.72644V1.86443H6.91311C7.01189 1.8485 7.09034 1.77176 7.10791 1.67261L7.10944 1.66399C7.23754 1.10614 7.72717 0.705742 8.29936 0.690671L8.3092 0.690691ZM7.44952 1.73818C7.40296 1.98856 7.19931 2.18009 6.94619 2.21097L6.9357 2.21225H6.07426V3.355H10.5708V2.21225H9.6762L9.66971 2.21177C9.40573 2.19198 9.18824 1.9971 9.13952 1.73715C9.05322 1.34055 8.70899 1.05303 8.30359 1.03852C7.89343 1.05153 7.54304 1.33852 7.44952 1.73818ZM11.3161 2.79602H12.9092C13.4263 2.80549 13.8532 3.20322 13.8991 3.7184L13.8997 3.7261V14.2362L13.8998 14.4101C13.8998 14.6791 13.7635 14.8947 13.5747 15.0378C13.3882 15.1791 13.1456 15.2547 12.906 15.2547H3.73902C3.49949 15.2547 3.25687 15.1791 3.07038 15.0378C2.88154 14.8947 2.74529 14.6791 2.74529 14.4101V3.72614L2.74597 3.71844C2.79187 3.20327 3.21869 2.80551 3.73585 2.79608L3.73902 2.79602L5.32898 2.79605V3.91085C5.34319 4.02331 5.44194 4.1065 5.55592 4.10056L5.56497 4.10009L11.071 4.10032C11.1903 4.10685 11.2951 4.02346 11.3161 3.90683V2.79602ZM13.5519 14.4156V3.74202C13.5185 3.40788 13.2407 3.15076 12.9043 3.14384H11.6639V3.93198L11.6623 3.94364C11.6215 4.24342 11.3587 4.46202 11.0571 4.44815H5.5691C5.26869 4.46123 5.0102 4.23646 4.98192 3.93654L4.98115 3.92839V3.14388H3.74069C3.40434 3.15076 3.12653 3.40789 3.09311 3.74205V14.4101C3.09311 14.551 3.16182 14.6707 3.28041 14.7605C3.40135 14.8522 3.56865 14.9069 3.73902 14.9069H12.906C13.0764 14.9069 13.2437 14.8522 13.3647 14.7605C13.4817 14.6719 13.5501 14.5541 13.5519 14.4156Z" fill="#6D6E6F"/>
<path d="M6.88676 8.50607C6.74699 8.35874 6.51497 8.35043 6.36504 8.48745L5.17258 9.624L4.66951 9.10228C4.52975 8.95496 4.29772 8.94669 4.1478 9.08367C4.00347 9.23488 4.00347 9.47279 4.1478 9.624L4.9117 10.4066C4.97782 10.4806 5.07333 10.5215 5.17254 10.5184C5.27083 10.517 5.36459 10.4768 5.43338 10.4066L6.88669 9.02778C7.03077 8.89562 7.04039 8.67165 6.90819 8.52761C6.90142 8.52008 6.89425 8.51292 6.88676 8.50607Z" fill="#6D6E6F"/>
<path fill-rule="evenodd" clip-rule="evenodd" d="M7.00976 8.38058C6.80434 8.16876 6.46719 8.1581 6.24878 8.35769L5.17881 9.37743L4.79621 8.98065C4.59115 8.76509 4.25125 8.75317 4.03155 8.9539L4.02305 8.96221C3.81458 9.18062 3.81458 9.52428 4.02305 9.7427L4.7859 10.5242C4.88584 10.6342 5.02892 10.6952 5.17761 10.6909C5.32007 10.6884 5.45592 10.6305 5.55623 10.5294L7.00649 9.15348C7.22024 8.95623 7.23418 8.62306 7.03738 8.40863L6.90925 8.52623L7.03849 8.40985C7.02912 8.39945 7.0195 8.38971 7.00976 8.38058ZM6.48457 8.61342L5.16846 9.86781L4.5444 9.2206C4.47123 9.14348 4.35062 9.1378 4.27057 9.20677C4.19469 9.29073 4.19586 9.41936 4.27409 9.50194L5.04261 10.2892C5.07444 10.3249 5.12028 10.3447 5.16804 10.3432L5.17114 10.3431C5.22353 10.3423 5.27352 10.3209 5.31021 10.2835L5.31467 10.2789L6.77017 8.89823C6.84346 8.831 6.84837 8.71709 6.78113 8.64383L6.78001 8.64261C6.77729 8.63959 6.77414 8.6364 6.77047 8.63304L6.76591 8.62887L6.76165 8.62438C6.68746 8.54618 6.56455 8.54144 6.48457 8.61342Z" fill="#6D6E6F"/>
<path d="M12.2354 9.30347H7.95004C7.74422 9.30347 7.57739 9.4703 7.57739 9.67611C7.57739 9.88192 7.74422 10.0488 7.95004 10.0488H12.2354C12.4412 10.0488 12.6081 9.88192 12.6081 9.67611C12.6081 9.4703 12.4412 9.30347 12.2354 9.30347Z" fill="#6D6E6F"/>
<path fill-rule="evenodd" clip-rule="evenodd" d="M7.40454 9.67791C7.40454 9.37604 7.64924 9.13135 7.9511 9.13135H12.2365C12.5383 9.13135 12.783 9.37604 12.783 9.67791C12.783 9.97977 12.5383 10.2245 12.2365 10.2245H7.9511C7.64924 10.2245 7.40454 9.97977 7.40454 9.67791ZM7.9511 9.47917C7.84134 9.47917 7.75237 9.56814 7.75237 9.67791C7.75237 9.78767 7.84134 9.87664 7.9511 9.87664H12.2365C12.3462 9.87664 12.4352 9.78767 12.4352 9.67791C12.4352 9.56814 12.3462 9.47917 12.2365 9.47917H7.9511Z" fill="#6D6E6F"/>
<path d="M6.88676 5.52145C6.74699 5.37412 6.51497 5.36581 6.36504 5.50283L5.17258 6.63938L4.66951 6.11766C4.52975 5.97034 4.29772 5.96203 4.1478 6.09905C4.00347 6.25026 4.00347 6.48817 4.1478 6.63938L4.9117 7.42194C4.97782 7.49597 5.07333 7.53691 5.17254 7.53374C5.27083 7.53235 5.36459 7.49216 5.43338 7.42194L6.88669 6.04316C7.03077 5.911 7.04039 5.68703 6.90819 5.54299C6.90142 5.53546 6.89425 5.5283 6.88676 5.52145Z" fill="#6D6E6F"/>
<path fill-rule="evenodd" clip-rule="evenodd" d="M7.00976 5.40084C6.80434 5.18903 6.46719 5.17836 6.24878 5.37796L5.17881 6.3977L4.79621 6.00091C4.59117 5.78538 4.25126 5.77337 4.03154 5.97417L4.02305 5.98247C3.81458 6.20089 3.81458 6.54455 4.02305 6.76296L4.7859 7.54445C4.88584 7.65449 5.02892 7.71542 5.17761 7.71112C5.32007 7.7087 5.45592 7.65072 5.55623 7.54963L7.00649 6.17375C7.22024 5.9765 7.23419 5.64332 7.03738 5.4289L6.90925 5.54649L7.03849 5.43012C7.02912 5.41971 7.0195 5.40997 7.00976 5.40084ZM6.48457 5.63368L5.16846 6.88807L4.5444 6.24087C4.47121 6.16372 4.3506 6.15806 4.27058 6.22703C4.19469 6.31099 4.19586 6.43962 4.27409 6.5222L5.04261 7.30948C5.07444 7.34513 5.12028 7.36495 5.16804 7.36342L5.17114 7.36332C5.22353 7.36258 5.27352 7.34118 5.31021 7.30373L5.31467 7.29919L6.77017 5.91849C6.84346 5.85126 6.84837 5.73736 6.78113 5.66409L6.78001 5.66287C6.77729 5.65986 6.77414 5.65666 6.77047 5.65331L6.76591 5.64913L6.76165 5.64465C6.68746 5.56645 6.56455 5.5617 6.48457 5.63368Z" fill="#6D6E6F"/>
<path d="M12.2354 6.32349H7.95004C7.74422 6.32349 7.57739 6.49032 7.57739 6.69613C7.57739 6.90194 7.74422 7.06877 7.95004 7.06877H12.2354C12.4412 7.06877 12.6081 6.90194 12.6081 6.69613C12.6081 6.49032 12.4412 6.32349 12.2354 6.32349Z" fill="#6D6E6F"/>
<path fill-rule="evenodd" clip-rule="evenodd" d="M7.40454 6.69499C7.40454 6.39313 7.64924 6.14844 7.9511 6.14844H12.2365C12.5383 6.14844 12.783 6.39313 12.783 6.69499C12.783 6.99686 12.5383 7.24155 12.2365 7.24155H7.9511C7.64924 7.24155 7.40454 6.99686 7.40454 6.69499ZM7.9511 6.49626C7.84134 6.49626 7.75237 6.58523 7.75237 6.69499C7.75237 6.80476 7.84134 6.89372 7.9511 6.89372H12.2365C12.3462 6.89372 12.4352 6.80476 12.4352 6.69499C12.4352 6.58523 12.3462 6.49626 12.2365 6.49626H7.9511Z" fill="#6D6E6F"/>
<path d="M6.88676 11.4816C6.74699 11.3343 6.51497 11.326 6.36504 11.463L5.17258 12.5996L4.66951 12.0779C4.52975 11.9305 4.29772 11.9223 4.1478 12.0592C4.00347 12.2105 4.00347 12.4484 4.1478 12.5996L4.9117 13.3821C4.97782 13.4562 5.07333 13.4971 5.17254 13.4939C5.27083 13.4925 5.36459 13.4523 5.43338 13.3821L6.88669 12.0034C7.03077 11.8712 7.04039 11.6472 6.90819 11.5032C6.90142 11.4957 6.89425 11.4885 6.88676 11.4816Z" fill="#6D6E6F"/>
<path fill-rule="evenodd" clip-rule="evenodd" d="M7.00989 11.358C6.80447 11.146 6.46722 11.1354 6.2488 11.335L5.17881 12.3547L4.79621 11.9579C4.59115 11.7424 4.25125 11.7304 4.03155 11.9312L4.02305 11.9395C3.81458 12.1579 3.81458 12.5016 4.02305 12.72L4.7859 13.5015C4.88584 13.6115 5.02892 13.6724 5.17761 13.6681C5.32007 13.6657 5.45592 13.6077 5.55623 13.5066L7.00649 12.1308C7.22009 11.9336 7.23416 11.6008 7.03779 11.3864C7.02867 11.3763 7.01932 11.3669 7.00989 11.358ZM6.48456 11.5907L5.16846 12.8451L4.5444 12.1979C4.47123 12.1208 4.35062 12.1151 4.27057 12.1841C4.19469 12.268 4.19586 12.3966 4.27409 12.4792L5.04261 13.2665C5.07444 13.3021 5.12028 13.322 5.16804 13.3204L5.17114 13.3203C5.22353 13.3196 5.27352 13.2982 5.31021 13.2607L5.31467 13.2562L6.77017 11.8755C6.84346 11.8083 6.84837 11.6944 6.78113 11.6211L6.78029 11.6202C6.7774 11.617 6.77405 11.6136 6.77014 11.61L6.76135 11.6019C6.68719 11.5238 6.56456 11.5187 6.48456 11.5907Z" fill="#6D6E6F"/>
<path d="M12.2354 12.2896H7.95004C7.74422 12.2896 7.57739 12.4564 7.57739 12.6622C7.57739 12.868 7.74422 13.0348 7.95004 13.0348H12.2354C12.4412 13.0348 12.6081 12.868 12.6081 12.6622C12.6081 12.4564 12.4412 12.2896 12.2354 12.2896Z" fill="#6D6E6F"/>
<path fill-rule="evenodd" clip-rule="evenodd" d="M7.40454 12.6567C7.40454 12.3548 7.64924 12.1101 7.9511 12.1101H12.2365C12.5383 12.1101 12.783 12.3548 12.783 12.6567C12.783 12.9585 12.5383 13.2032 12.2365 13.2032H7.9511C7.64924 13.2032 7.40454 12.9585 7.40454 12.6567ZM7.9511 12.4579C7.84134 12.4579 7.75237 12.5469 7.75237 12.6567C7.75237 12.7664 7.84134 12.8554 7.9511 12.8554H12.2365C12.3462 12.8554 12.4352 12.7664 12.4352 12.6567C12.4352 12.5469 12.3462 12.4579 12.2365 12.4579H7.9511Z" fill="#6D6E6F"/>
</svg>
