<svg class="svg-icon" style="width: 16px;height: 16px;vertical-align: middle;fill: currentColor;overflow: hidden;" viewBox="0 0 1025 1024" version="1.1" xmlns="http://www.w3.org/2000/svg"><path d="M1011.626667 1010.602667a42.666667 42.666667 0 0 1-60.586667 0.341333l-328.106667-326.784a381.568 381.568 0 1 1 61.44-61.056l327.68 326.912a42.666667 42.666667 0 0 1-0.426666 60.586667zM384 85.333333a298.666667 298.666667 0 1 0 298.666667 298.666667 298.666667 298.666667 0 0 0-298.666667-298.666667z m128 341.333334h-85.333333v85.333333a42.666667 42.666667 0 0 1-85.333334 0v-85.333333H256a42.666667 42.666667 0 0 1 0-85.333334h85.333333V256a42.666667 42.666667 0 0 1 85.333334 0v85.333333h85.333333a42.666667 42.666667 0 0 1 0 85.333334z" fill="#101010" /></svg>