<svg width="16" height="16" viewBox="0 0 16 16" fill="none" xmlns="http://www.w3.org/2000/svg">
<g clip-path="url(#clip0_1679_1941)">
<path d="M8.00005 1.33352C8.88439 1.33642 9.75938 1.51468 10.5744 1.85797C11.3894 2.20127 12.1282 2.7028 12.7481 3.33352H10.6667C10.4899 3.33352 10.3203 3.40376 10.1953 3.52878C10.0703 3.6538 10.0001 3.82337 10.0001 4.00018C10.0001 4.177 10.0703 4.34656 10.1953 4.47159C10.3203 4.59661 10.4899 4.66685 10.6667 4.66685H13.4287C13.757 4.66667 14.0718 4.53619 14.3039 4.30405C14.5361 4.07192 14.6665 3.75713 14.6667 3.42885V0.666851C14.6667 0.49004 14.5965 0.32047 14.4715 0.195446C14.3464 0.0704219 14.1769 0.000183976 14.0001 0.000183976C13.8232 0.000183976 13.6537 0.0704219 13.5286 0.195446C13.4036 0.32047 13.3334 0.49004 13.3334 0.666851V2.05218C12.2315 1.05982 10.8751 0.39379 9.41612 0.128683C7.95713 -0.136424 6.45314 0.00985861 5.07258 0.551149C3.69202 1.09244 2.4894 2.00736 1.59939 3.19347C0.709392 4.37957 0.167148 5.79001 0.033387 7.26685C0.0247759 7.35969 0.0355975 7.4533 0.0651622 7.54173C0.094727 7.63015 0.142387 7.71145 0.205105 7.78044C0.267822 7.84943 0.344223 7.9046 0.429439 7.94243C0.514655 7.98027 0.606817 7.99993 0.700054 8.00018C0.863112 8.00226 1.02108 7.94341 1.14303 7.83515C1.26498 7.72688 1.34213 7.57701 1.35939 7.41485C1.5078 5.75535 2.27137 4.21132 3.50011 3.08608C4.72885 1.96083 6.33393 1.33571 8.00005 1.33352Z" fill="#6D6E6F"/>
<path d="M15.3003 8.00005C15.1373 7.99798 14.9793 8.05683 14.8574 8.16509C14.7354 8.27335 14.6583 8.42323 14.641 8.58539C14.5308 9.85421 14.059 11.0648 13.2814 12.0735C12.5039 13.0822 11.4534 13.8468 10.2544 14.2764C9.0555 14.7061 7.75847 14.7828 6.51724 14.4975C5.27601 14.2121 4.14267 13.5768 3.25167 12.6667H5.33301C5.50982 12.6667 5.67939 12.5965 5.80441 12.4715C5.92944 12.3464 5.99967 12.1769 5.99967 12.0001C5.99967 11.8232 5.92944 11.6537 5.80441 11.5286C5.67939 11.4036 5.50982 11.3334 5.33301 11.3334H2.57101C2.40841 11.3333 2.24738 11.3653 2.09714 11.4274C1.9469 11.4896 1.81039 11.5808 1.69541 11.6958C1.58044 11.8108 1.48925 11.9473 1.42707 12.0975C1.36488 12.2478 1.33292 12.4088 1.33301 12.5714V15.3334C1.33301 15.5102 1.40325 15.6798 1.52827 15.8048C1.65329 15.9298 1.82286 16.0001 1.99967 16.0001C2.17649 16.0001 2.34606 15.9298 2.47108 15.8048C2.5961 15.6798 2.66634 15.5102 2.66634 15.3334V13.9481C3.76823 14.9404 5.12462 15.6064 6.58361 15.8716C8.0426 16.1367 9.54659 15.9904 10.9272 15.4491C12.3077 14.9078 13.5103 13.9929 14.4003 12.8068C15.2903 11.6207 15.8326 10.2102 15.9663 8.73339C15.975 8.64055 15.9641 8.54693 15.9346 8.45851C15.905 8.37008 15.8573 8.28879 15.7946 8.2198C15.7319 8.15081 15.6555 8.09564 15.5703 8.0578C15.4851 8.01997 15.3936 8.0003 15.3003 8.00005Z" fill="#6D6E6F"/>
</g>
<defs>
<clipPath id="clip0_1679_1941">
<rect width="16" height="16" fill="white"/>
</clipPath>
</defs>
</svg>
