<svg width="12" height="13" viewBox="0 0 12 13" fill="none" xmlns="http://www.w3.org/2000/svg">
<path d="M4.66675 5.00016H1.33341C0.933415 5.00016 0.666748 4.7335 0.666748 4.3335V1.00016C0.666748 0.600163 0.933415 0.333496 1.33341 0.333496C1.73341 0.333496 2.00008 0.600163 2.00008 1.00016V3.66683H4.66675C5.06675 3.66683 5.33341 3.9335 5.33341 4.3335C5.33341 4.7335 5.06675 5.00016 4.66675 5.00016Z" fill="#6D6E6F"/>
<path d="M5.99997 13.0001C5.26663 13.0001 4.5333 12.8668 3.86663 12.6001C2.66663 12.1335 1.66663 11.3335 0.933301 10.2668C0.733301 9.93346 0.799967 9.53346 1.1333 9.33346C1.46663 9.13346 1.86663 9.20013 2.06663 9.53346C2.59997 10.3335 3.39997 11.0001 4.3333 11.3335C5.26663 11.6668 6.26663 11.7335 7.26663 11.4668C8.19997 11.2001 9.06663 10.6001 9.66663 9.80013C10.2666 9.00013 10.6 8.0668 10.6666 7.0668C10.6666 6.0668 10.4 5.0668 9.79997 4.2668C9.19997 3.4668 8.39997 2.8668 7.46663 2.53346C6.5333 2.20013 5.5333 2.20013 4.5333 2.53346C3.59997 2.8668 2.79997 3.4668 2.19997 4.2668C1.99997 4.60013 1.59997 4.6668 1.26663 4.4668C0.933301 4.2668 0.866634 3.80013 1.1333 3.53346C1.86663 2.4668 2.9333 1.6668 4.1333 1.2668C5.3333 0.866797 6.66663 0.866797 7.86663 1.2668C9.06663 1.6668 10.1333 2.4668 10.8666 3.53346C11.6 4.60013 12 5.80013 11.9333 7.13346C11.9333 8.40013 11.4666 9.6668 10.6666 10.6668C9.86663 11.6668 8.79997 12.4001 7.5333 12.8001C7.1333 12.9335 6.5333 13.0001 5.99997 13.0001Z" fill="#6D6E6F"/>
</svg>
