<svg width="16" height="16" viewBox="0 0 16 16" fill="none" xmlns="http://www.w3.org/2000/svg">
<g clip-path="url(#clip0_2053_1213)">
<path d="M8 0.8125V2.375" stroke="#6D6E6F" stroke-miterlimit="10" stroke-linecap="round" stroke-linejoin="round"/>
<path d="M8 15.1875V13.625" stroke="#6D6E6F" stroke-miterlimit="10" stroke-linecap="round" stroke-linejoin="round"/>
<path d="M0.8125 8H2.375" stroke="#6D6E6F" stroke-miterlimit="10" stroke-linecap="round" stroke-linejoin="round"/>
<path d="M15.1875 8H13.625" stroke="#6D6E6F" stroke-miterlimit="10" stroke-linecap="round" stroke-linejoin="round"/>
<path d="M1.71875 2.96875C2.40911 2.96875 2.96875 2.40911 2.96875 1.71875C2.96875 1.02839 2.40911 0.46875 1.71875 0.46875C1.02839 0.46875 0.46875 1.02839 0.46875 1.71875C0.46875 2.40911 1.02839 2.96875 1.71875 2.96875Z" stroke="#6D6E6F" stroke-miterlimit="10" stroke-linecap="round" stroke-linejoin="round"/>
<path d="M14.2812 15.5312C14.9716 15.5312 15.5312 14.9716 15.5312 14.2812C15.5312 13.5909 14.9716 13.0312 14.2812 13.0312C13.5909 13.0312 13.0312 13.5909 13.0312 14.2812C13.0312 14.9716 13.5909 15.5312 14.2812 15.5312Z" stroke="#6D6E6F" stroke-miterlimit="10" stroke-linecap="round" stroke-linejoin="round"/>
<path d="M14.2812 2.96875C14.9716 2.96875 15.5312 2.40911 15.5312 1.71875C15.5312 1.02839 14.9716 0.46875 14.2812 0.46875C13.5909 0.46875 13.0312 1.02839 13.0312 1.71875C13.0312 2.40911 13.5909 2.96875 14.2812 2.96875Z" stroke="#6D6E6F" stroke-miterlimit="10" stroke-linecap="round" stroke-linejoin="round"/>
<path d="M1.71875 15.5312C2.40911 15.5312 2.96875 14.9716 2.96875 14.2812C2.96875 13.5909 2.40911 13.0312 1.71875 13.0312C1.02839 13.0312 0.46875 13.5909 0.46875 14.2812C0.46875 14.9716 1.02839 15.5312 1.71875 15.5312Z" stroke="#6D6E6F" stroke-miterlimit="10" stroke-linecap="round" stroke-linejoin="round"/>
<path d="M8 13.625C11.1066 13.625 13.625 11.1066 13.625 8C13.625 4.8934 11.1066 2.375 8 2.375C4.8934 2.375 2.375 4.8934 2.375 8C2.375 11.1066 4.8934 13.625 8 13.625Z" stroke="#6D6E6F" stroke-miterlimit="10" stroke-linecap="round" stroke-linejoin="round"/>
<path d="M2.60254 2.60254L4.02245 4.02245" stroke="#6D6E6F" stroke-miterlimit="10" stroke-linecap="round" stroke-linejoin="round"/>
<path d="M11.9775 11.9775L13.3974 13.3974" stroke="#6D6E6F" stroke-miterlimit="10" stroke-linecap="round" stroke-linejoin="round"/>
<path d="M11.9775 4.02245L13.3974 2.60254" stroke="#6D6E6F" stroke-miterlimit="10" stroke-linecap="round" stroke-linejoin="round"/>
<path d="M4.02245 11.9775L2.60254 13.3974" stroke="#6D6E6F" stroke-miterlimit="10" stroke-linecap="round" stroke-linejoin="round"/>
<path d="M8 8.625C7.13706 8.625 6.4375 7.92544 6.4375 7.0625V6.125C6.4375 5.26206 7.13706 4.5625 8 4.5625C8.86294 4.5625 9.5625 5.26206 9.5625 6.125V7.0625C9.5625 7.92544 8.86294 8.625 8 8.625Z" stroke="#6D6E6F" stroke-miterlimit="10" stroke-linecap="round" stroke-linejoin="round"/>
<path d="M11.125 12.6765V11.75C11.125 10.0241 9.72591 8.625 8 8.625C6.27412 8.625 4.875 10.0241 4.875 11.75V12.6765" stroke="#6D6E6F" stroke-miterlimit="10" stroke-linecap="round" stroke-linejoin="round"/>
</g>
<defs>
<clipPath id="clip0_2053_1213">
<rect width="16" height="16" fill="white"/>
</clipPath>
</defs>
</svg>
