<svg width="16" height="16" viewBox="0 0 16 16" fill="none" xmlns="http://www.w3.org/2000/svg">
<g clip-path="url(#clip0_1273_937)">
<path d="M8 8C10.206 8 12 6.206 12 4C12 1.794 10.206 0 8 0C5.794 0 4 1.794 4 4C4 6.206 5.794 8 8 8ZM8 1.33333C9.47067 1.33333 10.6667 2.52933 10.6667 4C10.6667 5.47067 9.47067 6.66667 8 6.66667C6.52933 6.66667 5.33333 5.47067 5.33333 4C5.33333 2.52933 6.52933 1.33333 8 1.33333ZM14 15.3333C14 15.7013 13.702 16 13.3333 16C12.9647 16 12.6667 15.7013 12.6667 15.3333C12.6667 13.3207 11.3833 11.6067 9.594 10.9533L8.58267 12.4707L9.31133 15.1307C9.43333 15.5747 9.04133 16.0007 8.51067 16.0007H7.48933C6.95867 16.0007 6.56733 15.5747 6.68867 15.1307L7.41733 12.4707L6.406 10.9533C4.61667 11.6067 3.33333 13.3207 3.33333 15.334C3.33333 15.702 3.03467 16.0007 2.66667 16.0007C2.29867 16.0007 2 15.702 2 15.334C2 12.026 4.692 9.334 8 9.334C11.308 9.334 14 12.0253 14 15.3333Z" fill="#6D6E6F"/>
</g>
<defs>
<clipPath id="clip0_1273_937">
<rect width="16" height="16" fill="white"/>
</clipPath>
</defs>
</svg>
