<svg width="18" height="18" viewBox="0 0 18 18" fill="none" xmlns="http://www.w3.org/2000/svg">
<g id="diskette 1" clip-path="url(#clip0_1626_2592)">
<path id="Vector" d="M17.2744 4.10063L13.8994 0.725634C13.8468 0.673501 13.7845 0.632256 13.7159 0.604263C13.6474 0.57627 13.574 0.562081 13.5 0.562509H2.25C1.80245 0.562509 1.37323 0.740299 1.05676 1.05677C0.74029 1.37323 0.5625 1.80246 0.5625 2.25001V15.75C0.5625 16.1976 0.74029 16.6268 1.05676 16.9433C1.37323 17.2597 1.80245 17.4375 2.25 17.4375H15.75C16.1976 17.4375 16.6268 17.2597 16.9432 16.9433C17.2597 16.6268 17.4375 16.1976 17.4375 15.75V4.50001C17.4379 4.42598 17.4237 4.3526 17.3957 4.28406C17.3678 4.21553 17.3265 4.15319 17.2744 4.10063ZM11.25 1.68751V5.06251H6.75V1.68751H11.25ZM4.5 16.3125V12.375C4.5 12.2258 4.55926 12.0828 4.66475 11.9773C4.77024 11.8718 4.91332 11.8125 5.0625 11.8125H12.9375C13.0867 11.8125 13.2298 11.8718 13.3352 11.9773C13.4407 12.0828 13.5 12.2258 13.5 12.375V16.3125H4.5ZM16.3125 15.75C16.3125 15.8992 16.2532 16.0423 16.1477 16.1478C16.0423 16.2532 15.8992 16.3125 15.75 16.3125H14.625V12.375C14.625 11.9275 14.4472 11.4982 14.1307 11.1818C13.8143 10.8653 13.3851 10.6875 12.9375 10.6875H5.0625C4.61495 10.6875 4.18573 10.8653 3.86926 11.1818C3.55279 11.4982 3.375 11.9275 3.375 12.375V16.3125H2.25C2.10082 16.3125 1.95774 16.2532 1.85225 16.1478C1.74676 16.0423 1.6875 15.8992 1.6875 15.75V2.25001C1.6875 2.10083 1.74676 1.95775 1.85225 1.85226C1.95774 1.74677 2.10082 1.68751 2.25 1.68751H5.625V5.06251C5.625 5.36088 5.74353 5.64703 5.95451 5.85801C6.16548 6.06898 6.45163 6.18751 6.75 6.18751H11.25C11.5484 6.18751 11.8345 6.06898 12.0455 5.85801C12.2565 5.64703 12.375 5.36088 12.375 5.06251V1.68751H13.2694L16.3125 4.73063V15.75Z" fill="#6D6E6F"/>
</g>
<defs>
<clipPath id="clip0_1626_2592">
<rect width="18" height="18" fill="white"/>
</clipPath>
</defs>
</svg>
