<svg width="15" height="15" viewBox="0 0 15 15" fill="none" xmlns="http://www.w3.org/2000/svg">
<g id="Group 277">
<path id="Vector" d="M7.50049 6.25C7.00604 6.25 6.52269 6.39662 6.11156 6.67133C5.70044 6.94603 5.38001 7.33648 5.19079 7.79329C5.00157 8.25011 4.95206 8.75277 5.04853 9.23772C5.14499 9.72268 5.38309 10.1681 5.73272 10.5178C6.08235 10.8674 6.52781 11.1055 7.01276 11.202C7.49771 11.2984 8.00038 11.2489 8.4572 11.0597C8.91401 10.8705 9.30446 10.55 9.57916 10.1389C9.85386 9.7278 10.0005 9.24445 10.0005 8.75C10.0005 8.08696 9.73709 7.45107 9.26825 6.98223C8.79941 6.51339 8.16353 6.25 7.50049 6.25ZM7.50049 10C7.25326 10 7.01159 9.92669 6.80603 9.78933C6.60046 9.65198 6.44025 9.45676 6.34564 9.22835C6.25103 8.99994 6.22628 8.74861 6.27451 8.50614C6.32274 8.26366 6.44179 8.04093 6.61661 7.86612C6.79142 7.6913 7.01415 7.57225 7.25663 7.52402C7.4991 7.47579 7.75043 7.50054 7.97884 7.59515C8.20725 7.68976 8.40247 7.84997 8.53982 8.05554C8.67718 8.2611 8.75049 8.50277 8.75049 8.75C8.75049 9.08152 8.61879 9.39946 8.38437 9.63388C8.14995 9.8683 7.83201 10 7.50049 10Z" fill="#6D6E6F"/>
<path id="Vector_2" d="M14.085 2.57626L12.4237 0.915012C12.1343 0.623976 11.79 0.393249 11.4107 0.236188C11.0315 0.0791278 10.6248 -0.0011466 10.2144 1.23727e-05H3.125C2.2965 0.00100478 1.50222 0.330563 0.916387 0.916399C0.330551 1.50223 0.00099241 2.29651 0 3.12501L0 11.875C0.00099241 12.7035 0.330551 13.4978 0.916387 14.0836C1.50222 14.6694 2.2965 14.999 3.125 15H11.875C12.7035 14.999 13.4978 14.6694 14.0836 14.0836C14.6694 13.4978 14.999 12.7035 15 11.875V4.78563C15.0011 4.37516 14.9209 3.96853 14.7638 3.58929C14.6068 3.21005 14.376 2.86573 14.085 2.57626ZM10.625 1.30001V1.87501C10.625 2.37229 10.4274 2.8492 10.0758 3.20084C9.72419 3.55247 9.24727 3.75001 8.74999 3.75001H6.25C5.75271 3.75001 5.2758 3.55247 4.92417 3.20084C4.57254 2.8492 4.375 2.37229 4.375 1.87501V1.25001H10.2144C10.3527 1.25124 10.4904 1.26801 10.625 1.30001ZM13.75 11.875C13.75 12.3723 13.5524 12.8492 13.2008 13.2008C12.8492 13.5525 12.3723 13.75 11.875 13.75H3.125C2.62772 13.75 2.1508 13.5525 1.79917 13.2008C1.44754 12.8492 1.25 12.3723 1.25 11.875V3.12501C1.25 2.62773 1.44754 2.15082 1.79917 1.79919C2.1508 1.44756 2.62772 1.25001 3.125 1.25001V1.87501C3.12599 2.70351 3.45555 3.49779 4.04138 4.08362C4.62722 4.66946 5.4215 4.99902 6.25 5.00001H8.74999C9.53592 4.99757 10.292 4.69855 10.8669 4.16274C11.4419 3.62692 11.7935 2.89382 11.8512 2.11001L13.2012 3.46001C13.5515 3.81243 13.7487 4.28876 13.75 4.78563V11.875Z" fill="#6D6E6F"/>
</g>
</svg>
