<svg width="16" height="16" viewBox="0 0 16 16" fill="none" xmlns="http://www.w3.org/2000/svg">
<g clip-path="url(#clip0_2041_1180)">
<path fill-rule="evenodd" clip-rule="evenodd" d="M3.57847 7.72502C3.47336 7.46101 3.43427 7.17238 3.47042 6.86873L3.47042 6.86873L4.04111 2.07515L4.04111 2.07514C4.18947 0.828891 5.3415 0 6.58699 0H8.74069C9.98623 0 11.1382 0.828906 11.2866 2.07511L11.2866 2.07515L11.8573 6.86873C11.8934 7.17238 11.8543 7.46101 11.7492 7.72503C11.8275 7.7381 11.904 7.75626 11.9786 7.77915V7.17503C11.9786 6.824 12.2631 6.53943 12.6142 6.53943H14.6921C15.0431 6.53943 15.3277 6.824 15.3277 7.17503C15.3277 7.52606 15.0431 7.81063 14.6921 7.81063H13.2498V9.26838C13.2498 9.29736 13.2478 9.32588 13.2441 9.35382C13.2478 9.40117 13.2498 9.44903 13.2498 9.49733C13.2498 10.487 12.4427 11.2941 11.453 11.2941H8.29943V13.2313H10.8723C11.6778 13.2313 12.333 13.8865 12.333 14.692V15.3644C12.333 15.7154 12.0485 16 11.6974 16C11.3464 16 11.0618 15.7154 11.0618 15.3644V14.692C11.0618 14.5886 10.9758 14.5025 10.8723 14.5025H8.29943V15.3644C8.29943 15.7154 8.01487 16 7.66384 16C7.31281 16 7.02824 15.7154 7.02824 15.3644V14.5025H4.45535C4.35192 14.5025 4.26584 14.5886 4.26584 14.692V15.3642C4.26584 15.7153 3.98127 15.9998 3.63024 15.9998C3.27921 15.9998 2.99464 15.7153 2.99464 15.3642V14.692C2.99464 13.8865 3.64989 13.2313 4.45535 13.2313H7.02824V11.2941H3.8747C2.88497 11.2941 2.07791 10.487 2.07791 9.49733C2.07791 9.44903 2.07984 9.40117 2.08361 9.35382C2.07985 9.32588 2.07791 9.29735 2.07791 9.26838V7.81063H0.635597C0.284567 7.81063 0 7.52606 0 7.17503C0 6.824 0.284567 6.53943 0.635597 6.53943H2.71351C3.06454 6.53943 3.34911 6.824 3.34911 7.17503V7.77915C3.42364 7.75625 3.50022 7.73809 3.57847 7.72502ZM10.4211 7.46395C10.2663 7.61478 10.0664 7.70053 9.79761 7.70053H5.53007C5.26127 7.70053 5.06134 7.61477 4.90663 7.46398L4.9066 7.46396C4.75556 7.31675 4.71388 7.17715 4.7327 7.01901L4.7327 7.019L5.30339 2.22542L5.3034 2.22541C5.36088 1.74247 5.85242 1.2712 6.58699 1.2712H8.74069C9.47525 1.2712 9.96679 1.74243 10.0243 2.22541L10.0243 2.22545L10.595 7.019C10.6138 7.17719 10.5721 7.31678 10.4211 7.46395ZM3.8747 10.0229C3.58706 10.0229 3.34911 9.78496 3.34911 9.49733C3.34911 9.20969 3.58706 8.97174 3.8747 8.97174L5.53007 8.97173H9.79761L11.453 8.97174C11.7406 8.97174 11.9786 9.2097 11.9786 9.49733C11.9786 9.78495 11.7406 10.0229 11.453 10.0229H3.8747Z" fill="#6D6E6F"/>
</g>
<defs>
<clipPath id="clip0_2041_1180">
<rect width="16" height="16" fill="white"/>
</clipPath>
</defs>
</svg>
