<svg width="16" height="16" viewBox="0 0 16 16" fill="none" xmlns="http://www.w3.org/2000/svg">
<g clip-path="url(#clip0_3531_1541)">
<path d="M12.6667 1.3335H3.33333C1.49533 1.3335 0 2.82883 0 4.66683V11.3335C0 13.1715 1.49533 14.6668 3.33333 14.6668H12.6667C14.5047 14.6668 16 13.1715 16 11.3335V4.66683C16 2.82883 14.5047 1.3335 12.6667 1.3335ZM3.33333 2.66683H12.6667C13.7693 2.66683 14.6667 3.56416 14.6667 4.66683H1.33333C1.33333 3.56416 2.23067 2.66683 3.33333 2.66683ZM1.33333 11.3335V6.00016H4.66667V13.3335H3.33333C2.23067 13.3335 1.33333 12.4362 1.33333 11.3335ZM12.6667 13.3335H6V6.00016H14.6667V11.3335C14.6667 12.4362 13.7693 13.3335 12.6667 13.3335Z" fill="#6D6E6F"/>
</g>
<defs>
<clipPath id="clip0_3531_1541">
<rect width="16" height="16" fill="white"/>
</clipPath>
</defs>
</svg>
