<svg width="16" height="16" viewBox="0 0 16 16" fill="none" xmlns="http://www.w3.org/2000/svg">
<path d="M15.414 6.03537L10.3573 0.975001C9.73149 0.35062 8.88377 0 8 0C7.11623 0 6.26851 0.35062 5.64267 0.975001L0.586007 6.03537C0.399625 6.22067 0.251854 6.44114 0.151263 6.68401C0.0506714 6.92688 -0.000740266 7.18731 8.05298e-06 7.45021V13.9988C8.05298e-06 14.5296 0.210722 15.0386 0.585794 15.4139C0.960866 15.7892 1.46957 16 2.00001 16H14C14.5304 16 15.0391 15.7892 15.4142 15.4139C15.7893 15.0386 16 14.5296 16 13.9988V7.45021C16.0007 7.18731 15.9493 6.92688 15.8487 6.68401C15.7481 6.44114 15.6004 6.22067 15.414 6.03537ZM10 14.6659H6V12.0416C6 11.5109 6.21072 11.0019 6.58579 10.6266C6.96086 10.2513 7.46957 10.0404 8 10.0404C8.53043 10.0404 9.03914 10.2513 9.41421 10.6266C9.78928 11.0019 10 11.5109 10 12.0416V14.6659ZM14.6667 13.9988C14.6667 14.1757 14.5964 14.3454 14.4714 14.4705C14.3464 14.5956 14.1768 14.6659 14 14.6659H11.3333V12.0416C11.3333 11.157 10.9821 10.3087 10.357 9.68319C9.7319 9.0577 8.88405 8.7063 8 8.7063C7.11595 8.7063 6.2681 9.0577 5.64298 9.68319C5.01786 10.3087 4.66667 11.157 4.66667 12.0416V14.6659H2.00001C1.8232 14.6659 1.65363 14.5956 1.5286 14.4705C1.40358 14.3454 1.33334 14.1757 1.33334 13.9988V7.45021C1.33396 7.27343 1.40413 7.104 1.52867 6.9786L6.58533 1.92023C6.96113 1.54596 7.46978 1.33585 8 1.33585C8.53022 1.33585 9.03887 1.54596 9.41467 1.92023L14.4713 6.9806C14.5954 7.1055 14.6655 7.27412 14.6667 7.45021V13.9988Z" fill="#6D6E6F"/>
</svg>
