<svg width="16" height="16" viewBox="0 0 16 16" fill="none" xmlns="http://www.w3.org/2000/svg">
<g clip-path="url(#clip0_1033_9701)">
<path d="M9.99969 4C9.99969 1.794 8.20569 0 5.99969 0C3.79369 0 1.99969 1.794 1.99969 4C1.99969 6.206 3.79369 8 5.99969 8C8.20569 8 9.99969 6.206 9.99969 4ZM5.99969 6.66667C4.52902 6.66667 3.33302 5.47067 3.33302 4C3.33302 2.52933 4.52902 1.33333 5.99969 1.33333C7.47036 1.33333 8.66636 2.52933 8.66636 4C8.66636 5.47067 7.47036 6.66667 5.99969 6.66667ZM5.99436 9.95867C6.03969 10.324 5.78102 10.6567 5.41502 10.7027C3.08769 10.9933 1.33236 12.9833 1.33236 15.3333C1.33236 15.7013 1.03369 16 0.66569 16C0.29769 16 -0.000976562 15.7013 -0.000976562 15.3333C-0.000976562 12.3127 2.25636 9.75333 5.24969 9.38C5.61102 9.334 5.94769 9.59333 5.99369 9.95933L5.99436 9.95867ZM15.1304 12.7553L14.481 12.3807C14.5917 12.0493 14.6664 11.7013 14.6664 11.3327C14.6664 10.964 14.5924 10.616 14.481 10.2847L15.1304 9.91C15.449 9.726 15.5584 9.318 15.3744 8.99933C15.1897 8.68 14.783 8.57 14.4637 8.75533L13.815 9.13C13.345 8.60067 12.719 8.21333 11.9997 8.06733V7.33333C11.9997 6.96533 11.701 6.66667 11.333 6.66667C10.965 6.66667 10.6664 6.96533 10.6664 7.33333V8.06733C9.94702 8.214 9.32102 8.60133 8.85102 9.13L8.20236 8.75533C7.88236 8.57067 7.47569 8.68 7.29169 8.99933C7.10769 9.31867 7.21702 9.726 7.53569 9.91L8.18502 10.2847C8.07436 10.616 7.99969 10.964 7.99969 11.3327C7.99969 11.7013 8.07369 12.0493 8.18502 12.3807L7.53569 12.7553C7.21702 12.9393 7.10769 13.3473 7.29169 13.666C7.41569 13.88 7.63902 13.9993 7.86969 13.9993C7.98236 13.9993 8.09702 13.9707 8.20236 13.91L8.85102 13.5353C9.32102 14.0647 9.94702 14.452 10.6664 14.598V15.332C10.6664 15.7 10.965 15.9987 11.333 15.9987C11.701 15.9987 11.9997 15.7 11.9997 15.332V14.598C12.719 14.4513 13.345 14.064 13.815 13.5353L14.4637 13.91C14.569 13.9707 14.6837 13.9993 14.7964 13.9993C15.027 13.9993 15.251 13.88 15.3744 13.666C15.5584 13.3467 15.449 12.9393 15.1304 12.7553ZM11.333 13.3327C10.2304 13.3327 9.33302 12.4353 9.33302 11.3327C9.33302 10.23 10.2304 9.33267 11.333 9.33267C12.4357 9.33267 13.333 10.23 13.333 11.3327C13.333 12.4353 12.4357 13.3327 11.333 13.3327Z" fill="#212121"/>
</g>
<defs>
<clipPath id="clip0_1033_9701">
<rect width="16" height="16" fill="white"/>
</clipPath>
</defs>
</svg>
