<svg width="16" height="16" viewBox="0 0 16 16" fill="none" xmlns="http://www.w3.org/2000/svg">
<g clip-path="url(#clip0_3523_1545)">
<path d="M12.0001 5.66685C12.0001 6.10888 11.8245 6.5328 11.5119 6.84536C11.1994 7.15792 10.7755 7.33352 10.3334 7.33352C9.8914 7.33352 9.46748 7.15792 9.15492 6.84536C8.84236 6.5328 8.66676 6.10888 8.66676 5.66685C8.66676 5.22482 8.84236 4.8009 9.15492 4.48834C9.46748 4.17578 9.8914 4.00018 10.3334 4.00018C10.7755 4.00018 11.1994 4.17578 11.5119 4.48834C11.8245 4.8009 12.0001 5.22482 12.0001 5.66685ZM11.9961 10.2442C11.9595 11.3034 11.695 12.3423 11.2208 13.2902C10.7838 14.1166 10.1276 14.8066 9.32431 15.2847C8.52098 15.7627 7.60151 16.0103 6.66676 16.0002H6.00009V12.3335C5.99711 11.7156 5.75032 11.1238 5.31338 10.6869C4.87644 10.25 4.28468 10.0032 3.66676 10.0002H9.31025e-05V9.33352C-0.00999911 8.39877 0.237556 7.47929 0.7156 6.67597C1.19365 5.87264 1.88371 5.2165 2.71009 4.77952C3.65794 4.30525 4.69685 4.0408 5.75609 4.00418C6.72732 2.74968 7.9746 1.73587 9.4011 1.04147C10.8276 0.347067 12.3949 -0.00924864 13.9814 0.000182451C14.2454 -0.00148569 14.5071 0.048971 14.7516 0.14866C14.996 0.248348 15.2184 0.395308 15.406 0.581113C15.5935 0.766918 15.7425 0.987913 15.8445 1.23143C15.9464 1.47494 15.9993 1.73619 16.0001 2.00018C16.0114 3.58966 15.656 5.16033 14.9616 6.59013C14.2671 8.01993 13.2524 9.27034 11.9961 10.2442ZM1.38943 8.66685H2.89743C3.39252 7.56417 3.97412 6.50241 4.63676 5.49152C4.1765 5.59859 3.73052 5.75971 3.30809 5.97152C2.80005 6.23979 2.36189 6.62331 2.02872 7.09136C1.69554 7.55941 1.47659 8.09898 1.38943 8.66685ZM10.5088 11.3635C9.49786 12.0262 8.4361 12.6078 7.33343 13.1028V14.6108C7.9013 14.5237 8.44087 14.3047 8.90892 13.9716C9.37697 13.6384 9.76049 13.2002 10.0288 12.6922C10.2406 12.2698 10.4017 11.8238 10.5088 11.3635ZM14.6668 1.98152C14.6619 1.80796 14.5895 1.64315 14.465 1.52213C14.3405 1.40112 14.1737 1.33345 14.0001 1.33352C10.5601 1.43152 8.23343 2.74952 5.98809 5.88152C5.36152 6.78365 4.81054 7.736 4.34076 8.72885C5.06871 8.86443 5.73855 9.21722 6.26214 9.74081C6.78572 10.2644 7.13852 10.9342 7.27409 11.6622C8.26694 11.1924 9.21929 10.6414 10.1214 10.0148C13.2508 7.76685 14.5688 5.44018 14.6668 1.98152ZM4.08143 11.9195C4.45394 12.2959 4.66289 12.804 4.66289 13.3335C4.66289 13.863 4.45394 14.3712 4.08143 14.7475C3.47676 15.3515 1.66676 15.7242 0.916093 15.8568L-0.0212402 16.0215L0.143426 15.0842C0.27676 14.3335 0.64876 12.5235 1.25276 11.9188C1.63393 11.5553 2.14048 11.3525 2.66723 11.3526C3.19397 11.3528 3.70043 11.5558 4.08143 11.9195ZM3.33343 13.3335C3.33366 13.2459 3.31652 13.1592 3.28299 13.0783C3.24946 12.9974 3.20021 12.9239 3.13809 12.8622C3.01307 12.7372 2.84354 12.667 2.66676 12.667C2.48998 12.667 2.32045 12.7372 2.19543 12.8622C1.94125 13.321 1.76274 13.8178 1.66676 14.3335C2.18263 14.2371 2.67964 14.0584 3.13876 13.8042C3.20068 13.7425 3.24976 13.6691 3.28317 13.5883C3.31658 13.5075 3.33366 13.4209 3.33343 13.3335Z" fill="#6D6E6F"/>
</g>
<defs>
<clipPath id="clip0_3523_1545">
<rect width="16" height="16" fill="white"/>
</clipPath>
</defs>
</svg>
