<svg width="16" height="16" viewBox="0 0 16 16" fill="none" xmlns="http://www.w3.org/2000/svg">
<g clip-path="url(#clip0_1240_1195)">
<mask id="mask0_1240_1195" style="mask-type:luminance" maskUnits="userSpaceOnUse" x="0" y="0" width="16" height="16">
<path d="M16 0H0V16H16V0Z" fill="white"/>
</mask>
<g mask="url(#mask0_1240_1195)">
<path d="M12.6667 0.666992H3.33333C2.4496 0.668051 1.60237 1.01958 0.97748 1.64447C0.352588 2.26936 0.00105857 3.11659 0 4.00032V9.33366C0.00105857 10.2173 0.352588 11.0646 0.97748 11.6895C1.60237 12.3144 2.4496 12.6659 3.33333 12.6669H7.33333V14.0003H4.66667C4.48986 14.0003 4.32029 14.0705 4.19526 14.1955C4.07024 14.3206 4 14.4901 4 14.6669C4 14.8438 4.07024 15.0133 4.19526 15.1384C4.32029 15.2634 4.48986 15.3336 4.66667 15.3336H11.3333C11.5101 15.3336 11.6797 15.2634 11.8047 15.1384C11.9298 15.0133 12 14.8438 12 14.6669C12 14.4901 11.9298 14.3206 11.8047 14.1955C11.6797 14.0705 11.5101 14.0003 11.3333 14.0003H8.66667V12.6669H12.6667C13.5504 12.6659 14.3976 12.3144 15.0225 11.6895C15.6474 11.0646 15.9989 10.2173 16 9.33366V4.00032C15.9989 3.11659 15.6474 2.26936 15.0225 1.64447C14.3976 1.01958 13.5504 0.668051 12.6667 0.666992ZM3.33333 2.00032H12.6667C13.1971 2.00032 13.7058 2.21104 14.0809 2.58611C14.456 2.96118 14.6667 3.46989 14.6667 4.00032V8.66699H1.33333V4.00032C1.33333 3.46989 1.54405 2.96118 1.91912 2.58611C2.29419 2.21104 2.8029 2.00032 3.33333 2.00032ZM12.6667 11.3336H3.33333C2.92116 11.3319 2.51958 11.2029 2.18353 10.9642C1.84749 10.7256 1.59339 10.3889 1.456 10.0003H14.544C14.4066 10.3889 14.1525 10.7256 13.8165 10.9642C13.4804 11.2029 13.0788 11.3319 12.6667 11.3336Z" fill="#FFFFFF"/>
</g>
</g>
<defs>
<clipPath id="clip0_1240_1195">
<rect width="16" height="16" fill="white"/>
</clipPath>
</defs>
</svg>
