<svg width="16" height="16" viewBox="0 0 16 16" fill="none" xmlns="http://www.w3.org/2000/svg">
<g clip-path="url(#clip0_3523_1556)">
<path d="M1.65003 8.90708H5.73223C6.48374 8.90708 7.09295 9.51629 7.09295 10.2678V14.35C7.09295 15.1015 6.48374 15.7107 5.73223 15.7107H1.65003C0.898523 15.7108 0.289307 15.1015 0.289307 14.35V10.2678C0.289307 9.51629 0.898523 8.90708 1.65003 8.90708ZM1.65003 9.81421C1.39952 9.81421 1.19645 10.0173 1.19645 10.2678V14.35C1.19645 14.6005 1.39952 14.8036 1.65003 14.8036H5.73223C5.98274 14.8036 6.18581 14.6005 6.18581 14.35V10.2678C6.18581 10.0173 5.98274 9.81421 5.73223 9.81421H1.65003ZM12.3092 8.90708C14.188 8.90708 15.711 10.4301 15.711 12.3089C15.711 14.1877 14.188 15.7108 12.3092 15.7108C10.4304 15.7108 8.90732 14.1877 8.90732 12.3089C8.90732 10.4301 10.4304 8.90708 12.3092 8.90708ZM12.3092 9.81421C10.9314 9.81421 9.81446 10.9311 9.81446 12.3089C9.81446 13.6867 10.9314 14.8036 12.3092 14.8036C13.687 14.8036 14.8038 13.6867 14.8038 12.3089C14.8038 10.9311 13.6869 9.81421 12.3092 9.81421ZM1.65003 0.289062H14.3502C15.1018 0.289062 15.711 0.898279 15.711 1.64979V5.73198C15.711 6.48349 15.1018 7.09271 14.3503 7.09271H1.65003C0.898523 7.09271 0.289307 6.48349 0.289307 5.73198V1.64979C0.289307 0.898279 0.898523 0.289062 1.65003 0.289062ZM1.65003 1.19623C1.39952 1.19623 1.19645 1.3993 1.19645 1.64982V5.73201C1.19645 5.98253 1.39952 6.1856 1.65003 6.1856H14.3502C14.6008 6.1856 14.8038 5.98253 14.8038 5.73201V1.64979C14.8038 1.39927 14.6008 1.1962 14.3502 1.1962L1.65003 1.19623Z" fill="#6D6E6F"/>
<path fill-rule="evenodd" clip-rule="evenodd" d="M1.64988 8.61801H5.73208C6.64328 8.61801 7.38196 9.35669 7.38196 10.2679V14.3501C7.38196 15.2613 6.64328 16 5.73208 16H1.64988C0.738676 16 0 15.2613 0 14.3501V10.2679C0 9.35669 0.738677 8.61801 1.64988 8.61801ZM1.64988 10.1035C1.55906 10.1035 1.48545 10.1771 1.48545 10.2679V14.3501C1.48545 14.4409 1.55906 14.5145 1.64988 14.5145H5.73208C5.82289 14.5145 5.89651 14.4409 5.89651 14.3501V10.2679C5.89651 10.1771 5.82289 10.1035 5.73208 10.1035H1.64988ZM12.309 8.61801C14.3475 8.61801 16 10.2705 16 12.309C16 14.3475 14.3475 16 12.309 16C10.2705 16 8.61801 14.3475 8.61801 12.309C8.61801 10.2705 10.2705 8.61801 12.309 8.61801ZM12.309 10.1035C11.0909 10.1035 10.1035 11.0909 10.1035 12.309C10.1035 13.5271 11.0909 14.5145 12.309 14.5145C13.5271 14.5145 14.5145 13.5271 14.5145 12.309C14.5145 11.0909 13.5271 10.1035 12.309 10.1035ZM1.64988 0H14.3501C15.2613 0 16 0.738673 16 1.64988V5.73208C16 6.64328 15.2613 7.38196 14.3501 7.38196H1.64988C0.738676 7.38196 0 6.64328 0 5.73208V1.64988C0 0.738677 0.738676 0 1.64988 0ZM1.64988 1.48548C1.55906 1.48548 1.48545 1.55909 1.48545 1.64991V5.73211C1.48545 5.82292 1.55906 5.89654 1.64988 5.89654H14.3501C14.4409 5.89654 14.5145 5.82292 14.5145 5.73211V1.64988C14.5145 1.55906 14.4409 1.48545 14.3501 1.48545L1.64988 1.48548ZM5.73208 8.90717H1.64988C0.898373 8.90717 0.289157 9.51639 0.289157 10.2679V14.3501C0.289157 15.1016 0.898373 15.7108 1.64988 15.7108H5.73208C6.48359 15.7108 7.0928 15.1016 7.0928 14.3501V10.2679C7.0928 9.51639 6.48359 8.90717 5.73208 8.90717ZM1.1963 10.2679C1.1963 10.0174 1.39937 9.81431 1.64988 9.81431H5.73208C5.98259 9.81431 6.18566 10.0174 6.18566 10.2679V14.3501C6.18566 14.6006 5.98259 14.8037 5.73208 14.8037H1.64988C1.39937 14.8037 1.1963 14.6006 1.1963 14.3501V10.2679ZM15.7108 12.309C15.7108 10.4302 14.1878 8.90717 12.309 8.90717C10.4302 8.90717 8.90717 10.4302 8.90717 12.309C8.90717 14.1878 10.4302 15.7108 12.309 15.7108C14.1878 15.7108 15.7108 14.1878 15.7108 12.309ZM9.81431 12.309C9.81431 10.9312 10.9312 9.81431 12.309 9.81431C13.6868 9.81431 14.8037 10.9312 14.8037 12.309C14.8037 13.6868 13.6868 14.8037 12.309 14.8037C10.9312 14.8037 9.81431 13.6868 9.81431 12.309ZM14.3501 0.289157H1.64988C0.898373 0.289157 0.289157 0.898374 0.289157 1.64988V5.73208C0.289157 6.48359 0.898373 7.0928 1.64988 7.0928H14.3501C15.1016 7.0928 15.7108 6.48359 15.7108 5.73208V1.64988C15.7108 0.898374 15.1016 0.289157 14.3501 0.289157ZM1.1963 1.64991C1.1963 1.3994 1.39937 1.19633 1.64988 1.19633L14.3501 1.1963C14.6006 1.1963 14.8037 1.39937 14.8037 1.64988V5.73211C14.8037 5.98262 14.6006 6.18569 14.3501 6.18569H1.64988C1.39937 6.18569 1.1963 5.98262 1.1963 5.73211V1.64991Z" fill="#6D6E6F"/>
</g>
<defs>
<clipPath id="clip0_3523_1556">
<rect width="16" height="16" fill="white"/>
</clipPath>
</defs>
</svg>
