<svg width="16" height="16" viewBox="0 0 16 16" fill="none" xmlns="http://www.w3.org/2000/svg">
<g clip-path="url(#clip0_1240_1189)">
<mask id="mask0_1240_1189" style="mask-type:luminance" maskUnits="userSpaceOnUse" x="0" y="0" width="16" height="16">
<path d="M16 0H0V16H16V0Z" fill="white"/>
</mask>
<g mask="url(#mask0_1240_1189)">
<path d="M12.6667 0H6.66667C4.82867 0 3.33333 1.49533 3.33333 3.33333V4H3C1.346 4 0 5.346 0 7V13.6667C0 14.9527 1.046 15.9993 2.33267 16H12.6667C14.5047 16 16 14.5047 16 12.6667V3.33333C16 1.49533 14.5047 0 12.6667 0ZM3.33333 13.6667C3.33333 14.218 2.88467 14.6667 2.33333 14.6667C1.782 14.6667 1.33333 14.218 1.33333 13.6667V7C1.33333 6.08133 2.08133 5.33333 3 5.33333H3.33333V13.6667ZM14.6667 12.6667C14.6667 13.7693 13.7693 14.6667 12.6667 14.6667H4.44133C4.58533 14.3633 4.66667 14.0247 4.66667 13.6667V3.33333C4.66667 2.23067 5.564 1.33333 6.66667 1.33333H12.6667C13.7693 1.33333 14.6667 2.23067 14.6667 3.33333V12.6667ZM13.3333 3.66667C13.3333 4.03467 13.0347 4.33333 12.6667 4.33333H6.66667C6.29867 4.33333 6 4.03467 6 3.66667C6 3.29867 6.29867 3 6.66667 3H12.6667C13.0347 3 13.3333 3.29867 13.3333 3.66667ZM13.3333 6.33333C13.3333 6.70133 13.0347 7 12.6667 7H6.66667C6.29867 7 6 6.70133 6 6.33333C6 5.96533 6.29867 5.66667 6.66667 5.66667H12.6667C13.0347 5.66667 13.3333 5.96533 13.3333 6.33333ZM13.3333 9C13.3333 9.368 13.0347 9.66667 12.6667 9.66667H6.66667C6.29867 9.66667 6 9.368 6 9C6 8.632 6.29867 8.33333 6.66667 8.33333H12.6667C13.0347 8.33333 13.3333 8.632 13.3333 9ZM13.3333 11.6667C13.3333 12.0347 13.0347 12.3333 12.6667 12.3333H6.66667C6.29867 12.3333 6 12.0347 6 11.6667C6 11.2987 6.29867 11 6.66667 11H12.6667C13.0347 11 13.3333 11.2987 13.3333 11.6667Z" fill="#ffffff"/>
</g>
</g>
<defs>
<clipPath id="clip0_1240_1189">
<rect width="16" height="16" fill="white"/>
</clipPath>
</defs>
</svg>
