<svg width="16" height="16" viewBox="0 0 16 16" fill="none" xmlns="http://www.w3.org/2000/svg">
<g clip-path="url(#clip0_3523_1543)">
<path d="M4.66667 6.66668C4.13623 6.66668 3.62753 6.87739 3.25245 7.25246C2.87738 7.62754 2.66667 8.13624 2.66667 8.66668C2.66667 9.19711 2.87738 9.70582 3.25245 10.0809C3.62753 10.456 4.13623 10.6667 4.66667 10.6667H10.3333C10.8638 10.6667 11.3725 10.456 11.7475 10.0809C12.1226 9.70582 12.3333 9.19711 12.3333 8.66668C12.3333 8.13624 12.1226 7.62754 11.7475 7.25246C11.3725 6.87739 10.8638 6.66668 10.3333 6.66668H4.66667ZM11 8.66668C11 8.84349 10.9298 9.01306 10.8047 9.13808C10.6797 9.26311 10.5101 9.33334 10.3333 9.33334H4.66667C4.48986 9.33334 4.32029 9.26311 4.19526 9.13808C4.07024 9.01306 4 8.84349 4 8.66668C4 8.48987 4.07024 8.3203 4.19526 8.19527C4.32029 8.07025 4.48986 8.00001 4.66667 8.00001H10.3333C10.5101 8.00001 10.6797 8.07025 10.8047 8.19527C10.9298 8.3203 11 8.48987 11 8.66668ZM12.3333 12.6667C12.3333 12.8435 12.2631 13.0131 12.1381 13.1381C12.013 13.2631 11.8435 13.3333 11.6667 13.3333H3.33333C3.15652 13.3333 2.98695 13.2631 2.86193 13.1381C2.7369 13.0131 2.66667 12.8435 2.66667 12.6667C2.66667 12.4899 2.7369 12.3203 2.86193 12.1953C2.98695 12.0702 3.15652 12 3.33333 12H11.6667C11.8435 12 12.013 12.0702 12.1381 12.1953C12.2631 12.3203 12.3333 12.4899 12.3333 12.6667ZM14.024 2.08068L12.9187 0.976677C12.6099 0.666178 12.2427 0.419985 11.8381 0.252342C11.4336 0.0846994 10.9999 -0.00106532 10.562 9.98748e-06H3.33333C2.4496 0.00106856 1.60237 0.352598 0.97748 0.97749C0.352588 1.60238 0.00105857 2.44961 0 3.33334V12.6667C0.00105857 13.5504 0.352588 14.3976 0.97748 15.0225C1.60237 15.6474 2.4496 15.999 3.33333 16H11.6667C12.5504 15.999 13.3976 15.6474 14.0225 15.0225C14.6474 14.3976 14.9989 13.5504 15 12.6667V4.43801C15.0013 4.00007 14.9156 3.56622 14.7481 3.16159C14.5806 2.75696 14.3345 2.38956 14.024 2.08068ZM13.0813 3.02334C13.1751 3.1183 13.2595 3.22211 13.3333 3.33334H11.6667V1.66668C11.7781 1.7397 11.8817 1.82391 11.976 1.91801L13.0813 3.02334ZM13.6667 12.6667C13.6667 13.1971 13.456 13.7058 13.0809 14.0809C12.7058 14.456 12.1971 14.6667 11.6667 14.6667H3.33333C2.8029 14.6667 2.29419 14.456 1.91912 14.0809C1.54405 13.7058 1.33333 13.1971 1.33333 12.6667V3.33334C1.33333 2.80291 1.54405 2.2942 1.91912 1.91913C2.29419 1.54406 2.8029 1.33334 3.33333 1.33334H10.3333V3.33334C10.3333 3.68697 10.4738 4.0261 10.7239 4.27615C10.9739 4.5262 11.313 4.66668 11.6667 4.66668H13.6667V12.6667Z" fill="#6D6E6F"/>
</g>
<defs>
<clipPath id="clip0_3523_1543">
<rect width="16" height="16" fill="white"/>
</clipPath>
</defs>
</svg>
