<svg width="18" height="18" viewBox="0 0 18 18" fill="none" xmlns="http://www.w3.org/2000/svg">
<path d="M17.7732 16.7088L15.8692 14.8048C16.259 14.2126 16.4914 13.5005 16.4914 12.7359C16.4914 10.6669 14.8123 8.98782 12.7434 8.98782C10.6744 8.98782 8.99532 10.6669 8.99532 12.7359C8.99532 14.8048 10.6744 16.4839 12.7434 16.4839C13.508 16.4839 14.2201 16.2515 14.8123 15.8617L16.7163 17.7657C16.8662 17.9157 17.0536 17.9831 17.2485 17.9831C17.4434 17.9831 17.6308 17.9082 17.7807 17.7657C18.0731 17.4734 18.0731 17.0011 17.7807 16.7088H17.7732ZM10.4945 12.7434C10.4945 11.5065 11.5065 10.4945 12.7434 10.4945C13.9802 10.4945 14.9922 11.5065 14.9922 12.7434C14.9922 13.9802 13.9802 14.9922 12.7434 14.9922C11.5065 14.9922 10.4945 13.9802 10.4945 12.7434ZM8.24571 15.7418C8.24571 16.1541 7.90838 16.4914 7.4961 16.4914H3.74805C1.67913 16.4914 0 14.8123 0 12.7434V3.74805C0 1.67913 1.67913 0 3.74805 0H12.7434C14.8123 0 16.4914 1.67913 16.4914 3.74805V7.4961C16.4914 7.90838 16.1541 8.24571 15.7418 8.24571C15.3295 8.24571 14.9922 7.90838 14.9922 7.4961V3.74805C14.9922 2.51119 13.9802 1.49922 12.7434 1.49922H3.74805C2.51119 1.49922 1.49922 2.51119 1.49922 3.74805V12.7434C1.49922 13.9802 2.51119 14.9922 3.74805 14.9922H7.4961C7.90838 14.9922 8.24571 15.3295 8.24571 15.7418ZM4.49766 6.30422V11.9938H6.74649C7.15877 11.9938 7.4961 12.3311 7.4961 12.7434C7.4961 13.1556 7.15877 13.493 6.74649 13.493H4.49766C3.67309 13.493 2.99844 12.8183 2.99844 11.9938V4.49766C2.99844 3.67309 3.67309 2.99844 4.49766 2.99844H5.99688C6.29672 2.99844 6.57408 3.17834 6.68652 3.4632C6.80646 3.74055 6.73899 4.06288 6.5216 4.28027L4.49016 6.31171L4.49766 6.30422ZM8.24571 9.74493C8.24571 10.1572 7.90838 10.4945 7.4961 10.4945C6.67153 10.4945 5.99688 9.81989 5.99688 8.99532V7.74347C5.99688 7.14378 6.22926 6.57408 6.65653 6.1543L9.15273 3.6581C9.58001 3.23082 10.1422 2.99844 10.7419 2.99844H11.9938C12.8183 2.99844 13.493 3.67309 13.493 4.49766V6.74649C13.493 7.15877 13.1556 7.4961 12.7434 7.4961C12.3311 7.4961 11.9938 7.15877 11.9938 6.74649V4.49766H10.7419C10.547 4.49766 10.3521 4.58011 10.2097 4.71504L7.71348 7.21124C7.57106 7.35367 7.4961 7.54107 7.4961 7.74347V8.99532C7.90838 8.99532 8.24571 9.33264 8.24571 9.74493Z" fill="#6D6E6F"/>
</svg>
