<svg width="18" height="18" viewBox="0 0 18 18" fill="none" xmlns="http://www.w3.org/2000/svg">
<g id="tick 1" clip-path="url(#clip0_1204_1426)">
<g id="Group">
<g id="Group_2">
<path id="Vector" d="M13.4947 6.04108C13.2176 5.74893 12.7557 5.73607 12.4631 6.01384L7.80453 10.4319L5.58252 8.15049C5.30109 7.86176 4.83967 7.85543 4.55068 8.13689C4.26194 8.41807 4.25586 8.87999 4.53704 9.16872L7.26137 11.9658C7.40414 12.1125 7.59388 12.1864 7.78411 12.1864C7.9646 12.1864 8.14509 12.1197 8.28642 11.9862L13.4675 7.07271C13.7599 6.7954 13.7722 6.33348 13.4947 6.04108Z" fill="#0C5718"/>
</g>
</g>
<g id="Group_3">
<g id="Group_4">
<path id="Vector_2" d="M9 0C4.03734 0 0 4.03734 0 9C0 13.9627 4.03734 18 9 18C13.9627 18 18 13.9627 18 9C18 4.03734 13.9627 0 9 0ZM9 16.5406C4.84225 16.5406 1.45944 13.158 1.45944 9C1.45944 4.84225 4.84221 1.45944 9 1.45944C13.158 1.45944 16.5406 4.84221 16.5406 9C16.5406 13.158 13.158 16.5406 9 16.5406Z" fill="#0C5718"/>
</g>
</g>
</g>
<defs>
<clipPath id="clip0_1204_1426">
<rect width="18" height="18" fill="white"/>
</clipPath>
</defs>
</svg>
