<svg width="16" height="16" viewBox="0 0 16 16" fill="none" xmlns="http://www.w3.org/2000/svg">
<path d="M4.66379 0H2.66502C1.95821 0 1.28035 0.280778 0.780566 0.780566C0.280778 1.28035 0 1.95821 0 2.66502L0 4.66379C0 5.37059 0.280778 6.04845 0.780566 6.54824C1.28035 7.04803 1.95821 7.32881 2.66502 7.32881H4.66379C5.37059 7.32881 6.04845 7.04803 6.54824 6.54824C7.04803 6.04845 7.32881 5.37059 7.32881 4.66379V2.66502C7.32881 1.95821 7.04803 1.28035 6.54824 0.780566C6.04845 0.280778 5.37059 0 4.66379 0ZM5.9963 4.66379C5.9963 5.01719 5.85591 5.35612 5.60601 5.60601C5.35612 5.85591 5.01719 5.9963 4.66379 5.9963H2.66502C2.31162 5.9963 1.97269 5.85591 1.72279 5.60601C1.4729 5.35612 1.33251 5.01719 1.33251 4.66379V2.66502C1.33251 2.31162 1.4729 1.97269 1.72279 1.72279C1.97269 1.4729 2.31162 1.33251 2.66502 1.33251H4.66379C5.01719 1.33251 5.35612 1.4729 5.60601 1.72279C5.85591 1.97269 5.9963 2.31162 5.9963 2.66502V4.66379Z" fill="#6D6E6F"/>
<path d="M13.3347 0H11.3359C10.6291 0 9.95125 0.280778 9.45146 0.780566C8.95168 1.28035 8.6709 1.95821 8.6709 2.66502V4.66379C8.6709 5.37059 8.95168 6.04845 9.45146 6.54824C9.95125 7.04803 10.6291 7.32881 11.3359 7.32881H13.3347C14.0415 7.32881 14.7193 7.04803 15.2191 6.54824C15.7189 6.04845 15.9997 5.37059 15.9997 4.66379V2.66502C15.9997 1.95821 15.7189 1.28035 15.2191 0.780566C14.7193 0.280778 14.0415 0 13.3347 0ZM14.6672 4.66379C14.6672 5.01719 14.5268 5.35612 14.2769 5.60601C14.027 5.85591 13.6881 5.9963 13.3347 5.9963H11.3359C10.9825 5.9963 10.6436 5.85591 10.3937 5.60601C10.1438 5.35612 10.0034 5.01719 10.0034 4.66379V2.66502C10.0034 2.31162 10.1438 1.97269 10.3937 1.72279C10.6436 1.4729 10.9825 1.33251 11.3359 1.33251H13.3347C13.6881 1.33251 14.027 1.4729 14.2769 1.72279C14.5268 1.97269 14.6672 2.31162 14.6672 2.66502V4.66379Z" fill="#6D6E6F"/>
<path d="M13.3347 8.66992H11.3359C10.6291 8.66992 9.95125 8.9507 9.45146 9.45049C8.95168 9.95028 8.6709 10.6281 8.6709 11.3349V13.3337C8.6709 14.0405 8.95168 14.7184 9.45146 15.2182C9.95125 15.7179 10.6291 15.9987 11.3359 15.9987H13.3347C14.0415 15.9987 14.7194 15.7179 15.2191 15.2182C15.7189 14.7184 15.9997 14.0405 15.9997 13.3337V11.3349C15.9997 10.6281 15.7189 9.95028 15.2191 9.45049C14.7194 8.9507 14.0415 8.66992 13.3347 8.66992ZM14.6672 13.3337C14.6672 13.6871 14.5268 14.026 14.2769 14.2759C14.027 14.5258 13.6881 14.6662 13.3347 14.6662H11.3359C10.9825 14.6662 10.6436 14.5258 10.3937 14.2759C10.1438 14.026 10.0034 13.6871 10.0034 13.3337V11.3349C10.0034 10.9815 10.1438 10.6426 10.3937 10.3927C10.6436 10.1428 10.9825 10.0024 11.3359 10.0024H13.3347C13.6881 10.0024 14.027 10.1428 14.2769 10.3927C14.5268 10.6426 14.6672 10.9815 14.6672 11.3349V13.3337Z" fill="#6D6E6F"/>
<path d="M4.66379 8.66992H2.66502C1.95821 8.66992 1.28035 8.9507 0.780566 9.45049C0.280778 9.95028 0 10.6281 0 11.3349V13.3337C0 14.0405 0.280778 14.7184 0.780566 15.2182C1.28035 15.7179 1.95821 15.9987 2.66502 15.9987H4.66379C5.37059 15.9987 6.04845 15.7179 6.54824 15.2182C7.04803 14.7184 7.32881 14.0405 7.32881 13.3337V11.3349C7.32881 10.6281 7.04803 9.95028 6.54824 9.45049C6.04845 8.9507 5.37059 8.66992 4.66379 8.66992ZM5.9963 13.3337C5.9963 13.6871 5.85591 14.026 5.60601 14.2759C5.35612 14.5258 5.01719 14.6662 4.66379 14.6662H2.66502C2.31162 14.6662 1.97269 14.5258 1.72279 14.2759C1.4729 14.026 1.33251 13.6871 1.33251 13.3337V11.3349C1.33251 10.9815 1.4729 10.6426 1.72279 10.3927C1.97269 10.1428 2.31162 10.0024 2.66502 10.0024H4.66379C5.01719 10.0024 5.35612 10.1428 5.60601 10.3927C5.85591 10.6426 5.9963 10.9815 5.9963 11.3349V13.3337Z" fill="#6D6E6F"/>
</svg>
