<svg width="18" height="18" viewBox="0 0 18 18" fill="none" xmlns="http://www.w3.org/2000/svg">
<g id="Group 264">
<path id="Vector" d="M18 7.4985V11.9985C18 14.0662 16.3177 15.7485 14.25 15.7485H9.75V16.4985H12C12.4148 16.4985 12.75 16.8337 12.75 17.2485C12.75 17.6632 12.4148 17.9985 12 17.9985H6C5.58525 17.9985 5.25 17.6632 5.25 17.2485C5.25 16.8337 5.58525 16.4985 6 16.4985H8.25V15.7485H3.75C1.68225 15.7485 0 14.0662 0 11.9985V7.4985C0 5.78625 1.1565 4.293 2.81325 3.867C3.2115 3.7665 3.62325 4.005 3.72675 4.40625C3.83025 4.8075 3.588 5.21625 3.18675 5.319C2.19375 5.57475 1.5 6.471 1.5 7.4985V11.9985C1.5 13.239 2.5095 14.2485 3.75 14.2485H14.25C15.4905 14.2485 16.5 13.239 16.5 11.9985V7.4985C16.5 6.471 15.8062 5.57475 14.8132 5.319C14.412 5.21625 14.1705 4.80675 14.2733 4.40625C14.3767 4.005 14.79 3.76575 15.1868 3.867C16.8435 4.293 18 5.78625 18 7.4985ZM4.728 6.849L5.44275 6.4365C5.3175 6.063 5.25 5.664 5.25 5.24925C5.25 4.8345 5.31825 4.43475 5.44275 4.062L4.728 3.6495C4.36875 3.4425 4.24575 2.9835 4.4535 2.625C4.6605 2.26575 5.1195 2.14275 5.478 2.3505L6.195 2.7645C6.7245 2.16825 7.44 1.74075 8.25 1.57575V0.75C8.25 0.336 8.58525 0 9 0C9.41475 0 9.75 0.336 9.75 0.75V1.57575C10.56 1.74075 11.2762 2.16825 11.805 2.7645L12.522 2.3505C12.879 2.14275 13.3387 2.26575 13.5465 2.625C13.7535 2.98425 13.6305 3.4425 13.272 3.6495L12.5573 4.062C12.6825 4.4355 12.75 4.8345 12.75 5.24925C12.75 5.664 12.6818 6.06375 12.5573 6.4365L13.272 6.849C13.6312 7.056 13.7543 7.515 13.5465 7.8735C13.407 8.11425 13.1557 8.2485 12.8962 8.2485C12.7688 8.2485 12.6397 8.21625 12.522 8.148L11.805 7.734C11.2755 8.33025 10.56 8.75775 9.75 8.92275V9.7485C9.75 10.1632 9.41475 10.4985 9 10.4985C8.58525 10.4985 8.25 10.1632 8.25 9.7485V8.92275C7.44 8.75775 6.72375 8.33025 6.195 7.734L5.478 8.148C5.36025 8.21625 5.23125 8.2485 5.10375 8.2485C4.84425 8.2485 4.59225 8.11425 4.4535 7.8735C4.2465 7.51425 4.3695 7.056 4.728 6.849ZM6.75 5.2485C6.75 6.489 7.7595 7.4985 9 7.4985C10.2405 7.4985 11.25 6.489 11.25 5.2485C11.25 4.008 10.2405 2.9985 9 2.9985C7.7595 2.9985 6.75 4.008 6.75 5.2485Z" fill="#212121"/>
<path id="Vector_2" d="M9 6.37305C9.621 6.37305 10.125 5.86905 10.125 5.24805C10.125 4.62705 9.621 4.12305 9 4.12305C8.379 4.12305 7.875 4.62705 7.875 5.24805C7.875 5.86905 8.379 6.37305 9 6.37305Z" fill="#212121"/>
</g>
</svg>
