<svg width="140" height="36" viewBox="0 0 140 36" fill="none" xmlns="http://www.w3.org/2000/svg">
<path d="M15.098 35.2909C23.402 35.2909 30.1732 28.5196 30.1732 20.1928C30.1732 11.8889 23.402 5.11768 15.098 5.11768C6.77124 5.11768 0 11.8889 0 20.1928C0 28.5196 6.77124 35.2909 15.098 35.2909Z" fill="#F19521"/>
<path d="M4.23208 30.7159C2.01312 28.4283 0.503317 25.4087 0.0915527 22.0917C1.18959 21.9087 2.35626 21.5198 4.1177 19.3237L11.3922 6.37598C9.58502 14.2453 3.79744 23.0296 4.23208 30.7159Z" fill="white"/>
<path d="M20.0164 1C17.9118 6.42157 5.90198 34.6732 20.1079 29.6634C4.68956 36.6863 8.07518 26.5294 10.2484 20.3072C13.9085 10.219 16.9281 8 20.0164 1Z" fill="white" stroke="#231F20" stroke-width="0.8"/>
<path d="M3.01965 24.6309C9.219 22.778 40.8105 19.6898 29.9902 10.6538C43.121 21.3826 32.5295 22.8237 25.987 23.6473C15.2811 24.8368 10.6831 24.3107 3.01965 24.6309Z" stroke="#231F20" stroke-width="0.8"/>
<path d="M47.1698 19.2552H45.3627V7.13102H40.2614V5.68984H52.1568V7.13102H47.147V19.2552H47.1698ZM54.6502 12.5068C54.6502 11.2029 55.062 10.4023 55.8855 10.1506C56.7091 9.89899 57.7385 9.76174 58.9738 9.76174C60.4836 9.76174 61.6502 9.94474 62.4738 10.3108C63.2973 10.6768 63.7091 11.6147 63.7091 13.1016V19.2781H62.1764L62.2679 18.2944C61.8104 18.7977 61.2614 19.1179 60.6208 19.2323C59.9803 19.3467 59.294 19.4153 58.5849 19.4153C57.2352 19.4153 56.1829 19.2323 55.428 18.8892C54.6502 18.5461 54.2842 17.7225 54.2842 16.4186C54.2842 15.1604 54.696 14.3598 55.4966 14.0395C56.2973 13.7193 57.3267 13.5591 58.562 13.5591C58.745 13.5591 58.9509 13.5591 59.1339 13.5591C59.3398 13.5591 59.5228 13.582 59.7058 13.582C59.9803 13.6049 60.2319 13.6506 60.5065 13.6735C60.7581 13.7193 61.0097 13.765 61.2614 13.8565C61.4444 13.9023 61.5816 13.9938 61.7189 14.1081C61.8332 14.2225 61.9476 14.3598 62.0391 14.497V13.3532C62.0391 12.1866 61.8561 11.4545 61.4901 11.18C61.1241 10.9055 60.2548 10.7454 58.9051 10.7454C58.7679 10.7454 58.6306 10.7454 58.4476 10.7454C58.2875 10.7454 58.1274 10.7683 57.9672 10.7683C57.7614 10.7912 57.5326 10.814 57.3267 10.8598C57.1208 10.9055 56.9378 10.997 56.8006 11.0885C56.6404 11.18 56.5261 11.2944 56.4574 11.4545C56.3888 11.5918 56.3659 11.7519 56.3431 11.9121C56.3202 11.9578 56.3202 12.0036 56.3202 12.0493V12.3238C56.3202 12.3696 56.3202 12.4153 56.3431 12.484L54.6502 12.5068ZM56.5489 17.8827C56.9378 18.1572 57.5783 18.2715 58.4934 18.2715H58.9966C59.1568 18.2715 59.3398 18.2715 59.5228 18.2487C60.1633 18.2258 60.781 18.0885 61.33 17.8827C61.879 17.6539 62.1535 17.1964 62.1535 16.4872C62.1535 15.6408 61.8561 15.1147 61.2614 14.9088C60.6666 14.7258 59.9574 14.6343 59.111 14.6343H58.2875C58.1274 14.6343 57.9672 14.6343 57.8071 14.6572C57.5326 14.68 57.281 14.7258 57.0293 14.7944C56.7777 14.863 56.5718 14.9545 56.3888 15.0918C56.2744 15.1833 56.1829 15.2748 56.1143 15.4121C56.0457 15.5493 56.0228 15.6866 55.9999 15.8467C55.977 15.9153 55.977 15.984 55.977 16.0526V16.2585C55.9542 17.082 56.16 17.6081 56.5489 17.8827ZM73.3398 10.8827H69.1306V16.716C69.1306 17.265 69.2221 17.631 69.4051 17.8598C69.5881 18.0885 70.0228 18.2029 70.6633 18.2029C71.3953 18.2029 71.83 18.0428 71.9901 17.7225C72.1502 17.4023 72.2189 17.0134 72.2189 16.5101V15.8696H73.7744C73.7744 16.8532 73.6143 17.6768 73.2712 18.363C72.928 19.0264 72.0587 19.3696 70.6633 19.3696C69.4509 19.3696 68.6045 19.1866 68.147 18.7977C67.6895 18.4088 67.4607 17.7225 67.4607 16.716V10.8827H66.0424V9.73886H67.4607V7.4284H69.1306V9.73886H73.3398V10.8827ZM80.5914 19.2552H78.3038L74.6666 9.76174H76.3365L79.4705 18.18L82.4672 9.76174H84.2515L80.5914 19.2552ZM86.5849 12.5068C86.5849 11.2029 86.9966 10.4023 87.8202 10.1506C88.6437 9.89899 89.6731 9.76174 90.9084 9.76174C92.4182 9.76174 93.5849 9.94474 94.4084 10.3108C95.2319 10.6768 95.6437 11.6147 95.6437 13.1016V19.2781H94.111L94.2025 18.2944C93.745 18.7977 93.196 19.1179 92.5555 19.2323C91.9149 19.3467 91.2287 19.4153 90.5195 19.4153C89.1699 19.4153 88.1176 19.2323 87.3627 18.8892C86.5849 18.5461 86.2189 17.7225 86.2189 16.4186C86.2189 15.1604 86.6306 14.3598 87.4313 14.0395C88.2319 13.7193 89.2614 13.5591 90.4966 13.5591C90.6797 13.5591 90.8855 13.5591 91.0685 13.5591C91.2744 13.5591 91.4574 13.582 91.6404 13.582C91.9149 13.6049 92.1666 13.6506 92.4411 13.6735C92.6927 13.7193 92.9444 13.765 93.196 13.8565C93.379 13.9023 93.5163 13.9938 93.6535 14.1081C93.7679 14.2225 93.8823 14.3598 93.9738 14.497V13.3532C93.9738 12.1866 93.7908 11.4545 93.4248 11.18C93.0587 10.9055 92.1895 10.7454 90.8398 10.7454C90.7025 10.7454 90.5653 10.7454 90.3823 10.7454C90.2221 10.7454 90.062 10.7683 89.9019 10.7683C89.696 10.7912 89.4672 10.814 89.2614 10.8598C89.0555 10.9055 88.8725 10.997 88.7352 11.0885C88.5751 11.18 88.4607 11.2944 88.3921 11.4545C88.3234 11.5918 88.3006 11.7519 88.2777 11.9121C88.2548 11.9578 88.2548 12.0036 88.2548 12.0493V12.3238C88.2548 12.3696 88.2548 12.4153 88.2777 12.484L86.5849 12.5068ZM88.4607 17.8827C88.8496 18.1572 89.4901 18.2715 90.4051 18.2715H90.9084C91.0685 18.2715 91.2516 18.2715 91.4346 18.2487C92.0751 18.2258 92.6927 18.0885 93.2417 17.8827C93.7908 17.6539 94.0653 17.1964 94.0653 16.4872C94.0653 15.6408 93.7679 15.1147 93.1731 14.9088C92.5783 14.7258 91.8692 14.6343 91.0228 14.6343H90.1993C90.0391 14.6343 89.879 14.6343 89.7189 14.6572C89.4444 14.68 89.1927 14.7258 88.9411 14.7944C88.6895 14.863 88.4836 14.9545 88.3006 15.0918C88.1862 15.1833 88.0947 15.2748 88.0261 15.4121C87.9574 15.5493 87.9346 15.6866 87.9117 15.8467C87.8888 15.9153 87.8888 15.984 87.8888 16.0526V16.2585C87.8888 17.082 88.0718 17.6081 88.4607 17.8827ZM108.546 9.39573C108.477 8.38919 108.271 7.72579 107.905 7.38266C107.539 7.03952 106.761 6.87938 105.549 6.87938H104.703C104.497 6.87938 104.268 6.87938 104.016 6.87938C103.765 6.87938 103.49 6.90226 103.216 6.90226C102.872 6.92514 102.552 6.97089 102.232 7.01664C101.912 7.06239 101.66 7.1539 101.477 7.26828C101.225 7.40553 101.042 7.58854 100.928 7.8173C100.814 8.04605 100.722 8.29769 100.676 8.52645C100.654 8.64083 100.654 8.73233 100.654 8.84671C100.654 8.96109 100.654 9.05259 100.654 9.14409C100.654 9.89899 100.791 10.448 101.065 10.8369C101.34 11.2258 101.98 11.4546 102.964 11.5003L104.085 11.5461C104.451 11.5689 104.817 11.5689 105.16 11.5689C106.647 11.5918 107.928 11.7748 108.98 12.1179C110.033 12.4611 110.559 13.4905 110.559 15.2291C110.559 16.2585 110.376 17.1506 110.033 17.8827C109.689 18.6147 108.797 19.0493 107.379 19.1866C106.395 19.2323 105.389 19.2781 104.405 19.2781C102.781 19.2781 101.431 19.0951 100.379 18.7291C99.3267 18.363 98.8006 17.3336 98.8006 15.618V15.4578C98.8006 15.4121 98.8006 15.3434 98.8234 15.2977C98.8234 15.2519 98.8234 15.1833 98.8234 15.1376C98.8234 15.0918 98.8234 15.0232 98.8234 14.9774H100.516C100.516 16.2127 100.722 17.0362 101.111 17.4023C101.5 17.7912 102.415 17.9742 103.856 17.9742H105.343C106.624 17.9742 107.516 17.8369 108.02 17.5624C108.523 17.2879 108.774 16.5559 108.774 15.4121C108.774 14.497 108.614 13.9023 108.317 13.6049C108.02 13.3075 107.356 13.1245 106.327 13.1016C106.075 13.0787 105.846 13.0787 105.618 13.0787C105.389 13.0787 105.16 13.0787 104.931 13.0787C103.284 13.033 101.866 12.8271 100.676 12.484C99.4868 12.1408 98.8692 11.0657 98.8692 9.25847C98.8692 7.61141 99.3496 6.582 100.31 6.19311C101.271 5.78135 102.575 5.57546 104.199 5.57546H104.634C106.258 5.57546 107.608 5.73559 108.66 6.07873C109.712 6.42187 110.238 7.45128 110.238 9.18984V9.39573H108.546ZM114.287 10.6996C114.837 9.94475 116.118 9.57873 118.131 9.57873C120.212 9.57873 121.585 9.89899 122.203 10.5166C122.82 11.1572 123.14 12.3696 123.14 14.1539C123.14 15.7094 122.957 16.9676 122.569 17.9513C122.18 18.9121 120.876 19.3925 118.611 19.3925C116.667 19.3925 115.317 19.118 114.562 18.5918C113.83 18.0657 113.464 16.899 113.464 15.1376V14.2454C113.464 12.6441 113.738 11.4546 114.287 10.6996ZM115.157 15.0232V15.4578C115.157 15.6179 115.157 15.7781 115.18 15.9153C115.203 16.3042 115.271 16.6931 115.363 17.0362C115.454 17.3794 115.591 17.6539 115.82 17.8598C116.003 18.0199 116.232 18.1114 116.506 18.1572C116.781 18.2029 117.078 18.2258 117.376 18.2487H118.359C119.297 18.2487 120.029 18.1343 120.555 17.9055C121.059 17.6768 121.356 17.1049 121.425 16.2127C121.448 16.0297 121.448 15.8467 121.448 15.6637C121.448 15.4807 121.448 15.2977 121.448 15.1147C121.471 14.9317 121.471 14.7487 121.471 14.5657V14.0166C121.471 12.85 121.356 12.0264 121.104 11.5232C120.853 11.0199 120.075 10.7683 118.725 10.7683H118.359C116.941 10.7683 116.072 10.9513 115.706 11.3402C115.363 11.7291 115.18 12.5755 115.18 13.9251L115.157 15.0232ZM131.444 10.9055H128.562V19.2552H126.915V10.9055H125.245V9.73886H126.915V8.34344C126.915 7.2454 127.212 6.4905 127.784 6.10161C128.356 5.71272 129.248 5.50684 130.415 5.50684C130.506 5.50684 130.575 5.50684 130.667 5.50684C130.758 5.50684 130.85 5.50684 130.941 5.50684C131.033 5.50684 131.101 5.50684 131.193 5.50684C131.284 5.50684 131.376 5.50684 131.444 5.50684V6.69638C131.353 6.67351 131.261 6.6735 131.147 6.6735C131.055 6.6735 130.941 6.6735 130.85 6.6735H130.232C129.591 6.6735 129.157 6.78788 128.905 7.03952C128.654 7.29115 128.539 7.68004 128.539 8.18331V9.71599H131.421L131.444 10.9055ZM139.565 10.8827H135.356V16.716C135.356 17.265 135.448 17.631 135.631 17.8598C135.814 18.0885 136.248 18.2029 136.889 18.2029C137.621 18.2029 138.055 18.0428 138.216 17.7225C138.376 17.4023 138.444 17.0134 138.444 16.5101V15.8696H140C140 16.8532 139.84 17.6768 139.497 18.363C139.154 19.0264 138.284 19.3696 136.889 19.3696C135.676 19.3696 134.83 19.1866 134.372 18.7977C133.915 18.4088 133.686 17.7225 133.686 16.716V10.8827H132.268V9.73886H133.686V7.4284H135.356V9.73886H139.565V10.8827Z" fill="white"/>
<path d="M46.7582 28.9082H46.1177C46.1177 28.6108 46.0491 28.4049 45.9347 28.3363C45.8203 28.2677 45.5001 28.2219 44.9739 28.2219C44.4935 28.2219 44.1961 28.2677 44.0589 28.3363C43.9216 28.4049 43.853 28.6108 43.853 28.9082C43.853 29.3657 44.0589 29.5945 44.4935 29.6174L45.0197 29.6402L45.6831 29.6631C46.4837 29.7089 46.8726 30.1206 46.8726 30.9213C46.8726 31.4245 46.7354 31.7448 46.4837 31.9507C46.2092 32.1337 45.7288 32.2252 45.0197 32.2252C44.2876 32.2252 43.8072 32.1337 43.5327 31.9507C43.2582 31.7677 43.121 31.4474 43.121 30.9899V30.7611H43.7844V30.967C43.7844 31.2644 43.853 31.4474 44.0131 31.5389C44.1504 31.6304 44.4478 31.6762 44.8824 31.6762C45.4086 31.6762 45.7517 31.6304 45.9347 31.5161C46.0948 31.4245 46.1863 31.1958 46.1863 30.8755C46.1863 30.418 45.9805 30.1893 45.5458 30.1893C44.5621 30.1893 43.9216 30.0977 43.6014 29.9376C43.2811 29.7775 43.1438 29.4343 43.1438 28.9082C43.1438 28.4049 43.2582 28.0847 43.5099 27.9245C43.7615 27.7644 44.2419 27.6729 44.9739 27.6729C46.1406 27.6729 46.7354 28.016 46.7354 28.7252L46.7582 28.9082ZM51.0589 30.5781H51.6994V30.8069C51.6994 31.7448 51.0818 32.2252 49.8465 32.2252C49.0458 32.2252 48.5197 32.0651 48.268 31.7677C48.0164 31.4703 47.8791 30.8527 47.8791 29.9147C47.8791 29.0455 48.0164 28.4507 48.268 28.1304C48.5197 27.8102 49.0229 27.6729 49.755 27.6729C50.4641 27.6729 50.9674 27.7873 51.219 27.9932C51.4706 28.1991 51.6079 28.5879 51.6079 29.1827H50.9674V29.0683C50.9674 28.7252 50.8759 28.4964 50.7157 28.3821C50.5556 28.2677 50.2125 28.2219 49.7092 28.2219C49.2288 28.2219 48.9086 28.3363 48.7713 28.5422C48.634 28.7481 48.5654 29.2513 48.5654 29.9834C48.5654 30.7154 48.634 31.1729 48.7942 31.3788C48.9543 31.5847 49.3203 31.6762 49.8922 31.6762C50.3726 31.6762 50.6929 31.6076 50.8301 31.4703C50.9903 31.3559 51.0589 31.0585 51.0589 30.5781ZM56.4576 27.7415V32.1566H55.8171L55.8628 31.5847L55.8399 31.5618C55.6112 31.9964 55.1308 32.2252 54.3988 32.2252C53.3693 32.2252 52.8661 31.7219 52.8661 30.6925V27.7644H53.5066V30.6925C53.5066 31.0814 53.5752 31.3559 53.7125 31.4932C53.8497 31.6304 54.1014 31.6991 54.4903 31.6991C54.9935 31.6991 55.3367 31.6076 55.5425 31.4017C55.7255 31.1958 55.8171 30.8298 55.8171 30.3036V27.7873L56.4576 27.7415ZM58.5164 25.8657V32.1566H57.8759V25.8657H58.5164ZM59.8889 27.7415H60.5295L60.5066 28.2906L60.5295 28.3134C60.7582 27.8788 61.2386 27.6729 61.9706 27.6729C62.634 27.6729 63.0687 27.833 63.3203 28.1762C63.572 28.4964 63.6863 29.1141 63.6863 30.0062C63.6863 30.8298 63.572 31.4017 63.3203 31.7219C63.0687 32.0422 62.634 32.2023 61.9935 32.2023C61.2615 32.2023 60.7811 31.9964 60.5523 31.6076H60.5295V34.0095H59.8889V27.7415ZM61.7876 28.2219C61.2615 28.2219 60.9412 28.3363 60.7811 28.5651C60.621 28.7938 60.5523 29.2742 60.5523 30.0062C60.5523 30.6925 60.6438 31.1272 60.804 31.3559C60.9641 31.5847 61.3072 31.6991 61.8334 31.6991C62.3138 31.6991 62.634 31.5847 62.7942 31.3788C62.9543 31.15 63.0229 30.7154 63.0229 30.0291C63.0229 29.2742 62.9543 28.7938 62.7942 28.5651C62.634 28.3363 62.3138 28.2219 61.7876 28.2219ZM67.2778 27.7415V28.2677H65.585V30.967C65.585 31.4474 65.7909 31.6762 66.2027 31.6762C66.6144 31.6762 66.8203 31.4703 66.8203 31.0357V30.8298V30.5781H67.4151V30.8984C67.4151 31.7677 67.0033 32.2023 66.1798 32.2023C65.3334 32.2023 64.8988 31.8363 64.8988 31.1272V28.2677H64.2811V27.7415H64.8988V26.6893H65.5393V27.7415H67.2778ZM68.902 25.8657V26.5978H68.2615V25.8657H68.902ZM68.902 27.7415V32.1566H68.2615V27.7415H68.902ZM70.2746 27.7415H70.8922L70.8693 28.3363L70.8922 28.3592C71.0981 27.9017 71.5785 27.6729 72.3563 27.6729C72.9968 27.6729 73.4086 27.7873 73.6373 27.9932C73.8661 28.2219 73.9804 28.6337 73.9804 29.2742V32.1337H73.3399V29.1598C73.3399 28.7709 73.2713 28.5193 73.134 28.4049C72.9968 28.2677 72.7223 28.1991 72.3105 28.1991C71.3955 28.1991 70.9608 28.6337 70.9608 29.4801V32.1337H70.3203V27.7415H70.2746ZM79.0589 27.7415V32.4311C79.0589 33.0716 78.9216 33.5062 78.6471 33.7579C78.3726 33.9866 77.8693 34.1239 77.1373 34.1239C76.4739 34.1239 76.0393 34.0324 75.7876 33.8265C75.5589 33.6206 75.4216 33.2546 75.4216 32.6827H76.0393C76.0393 33.0716 76.1079 33.3004 76.2452 33.4147C76.3824 33.5291 76.6798 33.5749 77.1602 33.5749C77.6406 33.5749 77.9837 33.5062 78.1439 33.3461C78.304 33.2089 78.3955 32.9115 78.3955 32.4768V31.5847H78.3726C78.2125 31.9964 77.7321 32.2023 76.9314 32.2023C76.2909 32.2023 75.8334 32.0422 75.5818 31.7219C75.3301 31.4017 75.2157 30.8069 75.2157 29.9605C75.2157 29.0683 75.3301 28.4736 75.5818 28.1533C75.8334 27.833 76.2909 27.6729 76.9772 27.6729C77.7092 27.6729 78.1667 27.9017 78.3955 28.3363H78.4184L78.3955 27.7415H79.0589ZM77.1373 28.2219C76.634 28.2219 76.3138 28.3363 76.1537 28.5422C75.9935 28.7481 75.9249 29.2285 75.9249 29.9376C75.9249 30.6696 75.9935 31.1272 76.1537 31.3559C76.3138 31.5618 76.634 31.6762 77.1373 31.6762C77.6406 31.6762 77.9837 31.5618 78.1439 31.3102C78.304 31.0814 78.3955 30.5781 78.3955 29.8232C78.3955 29.1598 78.304 28.7252 78.1439 28.5193C77.9837 28.3363 77.6406 28.2219 77.1373 28.2219ZM85.3497 27.7415V28.2677H83.6569V30.967C83.6569 31.4474 83.8628 31.6762 84.2746 31.6762C84.6863 31.6762 84.8922 31.4703 84.8922 31.0357V30.8298V30.5781H85.487V30.8984C85.487 31.7677 85.0752 32.2023 84.2517 32.2023C83.4053 32.2023 82.9706 31.8363 82.9706 31.1272V28.2677H82.353V27.7415H82.9706V26.6893H83.6112V27.7415H85.3497ZM86.9739 25.8657V28.2906H86.9968C87.1569 27.8788 87.6144 27.6729 88.3693 27.6729C89.4674 27.6729 90.0164 28.1533 90.0164 29.137V32.1337H89.3759V29.1827C89.3759 28.5193 89.0327 28.1991 88.3465 28.1991C87.7974 28.1991 87.4314 28.2906 87.2484 28.4964C87.0654 28.7023 86.9739 29.0912 86.9739 29.6631V32.1337H86.3334V25.8657H86.9739ZM93.2419 27.6958C94.0654 27.6958 94.5916 27.833 94.8203 28.1304C95.072 28.4049 95.1863 29.0226 95.1863 29.9834C95.1863 30.9213 95.072 31.5389 94.8203 31.8363C94.5687 32.1108 94.0425 32.271 93.2419 32.271C92.4412 32.271 91.8922 32.1337 91.6635 31.8363C91.4118 31.5618 91.2974 30.9442 91.2974 29.9834C91.2974 29.0455 91.4118 28.4278 91.6635 28.1304C91.8922 27.833 92.4184 27.6958 93.2419 27.6958ZM93.2419 28.2219C92.67 28.2219 92.3269 28.3134 92.1896 28.4964C92.0523 28.6794 91.9837 29.1598 91.9837 29.9605C91.9837 30.7383 92.0523 31.2187 92.1896 31.4245C92.3269 31.6075 92.67 31.6991 93.2419 31.6991C93.8138 31.6991 94.1798 31.6075 94.3171 31.4245C94.4543 31.2415 94.5229 30.7611 94.5229 29.9605C94.5229 29.1827 94.4543 28.7023 94.3171 28.4964C94.1569 28.3134 93.8138 28.2219 93.2419 28.2219ZM100.013 27.7415V32.1566H99.3726L99.4184 31.5847L99.3955 31.5618C99.1667 31.9964 98.6863 32.2252 97.9543 32.2252C96.9249 32.2252 96.4216 31.7219 96.4216 30.6925V27.7644H97.0621V30.6925C97.0621 31.0814 97.1308 31.3559 97.268 31.4932C97.4053 31.6304 97.6569 31.6991 98.0458 31.6991C98.5491 31.6991 98.8922 31.6076 99.0981 31.4017C99.2811 31.1958 99.3726 30.8298 99.3726 30.3036V27.7873L100.013 27.7415ZM105.137 27.7415V32.4311C105.137 33.0716 105 33.5062 104.726 33.7579C104.451 33.9866 103.948 34.1239 103.216 34.1239C102.552 34.1239 102.118 34.0324 101.866 33.8265C101.637 33.6206 101.5 33.2546 101.5 32.6827H102.118C102.118 33.0716 102.186 33.3004 102.324 33.4147C102.461 33.5291 102.758 33.5749 103.239 33.5749C103.719 33.5749 104.062 33.5062 104.222 33.3461C104.382 33.2089 104.474 32.9115 104.474 32.4768V31.5847H104.451C104.291 31.9964 103.811 32.2023 103.01 32.2023C102.369 32.2023 101.912 32.0422 101.66 31.7219C101.409 31.4017 101.294 30.8069 101.294 29.9605C101.294 29.0683 101.409 28.4736 101.66 28.1533C101.912 27.833 102.369 27.6729 103.056 27.6729C103.788 27.6729 104.245 27.9017 104.474 28.3363H104.497L104.474 27.7415H105.137ZM103.216 28.2219C102.712 28.2219 102.392 28.3363 102.232 28.5422C102.072 28.7481 102.003 29.2285 102.003 29.9376C102.003 30.6696 102.072 31.1272 102.232 31.3559C102.392 31.5618 102.712 31.6762 103.216 31.6762C103.719 31.6762 104.062 31.5618 104.222 31.3102C104.382 31.0814 104.474 30.5781 104.474 29.8232C104.474 29.1598 104.382 28.7252 104.222 28.5193C104.062 28.3363 103.719 28.2219 103.216 28.2219ZM107.15 25.8657V28.2906H107.173C107.333 27.8788 107.791 27.6729 108.546 27.6729C109.644 27.6729 110.193 28.1533 110.193 29.137V32.1337H109.552V29.1827C109.552 28.5193 109.209 28.1991 108.523 28.1991C107.974 28.1991 107.608 28.2906 107.425 28.4964C107.242 28.7023 107.15 29.0912 107.15 29.6631V32.1337H106.51V25.8657H107.15ZM113.922 27.7415V28.2677H112.229V30.967C112.229 31.4474 112.435 31.6762 112.846 31.6762C113.258 31.6762 113.464 31.4703 113.464 31.0357V30.8298V30.5781H114.059V30.8984C114.059 31.7677 113.647 32.2023 112.824 32.2023C111.977 32.2023 111.543 31.8363 111.543 31.1272V28.2677H110.925V27.7415H111.543V26.6893H112.183V27.7415H113.922ZM118.314 28.9082H117.673C117.673 28.6108 117.605 28.4049 117.49 28.3363C117.376 28.2677 117.056 28.2219 116.529 28.2219C116.049 28.2219 115.752 28.2677 115.614 28.3363C115.477 28.4049 115.409 28.6108 115.409 28.9082C115.409 29.3657 115.614 29.5945 116.049 29.6174L116.575 29.6402L117.239 29.6631C118.039 29.7089 118.428 30.1206 118.428 30.9213C118.428 31.4245 118.291 31.7448 118.039 31.9507C117.765 32.1337 117.284 32.2252 116.575 32.2252C115.843 32.2252 115.363 32.1337 115.088 31.9507C114.814 31.7677 114.677 31.4474 114.677 30.9899V30.7611H115.34V30.967C115.34 31.2644 115.409 31.4474 115.569 31.5389C115.706 31.6304 116.003 31.6762 116.438 31.6762C116.964 31.6762 117.307 31.6304 117.49 31.5161C117.65 31.4245 117.742 31.1958 117.742 30.8755C117.742 30.418 117.536 30.1893 117.101 30.1893C116.118 30.1893 115.477 30.0977 115.157 29.9376C114.837 29.7775 114.699 29.4343 114.699 28.9082C114.699 28.4049 114.814 28.0847 115.065 27.9245C115.317 27.7644 115.797 27.6729 116.529 27.6729C117.696 27.6729 118.291 28.016 118.291 28.7252L118.314 28.9082ZM120.327 31.3102V32.1566H119.618V31.3102H120.327ZM122.409 31.3102V32.1566H121.699V31.3102H122.409ZM124.467 31.3102V32.1566H123.758V31.3102H124.467Z" fill="white"/>
</svg>
