<svg width="140" height="36" viewBox="0 0 140 36" fill="none" xmlns="http://www.w3.org/2000/svg">
<path d="M15.098 35.2909C23.402 35.2909 30.1732 28.5196 30.1732 20.1928C30.1732 11.8889 23.402 5.11768 15.098 5.11768C6.77124 5.11768 0 11.8889 0 20.1928C0 28.5196 6.77124 35.2909 15.098 35.2909Z" fill="#F19521"/>
<path d="M4.23232 30.7156C2.01337 28.428 0.503562 25.4084 0.0917969 22.0914C1.18984 21.9084 2.3565 21.5195 4.11794 19.3234L11.3925 6.37573C9.58526 14.245 3.79768 23.0293 4.23232 30.7156Z" fill="white"/>
<path d="M20.016 1C17.9114 6.42157 5.90161 34.6732 20.1075 29.6634C4.68919 36.6863 8.07481 26.5294 10.248 20.3072C13.9081 10.219 16.9278 8 20.016 1Z" fill="white" stroke="#231F20" stroke-width="0.8"/>
<path d="M3.01953 24.6307C9.21888 22.7777 40.8104 19.6895 29.9901 10.6536C43.1208 21.3823 32.5293 22.8235 25.9869 23.647C15.281 24.8366 10.6829 24.3104 3.01953 24.6307Z" stroke="#231F20" stroke-width="0.8"/>
<path d="M47.1702 19.255H45.363V7.13078H40.2617V5.6896H52.1571V7.13078H47.1473V19.255H47.1702ZM54.6506 12.5066C54.6506 11.2027 55.0624 10.402 55.8859 10.1504C56.7094 9.89875 57.7388 9.7615 58.9741 9.7615C60.4839 9.7615 61.6506 9.9445 62.4741 10.3105C63.2977 10.6765 63.7094 11.6144 63.7094 13.1014V19.2778H62.1767L62.2683 18.2942C61.8107 18.7974 61.2617 19.1177 60.6212 19.2321C59.9807 19.3465 59.2944 19.4151 58.5852 19.4151C57.2356 19.4151 56.1833 19.2321 55.4284 18.8889C54.6506 18.5458 54.2846 17.7223 54.2846 16.4184C54.2846 15.1602 54.6964 14.3595 55.497 14.0393C56.2977 13.719 57.3271 13.5589 58.5624 13.5589C58.7454 13.5589 58.9513 13.5589 59.1343 13.5589C59.3402 13.5589 59.5232 13.5818 59.7062 13.5818C59.9807 13.6046 60.2323 13.6504 60.5068 13.6733C60.7585 13.719 61.0101 13.7648 61.2617 13.8563C61.4447 13.902 61.582 13.9935 61.7192 14.1079C61.8336 14.2223 61.948 14.3595 62.0395 14.4968V13.353C62.0395 12.1863 61.8565 11.4543 61.4905 11.1798C61.1245 10.9053 60.2552 10.7452 58.9055 10.7452C58.7683 10.7452 58.631 10.7452 58.448 10.7452C58.2879 10.7452 58.1277 10.768 57.9676 10.768C57.7617 10.7909 57.533 10.8138 57.3271 10.8595C57.1212 10.9053 56.9382 10.9968 56.8009 11.0883C56.6408 11.1798 56.5264 11.2942 56.4578 11.4543C56.3892 11.5916 56.3663 11.7517 56.3434 11.9118C56.3205 11.9576 56.3205 12.0033 56.3205 12.0491V12.3236C56.3205 12.3693 56.3205 12.4151 56.3434 12.4837L54.6506 12.5066ZM56.5493 17.8824C56.9382 18.1569 57.5787 18.2713 58.4937 18.2713H58.997C59.1571 18.2713 59.3402 18.2713 59.5232 18.2484C60.1637 18.2255 60.7813 18.0883 61.3303 17.8824C61.8794 17.6537 62.1539 17.1961 62.1539 16.487C62.1539 15.6406 61.8565 15.1144 61.2617 14.9086C60.6669 14.7255 59.9578 14.634 59.1114 14.634H58.2879C58.1277 14.634 57.9676 14.634 57.8075 14.6569C57.533 14.6798 57.2813 14.7255 57.0297 14.7942C56.7781 14.8628 56.5722 14.9543 56.3892 15.0916C56.2748 15.1831 56.1833 15.2746 56.1147 15.4118C56.046 15.5491 56.0232 15.6863 56.0003 15.8465C55.9774 15.9151 55.9774 15.9837 55.9774 16.0523V16.2582C55.9545 17.0818 56.1604 17.6079 56.5493 17.8824ZM73.3402 10.8824H69.131V16.7157C69.131 17.2648 69.2225 17.6308 69.4055 17.8595C69.5885 18.0883 70.0232 18.2027 70.6637 18.2027C71.3957 18.2027 71.8303 18.0425 71.9905 17.7223C72.1506 17.402 72.2192 17.0131 72.2192 16.5099V15.8693H73.7748C73.7748 16.853 73.6147 17.6765 73.2715 18.3628C72.9284 19.0262 72.0591 19.3693 70.6637 19.3693C69.4513 19.3693 68.6049 19.1863 68.1473 18.7974C67.6898 18.4086 67.4611 17.7223 67.4611 16.7157V10.8824H66.0428V9.73862H67.4611V7.42816H69.131V9.73862H73.3402V10.8824ZM80.5918 19.255H78.3042L74.6669 9.7615H76.3369L79.4709 18.1798L82.4676 9.7615H84.2519L80.5918 19.255ZM86.5852 12.5066C86.5852 11.2027 86.997 10.402 87.8205 10.1504C88.6441 9.89875 89.6735 9.7615 90.9088 9.7615C92.4186 9.7615 93.5853 9.9445 94.4088 10.3105C95.2323 10.6765 95.6441 11.6144 95.6441 13.1014V19.2778H94.1114L94.2029 18.2942C93.7454 18.7974 93.1964 19.1177 92.5558 19.2321C91.9153 19.3465 91.229 19.4151 90.5199 19.4151C89.1702 19.4151 88.1179 19.2321 87.363 18.8889C86.5852 18.5458 86.2192 17.7223 86.2192 16.4184C86.2192 15.1602 86.631 14.3595 87.4317 14.0393C88.2323 13.719 89.2617 13.5589 90.497 13.5589C90.68 13.5589 90.8859 13.5589 91.0689 13.5589C91.2748 13.5589 91.4578 13.5818 91.6408 13.5818C91.9153 13.6046 92.1669 13.6504 92.4415 13.6733C92.6931 13.719 92.9447 13.7648 93.1964 13.8563C93.3794 13.902 93.5166 13.9935 93.6539 14.1079C93.7683 14.2223 93.8826 14.3595 93.9741 14.4968V13.353C93.9741 12.1863 93.7911 11.4543 93.4251 11.1798C93.0591 10.9053 92.1898 10.7452 90.8402 10.7452C90.7029 10.7452 90.5656 10.7452 90.3826 10.7452C90.2225 10.7452 90.0624 10.768 89.9022 10.768C89.6964 10.7909 89.4676 10.8138 89.2617 10.8595C89.0558 10.9053 88.8728 10.9968 88.7356 11.0883C88.5754 11.1798 88.4611 11.2942 88.3924 11.4543C88.3238 11.5916 88.3009 11.7517 88.2781 11.9118C88.2552 11.9576 88.2552 12.0033 88.2552 12.0491V12.3236C88.2552 12.3693 88.2552 12.4151 88.2781 12.4837L86.5852 12.5066ZM88.4611 17.8824C88.85 18.1569 89.4905 18.2713 90.4055 18.2713H90.9088C91.0689 18.2713 91.2519 18.2713 91.4349 18.2484C92.0754 18.2255 92.6931 18.0883 93.2421 17.8824C93.7911 17.6537 94.0656 17.1961 94.0656 16.487C94.0656 15.6406 93.7683 15.1144 93.1735 14.9086C92.5787 14.7255 91.8696 14.634 91.0232 14.634H90.1996C90.0395 14.634 89.8794 14.634 89.7192 14.6569C89.4447 14.6798 89.1931 14.7255 88.9415 14.7942C88.6898 14.8628 88.4839 14.9543 88.3009 15.0916C88.1866 15.1831 88.095 15.2746 88.0264 15.4118C87.9578 15.5491 87.9349 15.6863 87.912 15.8465C87.8892 15.9151 87.8892 15.9837 87.8892 16.0523V16.2582C87.8892 17.0818 88.0722 17.6079 88.4611 17.8824ZM108.546 9.39548C108.477 8.38894 108.272 7.72555 107.906 7.38241C107.539 7.03927 106.762 6.87914 105.549 6.87914H104.703C104.497 6.87914 104.268 6.87914 104.017 6.87914C103.765 6.87914 103.49 6.90202 103.216 6.90202C102.873 6.92489 102.553 6.97065 102.232 7.0164C101.912 7.06215 101.66 7.15365 101.477 7.26803C101.226 7.40529 101.043 7.58829 100.928 7.81705C100.814 8.04581 100.723 8.29744 100.677 8.5262C100.654 8.64058 100.654 8.73208 100.654 8.84646C100.654 8.96084 100.654 9.05234 100.654 9.14385C100.654 9.89875 100.791 10.4478 101.066 10.8367C101.34 11.2255 101.981 11.4543 102.964 11.5001L104.085 11.5458C104.451 11.5687 104.817 11.5687 105.16 11.5687C106.647 11.5916 107.928 11.7746 108.981 12.1177C110.033 12.4608 110.559 13.4903 110.559 15.2288C110.559 16.2582 110.376 17.1504 110.033 17.8824C109.69 18.6144 108.798 19.0491 107.379 19.1863C106.396 19.2321 105.389 19.2778 104.406 19.2778C102.781 19.2778 101.432 19.0948 100.379 18.7288C99.3271 18.3628 98.8009 17.3334 98.8009 15.6177V15.4576C98.8009 15.4118 98.8009 15.3432 98.8238 15.2974C98.8238 15.2517 98.8238 15.1831 98.8238 15.1373C98.8238 15.0916 98.8238 15.0229 98.8238 14.9772H100.517C100.517 16.2125 100.723 17.036 101.111 17.402C101.5 17.7909 102.415 17.9739 103.856 17.9739H105.343C106.624 17.9739 107.517 17.8367 108.02 17.5622C108.523 17.2876 108.775 16.5556 108.775 15.4118C108.775 14.4968 108.615 13.902 108.317 13.6046C108.02 13.3072 107.356 13.1242 106.327 13.1014C106.075 13.0785 105.847 13.0785 105.618 13.0785C105.389 13.0785 105.16 13.0785 104.932 13.0785C103.285 13.0327 101.866 12.8269 100.677 12.4837C99.4872 12.1406 98.8696 11.0654 98.8696 9.25822C98.8696 7.61117 99.35 6.58176 100.311 6.19287C101.272 5.7811 102.575 5.57522 104.2 5.57522H104.634C106.258 5.57522 107.608 5.73535 108.66 6.07849C109.713 6.42162 110.239 7.45104 110.239 9.1896V9.39548H108.546ZM114.288 10.6994C114.837 9.9445 116.118 9.57848 118.131 9.57848C120.213 9.57848 121.585 9.89875 122.203 10.5164C122.821 11.1569 123.141 12.3693 123.141 14.1536C123.141 15.7092 122.958 16.9674 122.569 17.951C122.18 18.9118 120.876 19.3922 118.611 19.3922C116.667 19.3922 115.317 19.1177 114.562 18.5916C113.83 18.0654 113.464 16.8988 113.464 15.1373V14.2452C113.464 12.6438 113.739 11.4543 114.288 10.6994ZM115.157 15.0229V15.4576C115.157 15.6177 115.157 15.7778 115.18 15.9151C115.203 16.304 115.272 16.6929 115.363 17.036C115.455 17.3791 115.592 17.6537 115.821 17.8595C116.004 18.0197 116.232 18.1112 116.507 18.1569C116.781 18.2027 117.079 18.2255 117.376 18.2484H118.36C119.298 18.2484 120.03 18.134 120.556 17.9053C121.059 17.6765 121.356 17.1046 121.425 16.2125C121.448 16.0295 121.448 15.8465 121.448 15.6635C121.448 15.4804 121.448 15.2974 121.448 15.1144C121.471 14.9314 121.471 14.7484 121.471 14.5654V14.0164C121.471 12.8497 121.356 12.0262 121.105 11.5229C120.853 11.0197 120.075 10.768 118.726 10.768H118.36C116.941 10.768 116.072 10.951 115.706 11.3399C115.363 11.7288 115.18 12.5752 115.18 13.9249L115.157 15.0229ZM131.445 10.9053H128.562V19.255H126.915V10.9053H125.245V9.73862H126.915V8.34319C126.915 7.24515 127.213 6.49025 127.785 6.10136C128.356 5.71248 129.249 5.50659 130.415 5.50659C130.507 5.50659 130.575 5.50659 130.667 5.50659C130.758 5.50659 130.85 5.50659 130.941 5.50659C131.033 5.50659 131.102 5.50659 131.193 5.50659C131.285 5.50659 131.376 5.50659 131.445 5.50659V6.69614C131.353 6.67326 131.262 6.67326 131.147 6.67326C131.056 6.67326 130.941 6.67326 130.85 6.67326H130.232C129.592 6.67326 129.157 6.78764 128.906 7.03927C128.654 7.29091 128.54 7.6798 128.54 8.18307V9.71574H131.422L131.445 10.9053ZM139.566 10.8824H135.356V16.7157C135.356 17.2648 135.448 17.6308 135.631 17.8595C135.814 18.0883 136.249 18.2027 136.889 18.2027C137.621 18.2027 138.056 18.0425 138.216 17.7223C138.376 17.402 138.445 17.0131 138.445 16.5099V15.8693H140C140 16.853 139.84 17.6765 139.497 18.3628C139.154 19.0262 138.285 19.3693 136.889 19.3693C135.677 19.3693 134.83 19.1863 134.373 18.7974C133.915 18.4086 133.687 17.7223 133.687 16.7157V10.8824H132.268V9.73862H133.687V7.42816H135.356V9.73862H139.566V10.8824Z" fill="black"/>
<path d="M46.7583 28.9084H46.1178C46.1178 28.6111 46.0492 28.4052 45.9348 28.3366C45.8204 28.2679 45.5002 28.2222 44.974 28.2222C44.4936 28.2222 44.1963 28.2679 44.059 28.3366C43.9217 28.4052 43.8531 28.6111 43.8531 28.9084C43.8531 29.366 44.059 29.5947 44.4936 29.6176L45.0198 29.6405L45.6832 29.6634C46.4838 29.7091 46.8727 30.1209 46.8727 30.9215C46.8727 31.4248 46.7355 31.7451 46.4838 31.9509C46.2093 32.1339 45.7289 32.2254 45.0198 32.2254C44.2878 32.2254 43.8074 32.1339 43.5329 31.9509C43.2583 31.7679 43.1211 31.4477 43.1211 30.9901V30.7614H43.7845V30.9673C43.7845 31.2647 43.8531 31.4477 44.0132 31.5392C44.1505 31.6307 44.4479 31.6764 44.8825 31.6764C45.4087 31.6764 45.7518 31.6307 45.9348 31.5163C46.095 31.4248 46.1865 31.196 46.1865 30.8758C46.1865 30.4183 45.9806 30.1895 45.5459 30.1895C44.5623 30.1895 43.9217 30.098 43.6015 29.9379C43.2812 29.7777 43.144 29.4346 43.144 28.9084C43.144 28.4052 43.2583 28.0849 43.51 27.9248C43.7616 27.7647 44.242 27.6732 44.974 27.6732C46.1407 27.6732 46.7355 28.0163 46.7355 28.7254L46.7583 28.9084ZM51.059 30.5784H51.6995V30.8071C51.6995 31.7451 51.0819 32.2254 49.8466 32.2254C49.0459 32.2254 48.5198 32.0653 48.2682 31.7679C48.0165 31.4705 47.8793 30.8529 47.8793 29.915C47.8793 29.0457 48.0165 28.4509 48.2682 28.1307C48.5198 27.8104 49.0231 27.6732 49.7551 27.6732C50.4642 27.6732 50.9675 27.7875 51.2191 27.9934C51.4708 28.1993 51.608 28.5882 51.608 29.183H50.9675V29.0686C50.9675 28.7254 50.876 28.4967 50.7159 28.3823C50.5557 28.2679 50.2126 28.2222 49.7093 28.2222C49.2289 28.2222 48.9087 28.3366 48.7714 28.5424C48.6342 28.7483 48.5655 29.2516 48.5655 29.9836C48.5655 30.7156 48.6342 31.1732 48.7943 31.379C48.9544 31.5849 49.3204 31.6764 49.8923 31.6764C50.3727 31.6764 50.693 31.6078 50.8302 31.4705C50.9904 31.3562 51.059 31.0588 51.059 30.5784ZM56.4577 27.7418V32.1568H55.8172L55.8629 31.5849L55.8401 31.562C55.6113 31.9967 55.1309 32.2254 54.3989 32.2254C53.3695 32.2254 52.8662 31.7222 52.8662 30.6928V27.7647H53.5067V30.6928C53.5067 31.0817 53.5753 31.3562 53.7126 31.4934C53.8499 31.6307 54.1015 31.6993 54.4904 31.6993C54.9936 31.6993 55.3368 31.6078 55.5427 31.4019C55.7257 31.196 55.8172 30.83 55.8172 30.3039V27.7875L56.4577 27.7418ZM58.5165 25.866V32.1568H57.876V25.866H58.5165ZM59.8891 27.7418H60.5296L60.5067 28.2908L60.5296 28.3137C60.7584 27.879 61.2387 27.6732 61.9708 27.6732C62.6342 27.6732 63.0688 27.8333 63.3204 28.1764C63.5721 28.4967 63.6865 29.1143 63.6865 30.0065C63.6865 30.83 63.5721 31.4019 63.3204 31.7222C63.0688 32.0424 62.6342 32.2026 61.9936 32.2026C61.2616 32.2026 60.7812 31.9967 60.5525 31.6078H60.5296V34.0098H59.8891V27.7418ZM61.7878 28.2222C61.2616 28.2222 60.9414 28.3366 60.7812 28.5653C60.6211 28.7941 60.5525 29.2745 60.5525 30.0065C60.5525 30.6928 60.644 31.1274 60.8041 31.3562C60.9642 31.5849 61.3074 31.6993 61.8335 31.6993C62.3139 31.6993 62.6342 31.5849 62.7943 31.379C62.9544 31.1503 63.0231 30.7156 63.0231 30.0294C63.0231 29.2745 62.9544 28.7941 62.7943 28.5653C62.6342 28.3366 62.3139 28.2222 61.7878 28.2222ZM67.278 27.7418V28.2679H65.5852V30.9673C65.5852 31.4477 65.791 31.6764 66.2028 31.6764C66.6146 31.6764 66.8204 31.4705 66.8204 31.0359V30.83V30.5784H67.4152V30.8986C67.4152 31.7679 67.0034 32.2026 66.1799 32.2026C65.3335 32.2026 64.8989 31.8366 64.8989 31.1274V28.2679H64.2812V27.7418H64.8989V26.6895H65.5394V27.7418H67.278ZM68.9021 25.866V26.598H68.2616V25.866H68.9021ZM68.9021 27.7418V32.1568H68.2616V27.7418H68.9021ZM70.2747 27.7418H70.8923L70.8695 28.3366L70.8923 28.3594C71.0982 27.9019 71.5786 27.6732 72.3564 27.6732C72.9969 27.6732 73.4087 27.7875 73.6374 27.9934C73.8662 28.2222 73.9806 28.6339 73.9806 29.2745V32.1339H73.3401V29.1601C73.3401 28.7712 73.2714 28.5196 73.1342 28.4052C72.9969 28.2679 72.7224 28.1993 72.3106 28.1993C71.3956 28.1993 70.961 28.6339 70.961 29.4803V32.1339H70.3204V27.7418H70.2747ZM79.059 27.7418V32.4313C79.059 33.0719 78.9217 33.5065 78.6472 33.7581C78.3727 33.9869 77.8695 34.1241 77.1374 34.1241C76.474 34.1241 76.0394 34.0326 75.7878 33.8267C75.559 33.6209 75.4218 33.2549 75.4218 32.683H76.0394C76.0394 33.0718 76.108 33.3006 76.2453 33.415C76.3825 33.5294 76.6799 33.5751 77.1603 33.5751C77.6407 33.5751 77.9838 33.5065 78.144 33.3464C78.3041 33.2091 78.3956 32.9117 78.3956 32.4771V31.5849H78.3727C78.2126 31.9967 77.7322 32.2026 76.9316 32.2026C76.291 32.2026 75.8335 32.0424 75.5819 31.7222C75.3302 31.4019 75.2159 30.8071 75.2159 29.9607C75.2159 29.0686 75.3302 28.4738 75.5819 28.1535C75.8335 27.8333 76.291 27.6732 76.9773 27.6732C77.7093 27.6732 78.1669 27.9019 78.3956 28.3366H78.4185L78.3956 27.7418H79.059ZM77.1374 28.2222C76.6342 28.2222 76.3139 28.3366 76.1538 28.5424C75.9936 28.7483 75.925 29.2287 75.925 29.9379C75.925 30.6699 75.9936 31.1274 76.1538 31.3562C76.3139 31.562 76.6342 31.6764 77.1374 31.6764C77.6407 31.6764 77.9838 31.562 78.144 31.3104C78.3041 31.0816 78.3956 30.5784 78.3956 29.8235C78.3956 29.1601 78.3041 28.7254 78.144 28.5196C77.9838 28.3366 77.6407 28.2222 77.1374 28.2222ZM85.3499 27.7418V28.2679H83.657V30.9673C83.657 31.4477 83.8629 31.6764 84.2747 31.6764C84.6865 31.6764 84.8923 31.4705 84.8923 31.0359V30.83V30.5784H85.4871V30.8986C85.4871 31.7679 85.0753 32.2026 84.2518 32.2026C83.4054 32.2026 82.9708 31.8366 82.9708 31.1274V28.2679H82.3531V27.7418H82.9708V26.6895H83.6113V27.7418H85.3499ZM86.974 25.866V28.2908H86.9969C87.157 27.879 87.6146 27.6732 88.3695 27.6732C89.4675 27.6732 90.0165 28.1535 90.0165 29.1372V32.1339H89.376V29.183C89.376 28.5196 89.0329 28.1993 88.3466 28.1993C87.7976 28.1993 87.4316 28.2908 87.2485 28.4967C87.0655 28.7026 86.974 29.0915 86.974 29.6634V32.1339H86.3335V25.866H86.974ZM93.242 27.696C94.0655 27.696 94.5917 27.8333 94.8204 28.1307C95.0721 28.4052 95.1865 29.0228 95.1865 29.9836C95.1865 30.9215 95.0721 31.5392 94.8204 31.8366C94.5688 32.1111 94.0427 32.2712 93.242 32.2712C92.4414 32.2712 91.8923 32.1339 91.6636 31.8366C91.4119 31.562 91.2976 30.9444 91.2976 29.9836C91.2976 29.0457 91.4119 28.4281 91.6636 28.1307C91.8923 27.8333 92.4185 27.696 93.242 27.696ZM93.242 28.2222C92.6701 28.2222 92.327 28.3137 92.1897 28.4967C92.0525 28.6797 91.9838 29.1601 91.9838 29.9607C91.9838 30.7385 92.0525 31.2189 92.1897 31.4248C92.327 31.6078 92.6701 31.6993 93.242 31.6993C93.8139 31.6993 94.1799 31.6078 94.3172 31.4248C94.4544 31.2418 94.5231 30.7614 94.5231 29.9607C94.5231 29.183 94.4544 28.7026 94.3172 28.4967C94.157 28.3137 93.8139 28.2222 93.242 28.2222ZM100.013 27.7418V32.1568H99.3727L99.4185 31.5849L99.3956 31.562C99.1668 31.9967 98.6865 32.2254 97.9544 32.2254C96.925 32.2254 96.4218 31.7222 96.4218 30.6928V27.7647H97.0623V30.6928C97.0623 31.0817 97.1309 31.3562 97.2682 31.4934C97.4054 31.6307 97.657 31.6993 98.0459 31.6993C98.5492 31.6993 98.8923 31.6078 99.0982 31.4019C99.2812 31.196 99.3727 30.83 99.3727 30.3039V27.7875L100.013 27.7418ZM105.137 27.7418V32.4313C105.137 33.0719 105 33.5065 104.726 33.7581C104.451 33.9869 103.948 34.1241 103.216 34.1241C102.552 34.1241 102.118 34.0326 101.866 33.8267C101.637 33.6209 101.5 33.2549 101.5 32.683H102.118C102.118 33.0718 102.186 33.3006 102.324 33.415C102.461 33.5294 102.758 33.5751 103.239 33.5751C103.719 33.5751 104.062 33.5065 104.222 33.3464C104.383 33.2091 104.474 32.9117 104.474 32.4771V31.5849H104.451C104.291 31.9967 103.811 32.2026 103.01 32.2026C102.369 32.2026 101.912 32.0424 101.66 31.7222C101.409 31.4019 101.294 30.8071 101.294 29.9607C101.294 29.0686 101.409 28.4738 101.66 28.1535C101.912 27.8333 102.369 27.6732 103.056 27.6732C103.788 27.6732 104.245 27.9019 104.474 28.3366H104.497L104.474 27.7418H105.137ZM103.216 28.2222C102.713 28.2222 102.392 28.3366 102.232 28.5424C102.072 28.7483 102.003 29.2287 102.003 29.9379C102.003 30.6699 102.072 31.1274 102.232 31.3562C102.392 31.562 102.713 31.6764 103.216 31.6764C103.719 31.6764 104.062 31.562 104.222 31.3104C104.383 31.0816 104.474 30.5784 104.474 29.8235C104.474 29.1601 104.383 28.7254 104.222 28.5196C104.062 28.3366 103.719 28.2222 103.216 28.2222ZM107.151 25.866V28.2908H107.173C107.334 27.879 107.791 27.6732 108.546 27.6732C109.644 27.6732 110.193 28.1535 110.193 29.1372V32.1339H109.552V29.183C109.552 28.5196 109.209 28.1993 108.523 28.1993C107.974 28.1993 107.608 28.2908 107.425 28.4967C107.242 28.7026 107.151 29.0915 107.151 29.6634V32.1339H106.51V25.866H107.151ZM113.922 27.7418V28.2679H112.229V30.9673C112.229 31.4477 112.435 31.6764 112.847 31.6764C113.258 31.6764 113.464 31.4705 113.464 31.0359V30.83V30.5784H114.059V30.8986C114.059 31.7679 113.647 32.2026 112.824 32.2026C111.977 32.2026 111.543 31.8366 111.543 31.1274V28.2679H110.925V27.7418H111.543V26.6895H112.183V27.7418H113.922ZM118.314 28.9084H117.673C117.673 28.6111 117.605 28.4052 117.49 28.3366C117.376 28.2679 117.056 28.2222 116.53 28.2222C116.049 28.2222 115.752 28.2679 115.615 28.3366C115.477 28.4052 115.409 28.6111 115.409 28.9084C115.409 29.366 115.615 29.5947 116.049 29.6176L116.575 29.6405L117.239 29.6634C118.039 29.7091 118.428 30.1209 118.428 30.9215C118.428 31.4248 118.291 31.7451 118.039 31.9509C117.765 32.1339 117.284 32.2254 116.575 32.2254C115.843 32.2254 115.363 32.1339 115.088 31.9509C114.814 31.7679 114.677 31.4477 114.677 30.9901V30.7614H115.34V30.9673C115.34 31.2647 115.409 31.4477 115.569 31.5392C115.706 31.6307 116.003 31.6764 116.438 31.6764C116.964 31.6764 117.307 31.6307 117.49 31.5163C117.651 31.4248 117.742 31.196 117.742 30.8758C117.742 30.4183 117.536 30.1895 117.101 30.1895C116.118 30.1895 115.477 30.098 115.157 29.9379C114.837 29.7777 114.7 29.4346 114.7 28.9084C114.7 28.4052 114.814 28.0849 115.066 27.9248C115.317 27.7647 115.798 27.6732 116.53 27.6732C117.696 27.6732 118.291 28.0163 118.291 28.7254L118.314 28.9084ZM120.327 31.3104V32.1568H119.618V31.3104H120.327ZM122.409 31.3104V32.1568H121.7V31.3104H122.409ZM124.467 31.3104V32.1568H123.758V31.3104H124.467Z" fill="black"/>
</svg>
