<svg width="15" height="15" viewBox="0 0 15 15" fill="none" xmlns="http://www.w3.org/2000/svg">
<path id="Vector" d="M14.4334 10.4808C14.7963 10.8447 15 11.3375 15 11.8513C15 12.3651 14.7963 12.858 14.4334 13.2218L13.8637 13.8785C8.73618 18.7876 -3.74146 6.31307 1.09182 1.16925L1.81181 0.543179C2.17604 0.190498 2.66448 -0.00460411 3.17145 8.25224e-05C3.67843 0.00476916 4.16318 0.208868 4.52083 0.568222C4.54023 0.58763 5.70035 2.09459 5.70035 2.09459C6.04458 2.45623 6.23621 2.93661 6.23539 3.43589C6.23457 3.93517 6.04138 4.41492 5.69596 4.77543L4.97097 5.687C5.37219 6.66186 5.96209 7.54784 6.70677 8.29402C7.45144 9.04021 8.33623 9.63189 9.31028 10.0351L10.2275 9.3057C10.588 8.96055 11.0677 8.76758 11.5668 8.76688C12.066 8.76619 12.5462 8.95781 12.9077 9.30194C12.9077 9.30194 14.414 10.4614 14.4334 10.4808ZM13.572 11.3911C13.572 11.3911 12.0738 10.2385 12.0544 10.2191C11.9254 10.0913 11.7511 10.0195 11.5695 10.0195C11.3878 10.0195 11.2136 10.0913 11.0846 10.2191C11.0677 10.2367 9.80488 11.2428 9.80488 11.2428C9.71978 11.3105 9.61851 11.3549 9.51103 11.3716C9.40356 11.3883 9.29359 11.3767 9.19196 11.3379C7.93008 10.8681 6.78391 10.1326 5.83109 9.18116C4.87827 8.22974 4.14105 7.08466 3.66937 5.82348C3.62754 5.72046 3.61391 5.60817 3.62986 5.49813C3.64582 5.3881 3.69079 5.2843 3.76015 5.19741C3.76015 5.19741 4.76625 3.93399 4.78315 3.91771C4.91104 3.78873 4.98279 3.61445 4.98279 3.43282C4.98279 3.25119 4.91104 3.07691 4.78315 2.94793C4.76374 2.92914 3.61114 1.4297 3.61114 1.4297C3.48023 1.31231 3.30938 1.24945 3.1336 1.25399C2.95783 1.25853 2.79045 1.33013 2.66577 1.45412L1.94579 2.08019C-1.58652 6.32747 9.22639 16.5406 12.9484 13.0233L13.5187 12.3659C13.6524 12.2421 13.7327 12.0712 13.7426 11.8893C13.7525 11.7074 13.6913 11.5288 13.572 11.3911Z" fill="#212121"/>
</svg>
