<svg width="146" height="36" viewBox="0 0 146 36" fill="none" xmlns="http://www.w3.org/2000/svg">
<path d="M42.5365 19.28C39.3818 19.28 36.9738 18.4773 35.3125 16.872C33.6698 15.248 32.8485 12.9987 32.8485 10.124C32.8485 7.11866 33.6512 4.79466 35.2565 3.15199C36.8805 1.50932 39.2978 0.687988 42.5085 0.687988C43.6098 0.687988 44.5898 0.771988 45.4485 0.939988C46.3258 1.10799 47.1658 1.33199 47.9685 1.61199V5.55999C46.3445 4.88799 44.6365 4.55199 42.8445 4.55199C40.9778 4.55199 39.6058 4.99999 38.7285 5.89599C37.8698 6.79199 37.4405 8.20132 37.4405 10.124C37.4405 11.9533 37.8978 13.2973 38.8125 14.156C39.7272 15.0147 41.0898 15.444 42.9005 15.444C43.7778 15.444 44.6458 15.3693 45.5045 15.22C46.3632 15.052 47.1938 14.8 47.9965 14.464V18.44C47.2125 18.7013 46.3818 18.9067 45.5045 19.056C44.6272 19.2053 43.6378 19.28 42.5365 19.28Z" fill="#0B2E58"/>
<path d="M23.6173 19.28C22.4226 19.28 21.3026 19.1867 20.2573 19C19.2306 18.832 18.3439 18.58 17.5973 18.244V14.408C18.4186 14.7627 19.3239 15.052 20.3133 15.276C21.3213 15.5 22.2733 15.612 23.1693 15.612C24.2893 15.612 25.1199 15.5093 25.6613 15.304C26.2213 15.0987 26.5013 14.6507 26.5013 13.96C26.5013 13.4933 26.3613 13.12 26.0813 12.84C25.8199 12.56 25.3813 12.3173 24.7653 12.112C24.1679 11.888 23.3466 11.6267 22.3013 11.328C21.0693 10.9547 20.0893 10.544 19.3613 10.096C18.6333 9.62932 18.1106 9.06932 17.7933 8.41599C17.4759 7.76266 17.3173 6.95999 17.3173 6.00799C17.3173 4.29065 17.9333 2.97465 19.1653 2.05999C20.3973 1.14532 22.2173 0.687988 24.6253 0.687988C25.6706 0.687988 26.6879 0.771988 27.6773 0.939988C28.6666 1.08932 29.4693 1.26666 30.0853 1.47199V5.33599C29.2826 5.01866 28.4706 4.78532 27.6493 4.63599C26.8466 4.48666 26.0626 4.41199 25.2973 4.41199C24.2893 4.41199 23.4679 4.50532 22.8333 4.69199C22.2173 4.87865 21.9093 5.30799 21.9093 5.97999C21.9093 6.37199 22.0213 6.68932 22.2453 6.93199C22.4693 7.15599 22.8519 7.36132 23.3933 7.54799C23.9533 7.73466 24.7093 7.95866 25.6613 8.21999C27.1359 8.61199 28.2653 9.08799 29.0493 9.64799C29.8333 10.1893 30.3746 10.824 30.6733 11.552C30.9719 12.2613 31.1213 13.064 31.1213 13.96C31.1213 15.5467 30.5053 16.8347 29.2733 17.824C28.0413 18.7947 26.1559 19.28 23.6173 19.28Z" fill="#0B2E58"/>
<path d="M6.59998 19V4.44002H1.30798V0.968018H16.4V4.44002H11.108V19H6.59998Z" fill="#0B2E58"/>
<path d="M3.53004 32.9999V26.8509H1.26404V25.9159H6.98404V26.8509H4.72904V32.9999H3.53004Z" fill="#0B2E58"/>
<path d="M8.531 33.1099C8.201 33.1099 7.893 33.0512 7.607 32.9339C7.32833 32.8166 7.10467 32.6406 6.936 32.4059C6.76733 32.1639 6.683 31.8669 6.683 31.5149C6.683 31.0162 6.85167 30.6166 7.189 30.3159C7.53367 30.0079 8.06167 29.8539 8.773 29.8539H10.445V29.6229C10.445 29.3736 10.4047 29.1756 10.324 29.0289C10.2507 28.8822 10.1113 28.7759 9.906 28.7099C9.708 28.6439 9.41467 28.6109 9.026 28.6109C8.41 28.6109 7.83433 28.7026 7.299 28.8859V27.9949C7.53367 27.8996 7.81967 27.8226 8.157 27.7639C8.49433 27.7052 8.85733 27.6759 9.246 27.6759C10.0087 27.6759 10.588 27.8299 10.984 28.1379C11.3873 28.4459 11.589 28.9482 11.589 29.6449V32.9999H10.566L10.489 32.4719C10.2763 32.6772 10.0123 32.8349 9.697 32.9449C9.389 33.0549 9.00033 33.1099 8.531 33.1099ZM8.85 32.2519C9.20933 32.2519 9.521 32.1932 9.785 32.0759C10.0563 31.9512 10.2763 31.7862 10.445 31.5809V30.6679H8.795C8.443 30.6679 8.18633 30.7376 8.025 30.8769C7.871 31.0089 7.794 31.2142 7.794 31.4929C7.794 31.7642 7.88567 31.9586 8.069 32.0759C8.25233 32.1932 8.51267 32.2519 8.85 32.2519Z" fill="#0B2E58"/>
<path d="M14.9096 33.1099C14.3523 33.1099 13.9343 32.9632 13.6556 32.6699C13.3843 32.3692 13.2486 31.9622 13.2486 31.4489V28.7209H12.4786V27.7859H13.2486V26.5869L14.4366 26.2239V27.7859H15.8226L15.7456 28.7209H14.4366V31.3829C14.4366 31.6836 14.5063 31.8962 14.6456 32.0209C14.785 32.1382 15.0123 32.1969 15.3276 32.1969C15.5256 32.1969 15.7346 32.1602 15.9546 32.0869V32.9339C15.6686 33.0512 15.3203 33.1099 14.9096 33.1099Z" fill="#0B2E58"/>
<path d="M18.4939 32.9999L16.4369 27.7859H17.6799L19.1429 31.8339L20.6059 27.7859H21.8379L19.7919 32.9999H18.4939Z" fill="#0B2E58"/>
<path d="M24.1501 33.1099C23.8201 33.1099 23.5121 33.0512 23.2261 32.9339C22.9475 32.8166 22.7238 32.6406 22.5551 32.4059C22.3865 32.1639 22.3021 31.8669 22.3021 31.5149C22.3021 31.0162 22.4708 30.6166 22.8081 30.3159C23.1528 30.0079 23.6808 29.8539 24.3921 29.8539H26.0641V29.6229C26.0641 29.3736 26.0238 29.1756 25.9431 29.0289C25.8698 28.8822 25.7305 28.7759 25.5251 28.7099C25.3271 28.6439 25.0338 28.6109 24.6451 28.6109C24.0291 28.6109 23.4535 28.7026 22.9181 28.8859V27.9949C23.1528 27.8996 23.4388 27.8226 23.7761 27.7639C24.1135 27.7052 24.4765 27.6759 24.8651 27.6759C25.6278 27.6759 26.2071 27.8299 26.6031 28.1379C27.0065 28.4459 27.2081 28.9482 27.2081 29.6449V32.9999H26.1851L26.1081 32.4719C25.8955 32.6772 25.6315 32.8349 25.3161 32.9449C25.0081 33.0549 24.6195 33.1099 24.1501 33.1099ZM24.4691 32.2519C24.8285 32.2519 25.1401 32.1932 25.4041 32.0759C25.6755 31.9512 25.8955 31.7862 26.0641 31.5809V30.6679H24.4141C24.0621 30.6679 23.8055 30.7376 23.6441 30.8769C23.4901 31.0089 23.4131 31.2142 23.4131 31.4929C23.4131 31.7642 23.5048 31.9586 23.6881 32.0759C23.8715 32.1932 24.1318 32.2519 24.4691 32.2519Z" fill="#0B2E58"/>
<path d="M30.6828 33.1099C29.7661 33.1099 29.0291 32.9926 28.4718 32.7579V31.7019C28.7871 31.8192 29.1244 31.9146 29.4838 31.9879C29.8504 32.0612 30.2134 32.0979 30.5728 32.0979C31.1374 32.0979 31.5591 32.0319 31.8378 31.8999C32.1238 31.7679 32.2668 31.5039 32.2668 31.1079C32.2668 30.8659 32.2081 30.6716 32.0908 30.5249C31.9734 30.3782 31.7791 30.2536 31.5078 30.1509C31.2364 30.0409 30.8624 29.9272 30.3858 29.8099C29.6231 29.6119 29.0878 29.3626 28.7798 29.0619C28.4718 28.7539 28.3178 28.3322 28.3178 27.7969C28.3178 27.1736 28.5451 26.6859 28.9998 26.3339C29.4544 25.9819 30.1328 25.8059 31.0348 25.8059C31.4454 25.8059 31.8304 25.8352 32.1898 25.8939C32.5564 25.9526 32.8424 26.0186 33.0478 26.0919V27.1479C32.4904 26.9352 31.8744 26.8289 31.1998 26.8289C30.6718 26.8289 30.2611 26.8986 29.9678 27.0379C29.6744 27.1772 29.5278 27.4302 29.5278 27.7969C29.5278 28.0096 29.5791 28.1819 29.6818 28.3139C29.7844 28.4459 29.9604 28.5596 30.2098 28.6549C30.4664 28.7502 30.8184 28.8566 31.2658 28.9739C31.8451 29.1206 32.2924 29.2966 32.6078 29.5019C32.9304 29.6999 33.1541 29.9346 33.2788 30.2059C33.4108 30.4699 33.4768 30.7706 33.4768 31.1079C33.4768 31.7312 33.2458 32.2226 32.7838 32.5819C32.3218 32.9339 31.6214 33.1099 30.6828 33.1099Z" fill="#0B2E58"/>
<path d="M37.1363 33.1099C36.1977 33.1099 35.5083 32.8752 35.0683 32.4059C34.6357 31.9366 34.4193 31.2656 34.4193 30.3929C34.4193 29.5202 34.6393 28.8492 35.0793 28.3799C35.5193 27.9106 36.205 27.6759 37.1363 27.6759C38.075 27.6759 38.7643 27.9106 39.2043 28.3799C39.6443 28.8492 39.8643 29.5202 39.8643 30.3929C39.8643 31.2656 39.6443 31.9366 39.2043 32.4059C38.7717 32.8752 38.0823 33.1099 37.1363 33.1099ZM37.1363 32.0979C37.6863 32.0979 38.075 31.9659 38.3023 31.7019C38.537 31.4306 38.6543 30.9942 38.6543 30.3929C38.6543 29.7916 38.537 29.3589 38.3023 29.0949C38.075 28.8309 37.6863 28.6989 37.1363 28.6989C36.5937 28.6989 36.205 28.8309 35.9703 29.0949C35.743 29.3589 35.6293 29.7916 35.6293 30.3929C35.6293 30.9942 35.743 31.4306 35.9703 31.7019C36.205 31.9659 36.5937 32.0979 37.1363 32.0979Z" fill="#0B2E58"/>
<path d="M41.3499 32.9999V28.7209H40.5909V27.7859H41.3499V27.1479C41.3499 26.6272 41.4929 26.2092 41.7789 25.8939C42.0723 25.5712 42.5049 25.4099 43.0769 25.4099C43.2896 25.4099 43.4839 25.4282 43.6599 25.4649C43.8359 25.4942 43.9973 25.5382 44.1439 25.5969V26.4549C43.9166 26.3742 43.6856 26.3339 43.4509 26.3339C43.1063 26.3339 42.8679 26.3962 42.7359 26.5209C42.6039 26.6456 42.5379 26.8582 42.5379 27.1589V27.7859H43.9019L43.8469 28.7209H42.5379V32.9999H41.3499Z" fill="#0B2E58"/>
<path d="M46.6528 33.1099C46.0955 33.1099 45.6775 32.9632 45.3988 32.6699C45.1275 32.3692 44.9918 31.9622 44.9918 31.4489V28.7209H44.2218V27.7859H44.9918V26.5869L46.1798 26.2239V27.7859H47.5658L47.4888 28.7209H46.1798V31.3829C46.1798 31.6836 46.2495 31.8962 46.3888 32.0209C46.5281 32.1382 46.7555 32.1969 47.0708 32.1969C47.2688 32.1969 47.4778 32.1602 47.6978 32.0869V32.9339C47.4118 33.0512 47.0635 33.1099 46.6528 33.1099Z" fill="#0B2E58"/>
<path d="M54.4721 33.1099C53.3061 33.1099 52.4224 32.7909 51.8211 32.1529C51.2271 31.5149 50.9301 30.6532 50.9301 29.5679C50.9301 28.7906 51.0547 28.1232 51.3041 27.5659C51.5607 27.0012 51.9494 26.5686 52.4701 26.2679C52.9907 25.9599 53.6544 25.8059 54.4611 25.8059C54.8717 25.8059 55.2457 25.8389 55.5831 25.9049C55.9277 25.9636 56.2467 26.0442 56.5401 26.1469V27.1919C56.2467 27.0746 55.9314 26.9866 55.5941 26.9279C55.2641 26.8619 54.9157 26.8289 54.5491 26.8289C53.6691 26.8289 53.0457 27.0636 52.6791 27.5329C52.3197 28.0022 52.1401 28.6806 52.1401 29.5679C52.1401 30.3966 52.3381 31.0272 52.7341 31.4599C53.1301 31.8852 53.7424 32.0979 54.5711 32.0979C54.9084 32.0979 55.2457 32.0722 55.5831 32.0209C55.9277 31.9622 56.2504 31.8742 56.5511 31.7569V32.8129C56.2577 32.9082 55.9387 32.9816 55.5941 33.0329C55.2567 33.0842 54.8827 33.1099 54.4721 33.1099Z" fill="#0B2E58"/>
<path d="M60.1783 33.1099C59.2397 33.1099 58.5503 32.8752 58.1103 32.4059C57.6777 31.9366 57.4613 31.2656 57.4613 30.3929C57.4613 29.5202 57.6813 28.8492 58.1213 28.3799C58.5613 27.9106 59.247 27.6759 60.1783 27.6759C61.117 27.6759 61.8063 27.9106 62.2463 28.3799C62.6863 28.8492 62.9063 29.5202 62.9063 30.3929C62.9063 31.2656 62.6863 31.9366 62.2463 32.4059C61.8137 32.8752 61.1243 33.1099 60.1783 33.1099ZM60.1783 32.0979C60.7283 32.0979 61.117 31.9659 61.3443 31.7019C61.579 31.4306 61.6963 30.9942 61.6963 30.3929C61.6963 29.7916 61.579 29.3589 61.3443 29.0949C61.117 28.8309 60.7283 28.6989 60.1783 28.6989C59.6357 28.6989 59.247 28.8309 59.0123 29.0949C58.785 29.3589 58.6713 29.7916 58.6713 30.3929C58.6713 30.9942 58.785 31.4306 59.0123 31.7019C59.247 31.9659 59.6357 32.0979 60.1783 32.0979Z" fill="#0B2E58"/>
<path d="M64.0729 32.9999V27.7859H65.1729L65.2279 28.3359C65.4846 28.1306 65.7669 27.9692 66.0749 27.8519C66.3829 27.7346 66.7129 27.6759 67.0649 27.6759C67.4389 27.6759 67.7286 27.7382 67.9339 27.8629C68.1466 27.9802 68.3079 28.1452 68.4179 28.3579C68.6599 28.1599 68.9386 27.9986 69.2539 27.8739C69.5693 27.7419 69.9469 27.6759 70.3869 27.6759C70.9883 27.6759 71.4319 27.8299 71.7179 28.1379C72.0039 28.4459 72.1469 28.9189 72.1469 29.5569V32.9999H70.9699V29.6779C70.9699 29.2746 70.8856 28.9922 70.7169 28.8309C70.5483 28.6696 70.2733 28.5889 69.8919 28.5889C69.6426 28.5889 69.4043 28.6329 69.1769 28.7209C68.9569 28.8089 68.7663 28.9409 68.6049 29.1169C68.6269 29.1976 68.6416 29.2819 68.6489 29.3699C68.6563 29.4579 68.6599 29.5532 68.6599 29.6559V32.9999H67.5489V29.6889C67.5489 29.3076 67.4829 29.0289 67.3509 28.8529C67.2189 28.6769 66.9696 28.5889 66.6029 28.5889C66.3463 28.5889 66.1006 28.6512 65.8659 28.7759C65.6386 28.8932 65.4333 29.0362 65.2499 29.2049V32.9999H64.0729Z" fill="#0B2E58"/>
<path d="M73.4938 35.3759V27.7859H74.5278L74.5938 28.3029C74.8285 28.0902 75.0852 27.9326 75.3638 27.8299C75.6425 27.7272 75.9725 27.6759 76.3538 27.6759C77.1018 27.6759 77.6848 27.8812 78.1028 28.2919C78.5208 28.6952 78.7298 29.3662 78.7298 30.3049C78.7298 31.2436 78.5135 31.9476 78.0808 32.4169C77.6482 32.8789 77.0578 33.1099 76.3098 33.1099C75.6792 33.1099 75.1402 32.9632 74.6928 32.6699V35.3759H73.4938ZM76.0018 32.2079C77.0138 32.2079 77.5198 31.5699 77.5198 30.2939C77.5198 29.6779 77.4062 29.2416 77.1788 28.9849C76.9515 28.7209 76.5702 28.5889 76.0348 28.5889C75.4995 28.5889 75.0522 28.7722 74.6928 29.1389V31.7459C74.8615 31.8852 75.0485 31.9989 75.2538 32.0869C75.4665 32.1676 75.7158 32.2079 76.0018 32.2079Z" fill="#0B2E58"/>
<path d="M82.3932 33.1099C81.4545 33.1099 80.7652 32.8752 80.3252 32.4059C79.8925 31.9366 79.6762 31.2656 79.6762 30.3929C79.6762 29.5202 79.8962 28.8492 80.3362 28.3799C80.7762 27.9106 81.4618 27.6759 82.3932 27.6759C83.3318 27.6759 84.0212 27.9106 84.4612 28.3799C84.9012 28.8492 85.1212 29.5202 85.1212 30.3929C85.1212 31.2656 84.9012 31.9366 84.4612 32.4059C84.0285 32.8752 83.3392 33.1099 82.3932 33.1099ZM82.3932 32.0979C82.9432 32.0979 83.3318 31.9659 83.5592 31.7019C83.7938 31.4306 83.9112 30.9942 83.9112 30.3929C83.9112 29.7916 83.7938 29.3589 83.5592 29.0949C83.3318 28.8309 82.9432 28.6989 82.3932 28.6989C81.8505 28.6989 81.4618 28.8309 81.2272 29.0949C80.9998 29.3589 80.8862 29.7916 80.8862 30.3929C80.8862 30.9942 80.9998 31.4306 81.2272 31.7019C81.4618 31.9659 81.8505 32.0979 82.3932 32.0979Z" fill="#0B2E58"/>
<path d="M86.2878 32.9999V27.7859H87.3878L87.4428 28.3359C87.6774 28.1526 87.9561 27.9986 88.2788 27.8739C88.6088 27.7419 88.9718 27.6759 89.3678 27.6759C90.0424 27.6759 90.5338 27.8336 90.8418 28.1489C91.1498 28.4642 91.3038 28.9556 91.3038 29.6229V32.9999H90.1158V29.6779C90.1158 29.2746 90.0314 28.9922 89.8628 28.8309C89.7014 28.6696 89.3934 28.5889 88.9388 28.5889C88.6674 28.5889 88.3998 28.6439 88.1358 28.7539C87.8791 28.8639 87.6628 29.0069 87.4868 29.1829V32.9999H86.2878Z" fill="#0B2E58"/>
<path d="M95.1797 33.1099C94.2704 33.1099 93.5664 32.8862 93.0677 32.4389C92.5691 31.9916 92.3197 31.3059 92.3197 30.3819C92.3197 29.5459 92.5324 28.8859 92.9577 28.4019C93.3831 27.9179 94.0284 27.6759 94.8937 27.6759C95.6857 27.6759 96.2797 27.8849 96.6757 28.3029C97.0791 28.7136 97.2807 29.2452 97.2807 29.8979V30.8659H93.4637C93.5224 31.3719 93.7057 31.7202 94.0137 31.9109C94.3217 32.1016 94.791 32.1969 95.4217 32.1969C95.6857 32.1969 95.9571 32.1712 96.2357 32.1199C96.5144 32.0686 96.7564 32.0026 96.9617 31.9219V32.8019C96.727 32.9046 96.4557 32.9816 96.1477 33.0329C95.8471 33.0842 95.5244 33.1099 95.1797 33.1099ZM93.4637 30.0849H96.2247V29.7219C96.2247 29.3626 96.1257 29.0839 95.9277 28.8859C95.7297 28.6806 95.3961 28.5779 94.9267 28.5779C94.3694 28.5779 93.9844 28.6989 93.7717 28.9409C93.5664 29.1829 93.4637 29.5642 93.4637 30.0849Z" fill="#0B2E58"/>
<path d="M98.4479 32.9999V27.7859H99.5479L99.6029 28.3359C99.8376 28.1526 100.116 27.9986 100.439 27.8739C100.769 27.7419 101.132 27.6759 101.528 27.6759C102.203 27.6759 102.694 27.8336 103.002 28.1489C103.31 28.4642 103.464 28.9556 103.464 29.6229V32.9999H102.276V29.6779C102.276 29.2746 102.192 28.9922 102.023 28.8309C101.862 28.6696 101.554 28.5889 101.099 28.5889C100.828 28.5889 100.56 28.6439 100.296 28.7539C100.039 28.8639 99.8229 29.0069 99.6469 29.1829V32.9999H98.4479Z" fill="#0B2E58"/>
<path d="M106.798 33.1099C106.241 33.1099 105.823 32.9632 105.544 32.6699C105.273 32.3692 105.137 31.9622 105.137 31.4489V28.7209H104.367V27.7859H105.137V26.5869L106.325 26.2239V27.7859H107.711L107.634 28.7209H106.325V31.3829C106.325 31.6836 106.395 31.8962 106.534 32.0209C106.674 32.1382 106.901 32.1969 107.216 32.1969C107.414 32.1969 107.623 32.1602 107.843 32.0869V32.9339C107.557 33.0512 107.209 33.1099 106.798 33.1099Z" fill="#0B2E58"/>
<path d="M111.296 32.9999V25.9159H112.495V32.0759H116.125V32.9999H111.296Z" fill="#0B2E58"/>
<path d="M117.128 26.6969V25.7069H118.437V26.6969H117.128ZM117.227 32.9999V28.6989H116.435L116.545 27.7859H118.426V32.9999H117.227Z" fill="#0B2E58"/>
<path d="M122.685 33.1099C122.304 33.1099 121.974 33.0586 121.695 32.9559C121.416 32.8532 121.16 32.6956 120.925 32.4829L120.859 32.9999H119.825V25.5859H121.024V28.1269C121.479 27.8262 122.025 27.6759 122.663 27.6759C123.404 27.6759 123.987 27.8886 124.412 28.3139C124.845 28.7319 125.061 29.4102 125.061 30.3489C125.061 31.2949 124.848 31.9916 124.423 32.4389C123.998 32.8862 123.418 33.1099 122.685 33.1099ZM122.366 32.2079C122.909 32.2079 123.29 32.0539 123.51 31.7459C123.737 31.4379 123.851 30.9722 123.851 30.3489C123.851 29.7036 123.73 29.2489 123.488 28.9849C123.246 28.7209 122.865 28.5889 122.344 28.5889C121.801 28.5889 121.361 28.7392 121.024 29.0399V31.6579C121.369 32.0246 121.816 32.2079 122.366 32.2079Z" fill="#0B2E58"/>
<path d="M126.227 32.9999V27.7859H127.327L127.393 28.3909C127.643 28.2296 127.94 28.0829 128.284 27.9509C128.629 27.8189 128.97 27.7272 129.307 27.6759V28.5889C129.102 28.6256 128.878 28.6806 128.636 28.7539C128.402 28.8199 128.178 28.8969 127.965 28.9849C127.753 29.0656 127.573 29.1499 127.426 29.2379V32.9999H126.227Z" fill="#0B2E58"/>
<path d="M131.475 33.1099C131.145 33.1099 130.837 33.0512 130.551 32.9339C130.273 32.8166 130.049 32.6406 129.88 32.4059C129.712 32.1639 129.627 31.8669 129.627 31.5149C129.627 31.0162 129.796 30.6166 130.133 30.3159C130.478 30.0079 131.006 29.8539 131.717 29.8539H133.389V29.6229C133.389 29.3736 133.349 29.1756 133.268 29.0289C133.195 28.8822 133.056 28.7759 132.85 28.7099C132.652 28.6439 132.359 28.6109 131.97 28.6109C131.354 28.6109 130.779 28.7026 130.243 28.8859V27.9949C130.478 27.8996 130.764 27.8226 131.101 27.7639C131.439 27.7052 131.802 27.6759 132.19 27.6759C132.953 27.6759 133.532 27.8299 133.928 28.1379C134.332 28.4459 134.533 28.9482 134.533 29.6449V32.9999H133.51L133.433 32.4719C133.221 32.6772 132.957 32.8349 132.641 32.9449C132.333 33.0549 131.945 33.1099 131.475 33.1099ZM131.794 32.2519C132.154 32.2519 132.465 32.1932 132.729 32.0759C133.001 31.9512 133.221 31.7862 133.389 31.5809V30.6679H131.739C131.387 30.6679 131.131 30.7376 130.969 30.8769C130.815 31.0089 130.738 31.2142 130.738 31.4929C130.738 31.7642 130.83 31.9586 131.013 32.0759C131.197 32.1932 131.457 32.2519 131.794 32.2519Z" fill="#0B2E58"/>
<path d="M135.863 32.9999V27.7859H136.963L137.029 28.3909C137.278 28.2296 137.575 28.0829 137.92 27.9509C138.265 27.8189 138.606 27.7272 138.943 27.6759V28.5889C138.738 28.6256 138.514 28.6806 138.272 28.7539C138.037 28.8199 137.814 28.8969 137.601 28.9849C137.388 29.0656 137.209 29.1499 137.062 29.2379V32.9999H135.863Z" fill="#0B2E58"/>
<path d="M140.606 34.9359C140.21 34.9359 139.873 34.8846 139.594 34.7819V33.8909C139.719 33.9349 139.833 33.9642 139.935 33.9789C140.045 33.9936 140.155 34.0009 140.265 34.0009C140.493 34.0009 140.676 33.9642 140.815 33.8909C140.955 33.8176 141.076 33.7002 141.178 33.5389C141.288 33.3849 141.406 33.1832 141.53 32.9339L139.209 27.7859H140.452L142.124 31.6579L143.818 27.7859H145.05L142.927 32.7029C142.744 33.1429 142.546 33.5279 142.333 33.8579C142.128 34.1952 141.886 34.4592 141.607 34.6499C141.336 34.8406 141.002 34.9359 140.606 34.9359Z" fill="#0B2E58"/>
</svg>
