<svg width="74" height="66" viewBox="0 0 74 66" fill="none" xmlns="http://www.w3.org/2000/svg">
<path d="M68.82 0H5.18C2.3236 0 0 2.33168 0 5.19802V51.2376C0 54.104 2.3236 56.4356 5.18 56.4356H22.4664V63.0297H16.4872C15.6732 63.0297 15.0072 63.698 15.0072 64.5149C15.0072 65.3317 15.6732 66 16.4872 66H23.9464H50.0536H57.5128C58.3268 66 58.9928 65.3317 58.9928 64.5149C58.9928 63.698 58.3268 63.0297 57.5128 63.0297H51.5336V56.4356H68.82C71.6764 56.4356 74 54.104 74 51.2376V5.19802C74 2.33168 71.6764 0 68.82 0ZM48.5736 63.0297H25.4264V56.4356H48.5736V63.0297ZM71.04 51.2376C71.04 52.4703 70.0484 53.4653 68.82 53.4653H50.0536H23.9464H5.18C3.9516 53.4653 2.96 52.4703 2.96 51.2376V46.6931H71.04V51.2376ZM71.04 43.7228H2.96V5.19802C2.96 3.96535 3.9516 2.9703 5.18 2.9703H68.82C70.0484 2.9703 71.04 3.96535 71.04 5.19802V43.7228Z" fill="#DCDCDC"/>
<path d="M54.9652 21.8611H51.7684V18.6532C51.7684 17.8363 51.1024 17.168 50.2884 17.168C49.4744 17.168 48.8084 17.8363 48.8084 18.6532V21.8611H35.8584C35.148 17.465 31.3444 14.0938 26.7712 14.0938C21.6948 14.0938 17.5508 18.2373 17.5508 23.3462C17.5508 28.4551 21.68 32.5987 26.7712 32.5987C31.3444 32.5987 35.148 29.2274 35.8584 24.8314H54.9652C55.7792 24.8314 56.4452 24.1631 56.4452 23.3462C56.4452 22.5294 55.794 21.8611 54.9652 21.8611ZM26.7712 29.6284C23.3228 29.6284 20.5108 26.8066 20.5108 23.3462C20.5108 19.8858 23.3228 17.064 26.7712 17.064C30.2196 17.064 33.0316 19.8858 33.0316 23.3462C33.0316 26.8066 30.2196 29.6284 26.7712 29.6284Z" fill="#DCDCDC"/>
</svg>
