<svg width="16" height="16" viewBox="0 0 16 16" fill="none" xmlns="http://www.w3.org/2000/svg">
<g clip-path="url(#clip0_1273_963)">
<path d="M14.936 6.41148C13.9816 4.85702 11.8105 2.24902 8.00002 2.24902C4.18956 2.24902 2.01848 4.85702 1.06402 6.41148C0.768962 6.88872 0.612671 7.43871 0.612671 7.99979C0.612671 8.56087 0.768962 9.11086 1.06402 9.5881C2.01848 11.1426 4.18956 13.7506 8.00002 13.7506C11.8105 13.7506 13.9816 11.1426 14.936 9.5881C15.2311 9.11086 15.3874 8.56087 15.3874 7.99979C15.3874 7.43871 15.2311 6.88872 14.936 6.41148ZM13.8868 8.94379C13.0671 10.2767 11.2117 12.5198 8.00002 12.5198C4.78833 12.5198 2.93295 10.2767 2.11325 8.94379C1.93795 8.66013 1.8451 8.33325 1.8451 7.99979C1.8451 7.66633 1.93795 7.33946 2.11325 7.05579C2.93295 5.72287 4.78833 3.47979 8.00002 3.47979C11.2117 3.47979 13.0671 5.72041 13.8868 7.05579C14.0621 7.33946 14.1549 7.66633 14.1549 7.99979C14.1549 8.33325 14.0621 8.66013 13.8868 8.94379Z" fill="#6D6E6F"/>
<path d="M8.00002 4.92285C7.39146 4.92285 6.79657 5.10331 6.29057 5.44141C5.78458 5.7795 5.3902 6.26005 5.15731 6.82229C4.92443 7.38452 4.8635 8.00319 4.98222 8.60005C5.10094 9.19692 5.39399 9.74517 5.82431 10.1755C6.25462 10.6058 6.80288 10.8989 7.39974 11.0176C7.99661 11.1363 8.61527 11.0754 9.17751 10.8425C9.73974 10.6096 10.2203 10.2152 10.5584 9.70922C10.8965 9.20323 11.0769 8.60833 11.0769 7.99978C11.076 7.18402 10.7515 6.40196 10.1747 5.82514C9.59783 5.24832 8.81577 4.92383 8.00002 4.92285ZM8.00002 9.84593C7.63488 9.84593 7.27795 9.73765 6.97435 9.5348C6.67075 9.33194 6.43413 9.04361 6.2944 8.70627C6.15466 8.36893 6.1181 7.99773 6.18934 7.63961C6.26057 7.28149 6.4364 6.95254 6.69459 6.69435C6.95278 6.43616 7.28173 6.26033 7.63985 6.18909C7.99797 6.11786 8.36917 6.15442 8.70651 6.29415C9.04385 6.43388 9.33218 6.67051 9.53504 6.97411C9.7379 7.27771 9.84617 7.63464 9.84617 7.99978C9.84617 8.48941 9.65167 8.95898 9.30545 9.3052C8.95923 9.65142 8.48965 9.84593 8.00002 9.84593Z" fill="#6D6E6F"/>
<path d="M14.7692 1.23096L1.23071 14.7694" stroke="#6D6E6F" stroke-width="1.2" stroke-linecap="round"/>
</g>
<defs>
<clipPath id="clip0_1273_963">
<rect width="16" height="16" fill="white"/>
</clipPath>
</defs>
</svg>
