<svg width="18" height="18" viewBox="0 0 18 18" fill="none" xmlns="http://www.w3.org/2000/svg">
<g id="triangle-warning 1">
<path id="Vector" d="M8.24956 9.74707V5.24707C8.24956 4.83457 8.58706 4.49707 8.99956 4.49707C9.41206 4.49707 9.74956 4.83457 9.74956 5.24707V9.74707C9.74956 10.1596 9.41206 10.4971 8.99956 10.4971C8.58706 10.4971 8.24956 10.1596 8.24956 9.74707ZM8.99956 11.2471C8.37706 11.2471 7.87456 11.7496 7.87456 12.3721C7.87456 12.9946 8.37706 13.4971 8.99956 13.4971C9.62206 13.4971 10.1246 12.9946 10.1246 12.3721C10.1246 11.7496 9.62206 11.2471 8.99956 11.2471ZM17.6846 14.9071C17.1596 15.9196 16.0571 16.4971 14.6771 16.4971H3.32956C1.94206 16.4971 0.847062 15.9196 0.322062 14.9071C-0.210438 13.8871 -0.060438 12.5821 0.697062 11.4871L6.72706 1.94707C7.25956 1.18207 8.09956 0.74707 8.99956 0.74707C9.89956 0.74707 10.7396 1.18207 11.2496 1.92457L17.3096 11.5021C18.0671 12.5971 18.2096 13.8946 17.6771 14.9071H17.6846ZM16.0721 12.3421C16.0721 12.3421 16.0571 12.3271 16.0571 12.3121L10.0046 2.74957C9.78706 2.44207 9.41206 2.24707 8.99956 2.24707C8.58706 2.24707 8.21206 2.44207 7.97956 2.77957L1.94206 12.3121C1.47706 12.9721 1.37206 13.6921 1.64206 14.2096C1.90456 14.7196 2.50456 14.9971 3.32206 14.9971H14.6621C15.4796 14.9971 16.0796 14.7196 16.3421 14.2096C16.6121 13.6921 16.5071 12.9721 16.0646 12.3421H16.0721Z" fill="#D88C14"/>
</g>
</svg>
