<svg width="16" height="20" viewBox="0 0 16 20" fill="none" xmlns="http://www.w3.org/2000/svg">
<g id="WebCam">
<path id="Vector" d="M12.0012 0H4.0004C1.79458 0 0 1.79458 0 4.0004V12.0012C0 14.207 1.79458 16.0016 4.0004 16.0016H4.0268C3.82998 16.2008 3.64917 16.4152 3.48755 16.6465C3.14511 17.1353 3.10511 17.7426 3.37954 18.269C3.67957 18.8443 4.29003 19.2019 4.9725 19.2019H11.0275C11.7108 19.2019 12.3212 18.8443 12.6205 18.269C12.8949 17.7418 12.8549 17.1353 12.5125 16.6457C12.3508 16.4152 12.17 16.2 11.9732 16.0016H11.9996C14.2054 16.0016 16 14.207 16 12.0012V4.0004C16 1.79458 14.2054 0 11.9996 0H12.0012ZM11.2027 17.5282C11.1971 17.5426 11.1483 17.6018 11.0283 17.6018H4.9733C4.87169 17.6018 4.82048 17.5594 4.80448 17.5594H4.80208C5.47735 16.5977 6.70227 16.0008 8.0016 16.0008C9.30093 16.0008 10.5291 16.5993 11.2035 17.5274L11.2027 17.5282ZM14.4014 12.0012C14.4014 13.3245 13.3245 14.4014 12.0012 14.4014H4.0004C2.67707 14.4014 1.60016 13.3245 1.60016 12.0012V4.0004C1.60016 2.67707 2.67707 1.60016 4.0004 1.60016H12.0012C13.3245 1.60016 14.4014 2.67707 14.4014 4.0004V12.0012ZM8.0008 4.0004C5.79498 4.0004 4.0004 5.79498 4.0004 8.0008C4.0004 10.2066 5.79498 12.0012 8.0008 12.0012C10.2066 12.0012 12.0012 10.2066 12.0012 8.0008C12.0012 5.79498 10.2066 4.0004 8.0008 4.0004ZM8.0008 10.401C6.67747 10.401 5.60056 9.32413 5.60056 8.0008C5.60056 6.67747 6.67747 5.60056 8.0008 5.60056C9.32413 5.60056 10.401 6.67747 10.401 8.0008C10.401 9.32413 9.32413 10.401 8.0008 10.401Z" fill="#6D6E6F"/>
</g>
</svg>
