<svg width="144" height="40" viewBox="0 0 144 40" fill="none" xmlns="http://www.w3.org/2000/svg">
<g clip-path="url(#clip0_944_682)">
<g clip-path="url(#clip1_944_682)">
<g clip-path="url(#clip2_944_682)">
<path fill-rule="evenodd" clip-rule="evenodd" d="M37.9018 6.1346C39.0722 6.1346 40.0329 5.18032 40.0329 3.98856C40.0329 2.79682 39.0722 1.84254 37.9018 1.84254C36.7314 1.84254 35.7707 2.79682 35.7707 3.98856C35.7707 5.18032 36.7314 6.1346 37.9018 6.1346ZM37.9018 7.97616C40.0958 7.97616 41.8744 6.19086 41.8744 3.98856C41.8744 1.78628 40.0958 0.000976562 37.9018 0.000976562C35.7078 0.000976562 33.9291 1.78628 33.9291 3.98856C33.9291 6.19086 35.7078 7.97616 37.9018 7.97616ZM43.644 16.7725C45.5457 16.7725 47.0993 15.2231 47.0993 13.2973C47.0993 11.3714 45.5457 9.822 43.644 9.822C41.7422 9.822 40.1887 11.3714 40.1887 13.2973C40.1887 15.2231 41.7422 16.7725 43.644 16.7725ZM43.644 18.6141C46.5693 18.6141 48.9408 16.2336 48.9408 13.2973C48.9408 10.3609 46.5693 7.98047 43.644 7.98047C40.7187 7.98047 38.3471 10.3609 38.3471 13.2973C38.3471 16.2336 40.7187 18.6141 43.644 18.6141ZM40.5747 25.6995C40.5747 28.9092 37.9855 31.4915 34.8158 31.4915C31.6462 31.4915 29.0571 28.9092 29.0571 25.6995C29.0571 22.4897 31.6462 19.9075 34.8158 19.9075C37.9855 19.9075 40.5747 22.4897 40.5747 25.6995ZM43.6439 25.6995C43.6439 30.5934 39.6915 34.5608 34.8158 34.5608C29.9402 34.5608 25.9878 30.5934 25.9878 25.6995C25.9878 20.8055 29.9402 16.8381 34.8158 16.8381C39.6915 16.8381 43.6439 20.8055 43.6439 25.6995ZM5.51127 34.5621L0 15.2283H4.44851L7.63678 28.6619H7.79665L11.3141 15.2283H15.1231L18.6311 28.6903H18.8003L21.9887 15.2283H26.4372L20.9259 34.5621H16.9571L13.2891 21.9215H13.1386L9.48013 34.5621H5.51127ZM134.048 33.9386C135.057 34.5554 136.258 34.8637 137.649 34.8637C138.628 34.8637 139.508 34.7126 140.292 34.4105C141.076 34.1022 141.735 33.6742 142.267 33.1267C142.8 32.5729 143.18 31.9309 143.405 31.2009L141.261 30.5967C141.073 31.1001 140.806 31.5219 140.462 31.8617C140.117 32.1953 139.707 32.447 139.229 32.6169C138.759 32.7805 138.233 32.8623 137.649 32.8623C136.753 32.8623 135.966 32.6673 135.289 32.2771C134.612 31.8806 134.082 31.3047 133.7 30.5494C133.359 29.859 133.172 29.0314 133.14 28.0666H143.631V27.1227C143.631 25.7696 143.453 24.6304 143.095 23.7053C142.737 22.7801 142.258 22.0375 141.656 21.4773C141.055 20.9109 140.387 20.5018 139.653 20.2501C138.919 19.9984 138.177 19.8725 137.424 19.8725C136.119 19.8725 134.979 20.1934 134 20.8354C133.029 21.471 132.27 22.3584 131.724 23.4976C131.185 24.6304 130.916 25.9395 130.916 27.4248C130.916 28.91 131.185 30.2128 131.724 31.333C132.27 32.447 133.044 33.3155 134.048 33.9386ZM133.146 26.1408C133.188 25.4682 133.357 24.8326 133.652 24.2339C133.998 23.5353 134.49 22.9689 135.129 22.5346C135.775 22.0941 136.539 21.8738 137.424 21.8738C138.227 21.8738 138.922 22.0595 139.512 22.4308C140.107 22.8021 140.566 23.3088 140.885 23.9507C141.211 24.5926 141.374 25.3227 141.374 26.1408H133.146ZM122.666 34.8637C121.312 34.8637 120.146 34.5427 119.167 33.9008C118.189 33.2589 117.438 32.3746 116.91 31.248C116.384 30.1215 116.12 28.8345 116.12 27.3869C116.12 25.9143 116.39 24.6147 116.929 23.4881C117.475 22.3553 118.234 21.471 119.206 20.8354C120.184 20.1934 121.325 19.8725 122.629 19.8725C123.645 19.8725 124.56 20.0613 125.375 20.4389C126.19 20.8165 126.858 21.3451 127.378 22.0249C127.899 22.7046 128.222 23.4976 128.347 24.4038H126.127C125.958 23.743 125.582 23.1577 124.999 22.648C124.422 22.1319 123.645 21.8738 122.666 21.8738C121.801 21.8738 121.043 22.1004 120.39 22.5535C119.745 23.0004 119.24 23.6328 118.877 24.4511C118.518 25.2629 118.34 26.2164 118.34 27.3115C118.34 28.4317 118.516 29.4072 118.867 30.2379C119.224 31.0687 119.726 31.7138 120.372 32.1732C121.024 32.6326 121.788 32.8623 122.666 32.8623C123.244 32.8623 123.766 32.7616 124.237 32.5603C124.707 32.3589 125.105 32.0694 125.432 31.6918C125.757 31.3141 125.99 30.861 126.127 30.3324H128.347C128.222 31.1882 127.912 31.9592 127.416 32.6453C126.927 33.325 126.278 33.8662 125.469 34.269C124.666 34.6654 123.733 34.8637 122.666 34.8637ZM104.541 34.3823C105.287 34.7284 106.118 34.9014 107.033 34.9014C107.873 34.9014 108.585 34.7756 109.168 34.5238C109.751 34.2721 110.219 33.9668 110.57 33.6081C110.921 33.2494 111.171 32.9127 111.322 32.598H111.435V34.5616H113.654V25.008C113.654 23.8563 113.466 22.9374 113.09 22.2514C112.714 21.5655 112.24 21.0525 111.67 20.7127C111.106 20.3728 110.52 20.1494 109.911 20.0424C109.31 19.9291 108.776 19.8725 108.312 19.8725C107.585 19.8725 106.845 19.9732 106.093 20.1745C105.347 20.3697 104.657 20.7158 104.024 21.213C103.397 21.7039 102.895 22.3899 102.519 23.271L104.625 24.0262C104.87 23.4976 105.294 23.0004 105.895 22.5346C106.497 22.0689 107.328 21.8361 108.388 21.8361C109.41 21.8361 110.171 22.0941 110.673 22.6102C111.181 23.1262 111.435 23.85 111.435 24.7814V24.857C111.435 25.2157 111.306 25.4675 111.05 25.6122C110.799 25.7569 110.397 25.8608 109.845 25.9237C109.3 25.9804 108.588 26.0654 107.711 26.1786C107.04 26.2667 106.372 26.3863 105.707 26.5373C105.049 26.6821 104.447 26.9023 103.902 27.1981C103.356 27.4939 102.92 27.903 102.595 28.4254C102.268 28.9415 102.105 29.6148 102.105 30.4456C102.105 31.3897 102.325 32.1953 102.764 32.8623C103.203 33.5232 103.795 34.0298 104.541 34.3823ZM109.592 32.3809C108.99 32.7271 108.25 32.9002 107.372 32.9002C106.488 32.9002 105.757 32.705 105.181 32.3148C104.61 31.9183 104.324 31.333 104.324 30.5589C104.324 29.9925 104.475 29.5457 104.776 29.2184C105.084 28.8849 105.484 28.6363 105.98 28.4726C106.482 28.3027 107.021 28.18 107.598 28.1045C107.836 28.073 108.146 28.0352 108.529 27.9912C108.918 27.9408 109.316 27.8842 109.723 27.8212C110.137 27.752 110.501 27.6733 110.814 27.5852C111.134 27.4908 111.341 27.3869 111.435 27.2737V29.3128C111.435 29.917 111.278 30.4928 110.964 31.0404C110.658 31.5879 110.2 32.0347 109.592 32.3809ZM86.6432 39.9992V20.0613H88.7875V22.3647H89.0508C89.2139 22.113 89.4396 21.792 89.7279 21.4018C90.0227 21.0053 90.4427 20.6529 90.9878 20.3445C91.5396 20.0298 92.2859 19.8725 93.2268 19.8725C94.4431 19.8725 95.5149 20.1777 96.443 20.7881C97.3711 21.3987 98.0947 22.264 98.6156 23.3843C99.1356 24.5045 99.3965 25.8262 99.3965 27.3492C99.3965 28.8849 99.1356 30.2159 98.6156 31.3425C98.0947 32.4627 97.3739 33.3312 96.4521 33.948C95.5312 34.5584 94.4676 34.8637 93.2641 34.8637C92.3359 34.8637 91.5932 34.7095 91.0351 34.4011C90.4773 34.0865 90.0477 33.7308 89.7467 33.3344C89.4459 32.9316 89.2139 32.598 89.0508 32.3337H88.8627V39.9992H86.6432ZM88.8251 27.3115C88.8251 28.4065 88.985 29.3726 89.3048 30.2096C89.6245 31.0404 90.0916 31.6918 90.7061 32.1637C91.3205 32.6295 92.0732 32.8623 92.9632 32.8623C93.8913 32.8623 94.6658 32.6169 95.2867 32.126C95.913 31.6288 96.3839 30.9617 96.6966 30.1246C97.0166 29.2813 97.1766 28.3436 97.1766 27.3115C97.1766 26.2919 97.0202 25.373 96.7066 24.5549C96.3994 23.7304 95.9321 23.079 95.3049 22.6007C94.684 22.1161 93.904 21.8738 92.9632 21.8738C92.0605 21.8738 91.3014 22.1035 90.6873 22.563C90.0728 23.0161 89.6088 23.6517 89.2953 24.4699C88.9819 25.2818 88.8251 26.229 88.8251 27.3115ZM81.0445 23.8752L83.0383 23.3088C82.6934 22.2766 82.1104 21.4458 81.289 20.8165C80.4739 20.1872 79.3516 19.8725 77.922 19.8725C76.9063 19.8725 75.9972 20.0518 75.1947 20.4106C74.3983 20.7693 73.7682 21.2633 73.3042 21.8927C72.8465 22.5221 72.6177 23.2459 72.6177 24.064C72.6177 25.0647 72.9249 25.8986 73.5394 26.5657C74.1601 27.2265 75.132 27.7142 76.4549 28.0289L78.8625 28.5953C79.5898 28.7652 80.1291 29.0233 80.4802 29.3694C80.8313 29.7093 81.0069 30.1309 81.0069 30.6344C81.0069 31.2575 80.6996 31.7925 80.0852 32.2393C79.477 32.6798 78.6556 32.9002 77.6211 32.9002C76.712 32.9002 75.9753 32.705 75.4109 32.3148C74.853 31.9247 74.4736 31.3393 74.273 30.5589L72.1663 31.0876C72.4233 32.3211 73.0347 33.2589 74.0002 33.9008C74.9658 34.5427 76.1853 34.8637 77.6587 34.8637C78.7811 34.8637 79.7654 34.6749 80.6119 34.2973C81.4583 33.9197 82.1166 33.4036 82.5869 32.7491C83.0634 32.0946 83.3017 31.3519 83.3017 30.5212C83.3017 29.5078 82.985 28.6803 82.3517 28.0384C81.7185 27.3901 80.7561 26.9087 79.4645 26.594L77.3201 26.0654C76.4674 25.8514 75.8405 25.5838 75.4391 25.2629C75.0379 24.942 74.8372 24.5045 74.8372 23.9507C74.8372 23.3277 75.1288 22.8147 75.7119 22.4119C76.3013 22.0028 77.038 21.7983 77.922 21.7983C78.5679 21.7983 79.0977 21.9022 79.5115 22.1098C79.9253 22.3175 80.2514 22.5819 80.4896 22.9028C80.7342 23.2175 80.9191 23.5416 81.0445 23.8752ZM60.9627 34.562V29.9582L62.0485 28.7138L65.985 34.562H70.678L65.0475 26.3428L70.4053 20.0617H65.8063L61.179 25.5654H60.9627V15.2282H56.9563V34.562H60.9627ZM46.127 20.0593V34.5596H50.1334V26.356C50.1334 25.7644 50.2651 25.242 50.5285 24.7889C50.7981 24.3358 51.1617 23.9834 51.6194 23.7316C52.0834 23.4736 52.61 23.3446 53.1995 23.3446C53.4754 23.3446 53.7794 23.3666 54.1117 23.4106C54.444 23.4547 54.7042 23.505 54.8923 23.5617V19.9932C54.7168 19.9492 54.513 19.9145 54.2811 19.8894C54.0491 19.8642 53.8327 19.8516 53.6321 19.8516C52.8233 19.8516 52.1085 20.0844 51.4877 20.5502C50.867 21.0096 50.425 21.6893 50.1617 22.5893H50.0112V20.0593H46.127Z" fill="#0B2E58"/>
<path d="M42.1093 25.6992C42.1093 29.7511 38.8385 33.0259 34.8159 33.0259C30.7932 33.0259 27.5225 29.7511 27.5225 25.6992C27.5225 21.6474 30.7932 18.3726 34.8159 18.3726C38.8385 18.3726 42.1093 21.6474 42.1093 25.6992Z" stroke="#0364B8" stroke-width="3.06927"/>
<path d="M40.9543 3.98868C40.9543 5.6857 39.5846 7.05549 37.9025 7.05549C36.2203 7.05549 34.8506 5.6857 34.8506 3.98868C34.8506 2.29166 36.2203 0.921875 37.9025 0.921875C39.5846 0.921875 40.9543 2.29166 40.9543 3.98868Z" stroke="#9AC64A" stroke-width="1.84156"/>
<path d="M48.0196 13.2974C48.0196 15.7285 46.0572 17.6934 43.6437 17.6934C41.23 17.6934 39.2676 15.7285 39.2676 13.2974C39.2676 10.8662 41.23 8.90137 43.6437 8.90137C46.0572 8.90137 48.0196 10.8662 48.0196 13.2974Z" stroke="#59A3E1" stroke-width="1.84156"/>
</g>
</g>
</g>
<defs>
<clipPath id="clip0_944_682">
<rect width="143.63" height="40" fill="white"/>
</clipPath>
<clipPath id="clip1_944_682">
<rect width="143.63" height="40" fill="white"/>
</clipPath>
<clipPath id="clip2_944_682">
<rect width="143.63" height="39.9982" fill="white" transform="translate(0 0.000976562)"/>
</clipPath>
</defs>
</svg>
